Lunasima-Bold.ufo
<glyph name="exclam" format="2">
  <advance width="642"/>
  <unicode hex="0021"/>
  <outline>
    <contour>
      <point x="514" y="1428" type="line"/>
      <point x="136" y="1428" type="line"/>
      <point x="211" y="470" type="line"/>
      <point x="439" y="470" type="line"/>
    </contour>
    <contour>
      <point x="115" y="144" type="curve" smooth="yes"/>
      <point x="115" y="24"/>
      <point x="207" y="-25"/>
      <point x="323" y="-25" type="curve" smooth="yes"/>
      <point x="434" y="-25"/>
      <point x="531" y="24"/>
      <point x="531" y="144" type="curve" smooth="yes"/>
      <point x="531" y="269"/>
      <point x="434" y="314"/>
      <point x="323" y="314" type="curve" smooth="yes"/>
      <point x="207" y="314"/>
      <point x="115" y="269"/>
    </contour>
  </outline>
</glyph>
<glyph name="quotedbl" format="2">
  <advance width="925"/>
  <unicode hex="0022"/>
  <outline>
    <contour>
      <point x="141" y="1428" type="line"/>
      <point x="171" y="912" type="line"/>
      <point x="398" y="912" type="line"/>
      <point x="427" y="1428" type="line"/>
    </contour>
    <contour>
      <point x="499" y="1428" type="line"/>
      <point x="528" y="912" type="line"/>
      <point x="755" y="912" type="line"/>
      <point x="784" y="1428" type="line"/>
    </contour>
  </outline>
</glyph>
<glyph name="numbersign" format="2">
  <advance width="1351"/>
  <unicode hex="0023"/>
  <outline>
    <contour>
      <point x="1308" y="820" type="line"/>
      <point x="1308" y="1034" type="line"/>
      <point x="1068" y="1034" type="line"/>
      <point x="1144" y="1428" type="line"/>
      <point x="919" y="1428" type="line"/>
      <point x="844" y="1034" type="line"/>
      <point x="633" y="1034" type="line"/>
      <point x="709" y="1428" type="line"/>
      <point x="482" y="1428" type="line"/>
      <point x="406" y="1034" type="line"/>
      <point x="114" y="1034" type="line"/>
      <point x="114" y="820" type="line"/>
      <point x="365" y="820" type="line"/>
      <point x="323" y="604" type="line"/>
      <point x="43" y="604" type="line"/>
      <point x="43" y="394" type="line"/>
      <point x="280" y="394" type="line"/>
      <point x="207" y="0" type="line"/>
      <point x="431" y="0" type="line"/>
      <point x="506" y="394" type="line"/>
      <point x="718" y="394" type="line"/>
      <point x="641" y="0" type="line"/>
      <point x="867" y="0" type="line"/>
      <point x="945" y="394" type="line"/>
      <point x="1242" y="394" type="line"/>
      <point x="1242" y="604" type="line"/>
      <point x="985" y="604" type="line"/>
      <point x="1027" y="820" type="line"/>
    </contour>
    <contour>
      <point x="590" y="820" type="line"/>
      <point x="800" y="820" type="line"/>
      <point x="759" y="604" type="line"/>
      <point x="548" y="604" type="line"/>
    </contour>
  </outline>
</glyph>
<glyph name="dollar" format="2">
  <advance width="1351"/>
  <unicode hex="0024"/>
  <outline>
    <contour>
      <point x="576" y="-116" type="line"/>
      <point x="766" y="-116" type="line"/>
      <point x="766" y="68" type="line"/>
      <point x="1115" y="98"/>
      <point x="1296" y="248"/>
      <point x="1296" y="454" type="curve" smooth="yes"/>
      <point x="1296" y="678"/>
      <point x="1112" y="756"/>
      <point x="766" y="837" type="curve"/>
      <point x="766" y="1132" type="line"/>
      <point x="902" y="1123"/>
      <point x="1041" y="1096"/>
      <point x="1157" y="1057" type="curve"/>
      <point x="1241" y="1285" type="line"/>
      <point x="1112" y="1328"/>
      <point x="957" y="1364"/>
      <point x="766" y="1371" type="curve"/>
      <point x="766" y="1520" type="line"/>
      <point x="576" y="1520" type="line"/>
      <point x="576" y="1369" type="line"/>
      <point x="263" y="1352"/>
      <point x="62" y="1235"/>
      <point x="62" y="1008" type="curve" smooth="yes"/>
      <point x="62" y="774"/>
      <point x="244" y="676"/>
      <point x="576" y="604" type="curve"/>
      <point x="576" y="306" type="line"/>
      <point x="408" y="313"/>
      <point x="209" y="348"/>
      <point x="78" y="400" type="curve"/>
      <point x="78" y="139" type="line"/>
      <point x="200" y="94"/>
      <point x="375" y="66"/>
      <point x="576" y="63" type="curve"/>
    </contour>
    <contour>
      <point x="766" y="560" type="line"/>
      <point x="950" y="526"/>
      <point x="1005" y="495"/>
      <point x="1005" y="428" type="curve" smooth="yes"/>
      <point x="1005" y="365"/>
      <point x="931" y="325"/>
      <point x="766" y="312" type="curve"/>
    </contour>
    <contour>
      <point x="576" y="888" type="line"/>
      <point x="407" y="918"/>
      <point x="352" y="954"/>
      <point x="352" y="1022" type="curve" smooth="yes"/>
      <point x="352" y="1082"/>
      <point x="424" y="1122"/>
      <point x="576" y="1130" type="curve"/>
    </contour>
  </outline>
</glyph>
<glyph name="percent" format="2">
  <advance width="1604"/>
  <unicode hex="0025"/>
  <outline>
    <contour>
      <point x="346" y="1448" type="curve" smooth="yes"/>
      <point x="152" y="1448"/>
      <point x="43" y="1284"/>
      <point x="43" y="1002" type="curve" smooth="yes"/>
      <point x="43" y="720"/>
      <point x="165" y="552" name=".hr01"/>
      <point x="346" y="552" type="curve" smooth="yes"/>
      <point x="548" y="552"/>
      <point x="656" y="720"/>
      <point x="656" y="1002" type="curve" smooth="yes"/>
      <point x="656" y="1284"/>
      <point x="533" y="1448"/>
    </contour>
    <contour>
      <point x="350" y="1248" type="curve" smooth="yes"/>
      <point x="396" y="1248"/>
      <point x="410" y="1158"/>
      <point x="410" y="1000" type="curve" smooth="yes"/>
      <point x="410" y="841"/>
      <point x="396" y="750"/>
      <point x="350" y="750" type="curve" smooth="yes"/>
      <point x="304" y="750"/>
      <point x="290" y="843"/>
      <point x="290" y="1000" type="curve" smooth="yes"/>
      <point x="290" y="1158"/>
      <point x="304" y="1248"/>
    </contour>
    <contour>
      <point x="1005" y="1428" type="line"/>
      <point x="348" y="0" type="line"/>
      <point x="591" y="0" type="line" name=".hr02"/>
      <point x="1247" y="1428" type="line" name=".hr03"/>
    </contour>
    <contour>
      <point x="1250" y="879" type="curve" smooth="yes"/>
      <point x="1055" y="879"/>
      <point x="947" y="715"/>
      <point x="947" y="433" type="curve" smooth="yes"/>
      <point x="947" y="151"/>
      <point x="1069" y="-17"/>
      <point x="1250" y="-17" type="curve" smooth="yes"/>
      <point x="1451" y="-17"/>
      <point x="1559" y="151"/>
      <point x="1559" y="433" type="curve" smooth="yes"/>
      <point x="1559" y="715"/>
      <point x="1436" y="879"/>
    </contour>
    <contour>
      <point x="1253" y="678" type="curve" smooth="yes"/>
      <point x="1299" y="678"/>
      <point x="1314" y="591"/>
      <point x="1314" y="430" type="curve" smooth="yes"/>
      <point x="1314" y="271"/>
      <point x="1299" y="181"/>
      <point x="1253" y="181" type="curve" smooth="yes"/>
      <point x="1208" y="181"/>
      <point x="1193" y="273"/>
      <point x="1193" y="430" type="curve" smooth="yes"/>
      <point x="1193" y="588"/>
      <point x="1208" y="678"/>
    </contour>
  </outline>
</glyph>
<glyph name="parenleft" format="2">
  <advance width="759"/>
  <unicode hex="0028"/>
  <outline>
    <contour>
      <point x="86" y="562" type="curve" smooth="yes"/>
      <point x="86" y="240"/>
      <point x="183" y="-82"/>
      <point x="418" y="-316" type="curve"/>
      <point x="693" y="-316" type="line"/>
      <point x="482" y="-70"/>
      <point x="382" y="254"/>
      <point x="382" y="564" type="curve" smooth="yes"/>
      <point x="382" y="880"/>
      <point x="482" y="1205"/>
      <point x="695" y="1455" type="curve"/>
      <point x="418" y="1455" type="line"/>
      <point x="183" y="1213"/>
      <point x="86" y="888"/>
    </contour>
  </outline>
</glyph>
<glyph name="parenright" format="2">
  <advance width="759"/>
  <unicode hex="0029"/>
  <outline>
    <contour>
      <point x="673" y="562" type="curve" smooth="yes"/>
      <point x="673" y="888"/>
      <point x="578" y="1213"/>
      <point x="343" y="1455" type="curve"/>
      <point x="64" y="1455" type="line"/>
      <point x="277" y="1205"/>
      <point x="378" y="880"/>
      <point x="378" y="564" type="curve" smooth="yes"/>
      <point x="378" y="254"/>
      <point x="277" y="-70"/>
      <point x="67" y="-316" type="curve"/>
      <point x="343" y="-316" type="line"/>
      <point x="578" y="-82"/>
      <point x="673" y="240"/>
    </contour>
  </outline>
</glyph>
<glyph name="asterisk" format="2">
  <advance width="955"/>
  <unicode hex="002A"/>
  <outline>
    <contour>
      <point x="353" y="1520" type="line"/>
      <point x="386" y="1163" type="line"/>
      <point x="89" y="1264" type="line"/>
      <point x="52" y="1014" type="line"/>
      <point x="320" y="988" type="line"/>
      <point x="144" y="701" type="line"/>
      <point x="369" y="582" type="line"/>
      <point x="476" y="881" type="line"/>
      <point x="598" y="580" type="line"/>
      <point x="814" y="701" type="line"/>
      <point x="637" y="988" type="line"/>
      <point x="905" y="1011" type="line"/>
      <point x="875" y="1264" type="line"/>
      <point x="571" y="1163" type="line"/>
      <point x="604" y="1520" type="line"/>
    </contour>
  </outline>
</glyph>
<glyph name="plus" format="2">
  <advance width="1629"/>
  <unicode hex="002B"/>
  <outline>
    <contour>
      <point x="938" y="1193" type="line"/>
      <point x="691" y="1193" type="line"/>
      <point x="691" y="816" type="line"/>
      <point x="108" y="816" type="line"/>
      <point x="108" y="594" type="line"/>
      <point x="691" y="594" type="line"/>
      <point x="691" y="222" type="line"/>
      <point x="938" y="222" type="line"/>
      <point x="938" y="594" type="line"/>
      <point x="1519" y="594" type="line"/>
      <point x="1519" y="816" type="line"/>
      <point x="938" y="816" type="line"/>
    </contour>
  </outline>
</glyph>
<glyph name="comma" format="2">
  <advance width="506"/>
  <unicode hex="002C"/>
  <outline>
    <contour>
      <point x="389" y="272" type="line"/>
      <point x="118" y="272" type="line"/>
      <point x="106" y="119"/>
      <point x="79" y="-99"/>
      <point x="52" y="-271" type="curve"/>
      <point x="279" y="-271" type="line"/>
      <point x="325" y="-124"/>
      <point x="374" y="107"/>
      <point x="399" y="250" type="curve"/>
    </contour>
  </outline>
</glyph>
<glyph name="zero" format="2">
  <advance width="1351"/>
  <unicode hex="0030"/>
  <outline>
    <contour>
      <point x="1267" y="714" type="curve" smooth="yes"/>
      <point x="1267" y="1178"/>
      <point x="1078" y="1449"/>
      <point x="675" y="1449" type="curve" smooth="yes"/>
      <point x="243" y="1449"/>
      <point x="84" y="1176"/>
      <point x="84" y="714" type="curve" smooth="yes"/>
      <point x="84" y="254"/>
      <point x="269" y="-20"/>
      <point x="675" y="-20" type="curve" smooth="yes"/>
      <point x="1107" y="-20"/>
      <point x="1267" y="254"/>
    </contour>
    <contour>
      <point x="405" y="714" type="curve" smooth="yes"/>
      <point x="405" y="1032"/>
      <point x="472" y="1194"/>
      <point x="675" y="1194" type="curve" smooth="yes"/>
      <point x="874" y="1194"/>
      <point x="945" y="1032"/>
      <point x="945" y="714" type="curve" smooth="yes"/>
      <point x="945" y="394"/>
      <point x="874" y="236"/>
      <point x="675" y="236" type="curve" smooth="yes"/>
      <point x="472" y="236"/>
      <point x="405" y="396"/>
    </contour>
  </outline>
</glyph>
<glyph name="one" format="2">
  <advance width="1351"/>
  <unicode hex="0031"/>
  <outline>
    <contour>
      <point x="1019" y="1428" type="line"/>
      <point x="745" y="1428" type="line"/>
      <point x="137" y="1062" type="line"/>
      <point x="305" y="858" type="line"/>
      <point x="535" y="989" type="line"/>
      <point x="607" y="1020"/>
      <point x="651" y="1046"/>
      <point x="712" y="1087" type="curve"/>
      <point x="703" y="994"/>
      <point x="701" y="867"/>
      <point x="701" y="804" type="curve" smooth="yes"/>
      <point x="701" y="0" type="line"/>
      <point x="1019" y="0" type="line"/>
    </contour>
  </outline>
</glyph>
<glyph name="two" format="2">
  <advance width="1351"/>
  <unicode hex="0032"/>
  <outline>
    <contour>
      <point x="1260" y="266" type="line"/>
      <point x="467" y="266" type="line"/>
      <point x="467" y="275" type="line"/>
      <point x="734" y="436" type="line"/>
      <point x="1031" y="671"/>
      <point x="1204" y="822"/>
      <point x="1204" y="1062" type="curve" smooth="yes"/>
      <point x="1204" y="1290"/>
      <point x="990" y="1448"/>
      <point x="652" y="1448" type="curve" smooth="yes"/>
      <point x="377" y="1448"/>
      <point x="204" y="1348"/>
      <point x="59" y="1240" type="curve"/>
      <point x="234" y="1036" type="line"/>
      <point x="372" y="1131"/>
      <point x="484" y="1182"/>
      <point x="630" y="1182" type="curve" smooth="yes"/>
      <point x="775" y="1182"/>
      <point x="881" y="1130"/>
      <point x="881" y="1022" type="curve" smooth="yes"/>
      <point x="881" y="888"/>
      <point x="766" y="802"/>
      <point x="501" y="579" type="curve" smooth="yes"/>
      <point x="56" y="218" type="line"/>
      <point x="56" y="0" type="line"/>
      <point x="1260" y="0" type="line"/>
    </contour>
  </outline>
</glyph>
<glyph name="three" format="2">
  <advance width="1351"/>
  <unicode hex="0033"/>
  <outline>
    <contour>
      <point x="1202" y="1110" type="curve" smooth="yes"/>
      <point x="1202" y="1316"/>
      <point x="1010" y="1448"/>
      <point x="654" y="1448" type="curve" smooth="yes"/>
      <point x="394" y="1448"/>
      <point x="219" y="1383"/>
      <point x="88" y="1303" type="curve"/>
      <point x="231" y="1091" type="line"/>
      <point x="325" y="1132"/>
      <point x="451" y="1192"/>
      <point x="624" y="1192" type="curve" smooth="yes"/>
      <point x="782" y="1192"/>
      <point x="883" y="1142"/>
      <point x="883" y="1045" type="curve" smooth="yes"/>
      <point x="883" y="932"/>
      <point x="760" y="855"/>
      <point x="487" y="855" type="curve" smooth="yes"/>
      <point x="346" y="855" type="line"/>
      <point x="346" y="612" type="line"/>
      <point x="485" y="612" type="line" smooth="yes"/>
      <point x="784" y="612"/>
      <point x="915" y="548"/>
      <point x="915" y="425" type="curve" smooth="yes"/>
      <point x="915" y="306"/>
      <point x="814" y="232"/>
      <point x="542" y="232" type="curve" smooth="yes"/>
      <point x="398" y="232"/>
      <point x="228" y="264"/>
      <point x="81" y="326" type="curve"/>
      <point x="81" y="58" type="line"/>
      <point x="225" y="7"/>
      <point x="372" y="-20"/>
      <point x="570" y="-20" type="curve" smooth="yes"/>
      <point x="1043" y="-20"/>
      <point x="1253" y="168"/>
      <point x="1253" y="408" type="curve" smooth="yes"/>
      <point x="1253" y="605"/>
      <point x="1110" y="718"/>
      <point x="836" y="746" type="curve"/>
      <point x="836" y="752" type="line"/>
      <point x="1047" y="795"/>
      <point x="1202" y="910"/>
    </contour>
  </outline>
</glyph>
<glyph name="four" format="2">
  <advance width="1351"/>
  <unicode hex="0034"/>
  <outline>
    <contour>
      <point x="1315" y="537" type="line"/>
      <point x="1098" y="537" type="line"/>
      <point x="1098" y="1431" type="line"/>
      <point x="788" y="1431" type="line"/>
      <point x="40" y="532" type="line"/>
      <point x="40" y="292" type="line"/>
      <point x="783" y="292" type="line"/>
      <point x="783" y="0" type="line"/>
      <point x="1098" y="0" type="line"/>
      <point x="1098" y="292" type="line"/>
      <point x="1315" y="292" type="line"/>
    </contour>
    <contour>
      <point x="783" y="537" type="line"/>
      <point x="332" y="537" type="line"/>
      <point x="687" y="898" type="line"/>
      <point x="723" y="946"/>
      <point x="755" y="988"/>
      <point x="783" y="1043" type="curve"/>
      <point x="794" y="1043" type="line"/>
      <point x="790" y="1011"/>
      <point x="783" y="884"/>
      <point x="783" y="798" type="curve" smooth="yes"/>
    </contour>
  </outline>
</glyph>
<glyph name="five" format="2">
  <advance width="1351"/>
  <unicode hex="0035"/>
  <outline>
    <contour>
      <point x="690" y="916" type="curve" smooth="yes"/>
      <point x="577" y="916"/>
      <point x="506" y="905"/>
      <point x="452" y="897" type="curve"/>
      <point x="485" y="1160" type="line"/>
      <point x="1123" y="1160" type="line"/>
      <point x="1123" y="1428" type="line"/>
      <point x="211" y="1428" type="line"/>
      <point x="146" y="701" type="line"/>
      <point x="280" y="636" type="line"/>
      <point x="347" y="651"/>
      <point x="459" y="668"/>
      <point x="548" y="668" type="curve" smooth="yes"/>
      <point x="800" y="668"/>
      <point x="915" y="590"/>
      <point x="915" y="456" type="curve" smooth="yes"/>
      <point x="915" y="307"/>
      <point x="777" y="233"/>
      <point x="560" y="233" type="curve" smooth="yes"/>
      <point x="413" y="233"/>
      <point x="228" y="274"/>
      <point x="110" y="324" type="curve"/>
      <point x="110" y="58" type="line"/>
      <point x="225" y="6"/>
      <point x="388" y="-20"/>
      <point x="575" y="-20" type="curve" smooth="yes"/>
      <point x="1008" y="-20"/>
      <point x="1241" y="158"/>
      <point x="1241" y="470" type="curve" smooth="yes"/>
      <point x="1241" y="754"/>
      <point x="1012" y="916"/>
    </contour>
  </outline>
</glyph>
<glyph name="seven" format="2">
  <advance width="1351"/>
  <unicode hex="0037"/>
  <outline>
    <contour>
      <point x="623" y="0" type="line"/>
      <point x="1272" y="1231" type="line"/>
      <point x="1272" y="1428" type="line"/>
      <point x="91" y="1428" type="line"/>
      <point x="91" y="1162" type="line"/>
      <point x="929" y="1162" type="line"/>
      <point x="281" y="0" type="line"/>
    </contour>
  </outline>
</glyph>
<glyph name="eight" format="2">
  <advance width="1351"/>
  <unicode hex="0038"/>
  <outline>
    <contour>
      <point x="678" y="1448" type="curve" smooth="yes"/>
      <point x="363" y="1448"/>
      <point x="133" y="1330"/>
      <point x="133" y="1104" type="curve" smooth="yes"/>
      <point x="133" y="935"/>
      <point x="260" y="826"/>
      <point x="420" y="746" type="curve"/>
      <point x="232" y="672"/>
      <point x="79" y="569"/>
      <point x="79" y="372" type="curve" smooth="yes"/>
      <point x="79" y="136"/>
      <point x="280" y="-20"/>
      <point x="680" y="-20" type="curve" smooth="yes"/>
      <point x="1064" y="-20"/>
      <point x="1275" y="144"/>
      <point x="1275" y="377" type="curve" smooth="yes"/>
      <point x="1275" y="567"/>
      <point x="1098" y="674"/>
      <point x="906" y="754" type="curve"/>
      <point x="1083" y="826"/>
      <point x="1222" y="930"/>
      <point x="1222" y="1102" type="curve" smooth="yes"/>
      <point x="1222" y="1332"/>
      <point x="998" y="1448"/>
    </contour>
    <contour>
      <point x="382" y="382" type="curve" smooth="yes"/>
      <point x="382" y="488"/>
      <point x="486" y="557"/>
      <point x="654" y="613" type="curve"/>
      <point x="689" y="598" type="line"/>
      <point x="841" y="555"/>
      <point x="973" y="484"/>
      <point x="973" y="379" type="curve" smooth="yes"/>
      <point x="973" y="278"/>
      <point x="871" y="212"/>
      <point x="675" y="212" type="curve" smooth="yes"/>
      <point x="480" y="212"/>
      <point x="382" y="283"/>
    </contour>
    <contour>
      <point x="676" y="1216" type="curve" smooth="yes"/>
      <point x="815" y="1216"/>
      <point x="914" y="1164"/>
      <point x="914" y="1078" type="curve" smooth="yes"/>
      <point x="914" y="979"/>
      <point x="805" y="928"/>
      <point x="681" y="887" type="curve"/>
      <point x="546" y="932"/>
      <point x="440" y="987"/>
      <point x="440" y="1078" type="curve" smooth="yes"/>
      <point x="440" y="1164"/>
      <point x="540" y="1216"/>
    </contour>
  </outline>
</glyph>
<glyph name="colon" format="2">
  <advance width="506"/>
  <unicode hex="003A"/>
  <outline>
    <contour>
      <point x="89" y="144" type="curve" smooth="yes"/>
      <point x="89" y="24"/>
      <point x="165" y="-25"/>
      <point x="257" y="-25" type="curve" smooth="yes"/>
      <point x="342" y="-25"/>
      <point x="415" y="24"/>
      <point x="415" y="144" type="curve" smooth="yes"/>
      <point x="415" y="269"/>
      <point x="342" y="314"/>
      <point x="257" y="314" type="curve" smooth="yes"/>
      <point x="165" y="314"/>
      <point x="89" y="269"/>
    </contour>
    <contour>
      <point x="89" y="944" type="curve" smooth="yes"/>
      <point x="89" y="823"/>
      <point x="165" y="774"/>
      <point x="257" y="774" type="curve" smooth="yes"/>
      <point x="342" y="774"/>
      <point x="415" y="823"/>
      <point x="415" y="944" type="curve" smooth="yes"/>
      <point x="415" y="1068"/>
      <point x="342" y="1114"/>
      <point x="257" y="1114" type="curve" smooth="yes"/>
      <point x="165" y="1114"/>
      <point x="89" y="1068"/>
    </contour>
  </outline>
</glyph>
<glyph name="semicolon" format="2">
  <advance width="506"/>
  <unicode hex="003B"/>
  <outline>
    <contour>
      <point x="397" y="272" type="line"/>
      <point x="126" y="272" type="line"/>
      <point x="114" y="119"/>
      <point x="87" y="-100"/>
      <point x="60" y="-271" type="curve"/>
      <point x="286" y="-271" type="line"/>
      <point x="333" y="-125"/>
      <point x="382" y="108"/>
      <point x="407" y="250" type="curve"/>
    </contour>
    <contour>
      <point x="73" y="944" type="curve" smooth="yes"/>
      <point x="73" y="823"/>
      <point x="147" y="774"/>
      <point x="238" y="774" type="curve" smooth="yes"/>
      <point x="324" y="774"/>
      <point x="399" y="823"/>
      <point x="399" y="944" type="curve" smooth="yes"/>
      <point x="399" y="1068"/>
      <point x="324" y="1114"/>
      <point x="238" y="1114" type="curve" smooth="yes"/>
      <point x="147" y="1114"/>
      <point x="73" y="1068"/>
    </contour>
  </outline>
</glyph>
<glyph name="greater" format="2">
  <advance width="1629"/>
  <unicode hex="003E"/>
  <outline>
    <contour>
      <point x="108" y="194" type="line"/>
      <point x="1517" y="624" type="line"/>
      <point x="1517" y="769" type="line"/>
      <point x="108" y="1255" type="line"/>
      <point x="108" y="1010" type="line"/>
      <point x="1184" y="706" type="line"/>
      <point x="108" y="438" type="line"/>
    </contour>
  </outline>
</glyph>
<glyph name="question" format="2">
  <advance width="1018"/>
  <unicode hex="003F"/>
  <outline>
    <contour>
      <point x="299" y="470" type="line"/>
      <point x="551" y="470" type="line"/>
      <point x="551" y="515" type="line" smooth="yes"/>
      <point x="551" y="594"/>
      <point x="585" y="633"/>
      <point x="722" y="722" type="curve"/>
      <point x="891" y="832"/>
      <point x="975" y="932"/>
      <point x="975" y="1094" type="curve" smooth="yes"/>
      <point x="975" y="1309"/>
      <point x="803" y="1448"/>
      <point x="500" y="1448" type="curve" smooth="yes"/>
      <point x="303" y="1448"/>
      <point x="141" y="1398"/>
      <point x="0" y="1324" type="curve"/>
      <point x="113" y="1100" type="line"/>
      <point x="238" y="1160"/>
      <point x="355" y="1197"/>
      <point x="477" y="1197" type="curve" smooth="yes"/>
      <point x="599" y="1197"/>
      <point x="673" y="1150"/>
      <point x="673" y="1072" type="curve" smooth="yes"/>
      <point x="673" y="996"/>
      <point x="643" y="950"/>
      <point x="488" y="851" type="curve"/>
      <point x="341" y="756"/>
      <point x="299" y="674"/>
      <point x="299" y="544" type="curve" smooth="yes"/>
    </contour>
    <contour>
      <point x="251" y="144" type="curve" smooth="yes"/>
      <point x="251" y="24"/>
      <point x="333" y="-25"/>
      <point x="437" y="-25" type="curve" smooth="yes"/>
      <point x="537" y="-25"/>
      <point x="620" y="24"/>
      <point x="620" y="144" type="curve" smooth="yes"/>
      <point x="620" y="269"/>
      <point x="537" y="314"/>
      <point x="437" y="314" type="curve" smooth="yes"/>
      <point x="333" y="314"/>
      <point x="251" y="269"/>
    </contour>
  </outline>
</glyph>
<glyph name="at" format="2">
  <advance width="1758"/>
  <unicode hex="0040"/>
  <outline>
    <contour>
      <point x="1662" y="730" type="curve" smooth="yes"/>
      <point x="1662" y="1170"/>
      <point x="1367" y="1440"/>
      <point x="931" y="1440" type="curve" smooth="yes"/>
      <point x="420" y="1440"/>
      <point x="96" y="1070"/>
      <point x="96" y="584" type="curve" smooth="yes"/>
      <point x="96" y="122"/>
      <point x="382" y="-159"/>
      <point x="868" y="-159" type="curve" smooth="yes"/>
      <point x="1039" y="-159"/>
      <point x="1198" y="-125"/>
      <point x="1326" y="-70" type="curve"/>
      <point x="1326" y="124" type="line"/>
      <point x="1183" y="71"/>
      <point x="1004" y="33"/>
      <point x="858" y="33" type="curve" smooth="yes"/>
      <point x="505" y="33"/>
      <point x="325" y="242"/>
      <point x="325" y="584" type="curve" smooth="yes"/>
      <point x="325" y="972"/>
      <point x="536" y="1251"/>
      <point x="934" y="1251" type="curve" smooth="yes"/>
      <point x="1259" y="1251"/>
      <point x="1441" y="1054"/>
      <point x="1441" y="732" type="curve" smooth="yes"/>
      <point x="1441" y="556"/>
      <point x="1394" y="408"/>
      <point x="1311" y="408" type="curve" smooth="yes"/>
      <point x="1275" y="408"/>
      <point x="1246" y="433"/>
      <point x="1246" y="521" type="curve" smooth="yes"/>
      <point x="1246" y="548"/>
      <point x="1248" y="581"/>
      <point x="1248" y="606" type="curve"/>
      <point x="1268" y="1016" type="line"/>
      <point x="1191" y="1044"/>
      <point x="1064" y="1072"/>
      <point x="941" y="1072" type="curve" smooth="yes"/>
      <point x="641" y="1072"/>
      <point x="475" y="876"/>
      <point x="475" y="613" type="curve" smooth="yes"/>
      <point x="475" y="380"/>
      <point x="592" y="225"/>
      <point x="821" y="225" type="curve" smooth="yes"/>
      <point x="935" y="225"/>
      <point x="1018" y="284"/>
      <point x="1074" y="360" type="curve"/>
      <point x="1087" y="360" type="line"/>
      <point x="1126" y="279"/>
      <point x="1211" y="225"/>
      <point x="1310" y="225" type="curve" smooth="yes"/>
      <point x="1541" y="225"/>
      <point x="1662" y="482"/>
    </contour>
    <contour>
      <point x="712" y="613" type="curve" smooth="yes"/>
      <point x="712" y="757"/>
      <point x="780" y="888"/>
      <point x="944" y="888" type="curve" smooth="yes"/>
      <point x="975" y="888"/>
      <point x="1001" y="883"/>
      <point x="1028" y="877" type="curve"/>
      <point x="1018" y="692" type="line" smooth="yes"/>
      <point x="1008" y="502"/>
      <point x="965" y="408"/>
      <point x="852" y="408" type="curve" smooth="yes"/>
      <point x="767" y="408"/>
      <point x="712" y="469"/>
    </contour>
  </outline>
</glyph>
<glyph name="B" format="2">
  <advance width="1290"/>
  <unicode hex="0042"/>
  <anchor x="652" y="0" name="bottom"/>
  <anchor x="653" y="1428" name="top"/>
  <anchor x="1231" y="1428" name="topright"/>
  <outline>
    <contour>
      <point x="184" y="1428" type="line"/>
      <point x="184" y="0" type="line"/>
      <point x="686" y="0" type="line" smooth="yes"/>
      <point x="990" y="0"/>
      <point x="1178" y="153"/>
      <point x="1178" y="413" type="curve" smooth="yes"/>
      <point x="1178" y="638"/>
      <point x="1053" y="718"/>
      <point x="934" y="748" type="curve"/>
      <point x="934" y="758" type="line"/>
      <point x="1045" y="787"/>
      <point x="1150" y="895"/>
      <point x="1150" y="1073" type="curve" smooth="yes"/>
      <point x="1150" y="1318"/>
      <point x="996" y="1428"/>
      <point x="627" y="1428" type="curve" smooth="yes"/>
    </contour>
    <contour>
      <point x="502" y="852" type="line"/>
      <point x="502" y="1203" type="line"/>
      <point x="625" y="1203" type="line" smooth="yes"/>
      <point x="760" y="1203"/>
      <point x="822" y="1150"/>
      <point x="822" y="1035" type="curve" smooth="yes"/>
      <point x="822" y="921"/>
      <point x="775" y="852"/>
      <point x="636" y="852" type="curve" smooth="yes"/>
    </contour>
    <contour>
      <point x="647" y="633" type="line" smooth="yes"/>
      <point x="801" y="633"/>
      <point x="849" y="548"/>
      <point x="849" y="436" type="curve" smooth="yes"/>
      <point x="849" y="313"/>
      <point x="799" y="228"/>
      <point x="655" y="228" type="curve" smooth="yes"/>
      <point x="502" y="228" type="line"/>
      <point x="502" y="633" type="line"/>
    </contour>
  </outline>
</glyph>
<glyph name="C" format="2">
  <advance width="1459"/>
  <unicode hex="0043"/>
  <anchor x="852" y="0" name="bottom"/>
  <anchor x="845" y="1428" name="top"/>
  <anchor x="1411" y="1428" name="topright"/>
  <outline>
    <contour>
      <point x="906" y="1208" type="curve" smooth="yes"/>
      <point x="1048" y="1208"/>
      <point x="1169" y="1170"/>
      <point x="1278" y="1125" type="curve"/>
      <point x="1385" y="1356" type="line"/>
      <point x="1242" y="1418"/>
      <point x="1072" y="1448"/>
      <point x="909" y="1448" type="curve" smooth="yes"/>
      <point x="402" y="1448"/>
      <point x="122" y="1145"/>
      <point x="122" y="713" type="curve" smooth="yes"/>
      <point x="122" y="272"/>
      <point x="362" y="-20"/>
      <point x="878" y="-20" type="curve" smooth="yes"/>
      <point x="1053" y="-20"/>
      <point x="1186" y="2"/>
      <point x="1318" y="50" type="curve"/>
      <point x="1318" y="294" type="line"/>
      <point x="1188" y="253"/>
      <point x="1059" y="220"/>
      <point x="917" y="220" type="curve" smooth="yes"/>
      <point x="606" y="220"/>
      <point x="453" y="401"/>
      <point x="453" y="711" type="curve" smooth="yes"/>
      <point x="453" y="1022"/>
      <point x="624" y="1208"/>
    </contour>
  </outline>
</glyph>
<glyph name="D" format="2">
  <advance width="1624"/>
  <unicode hex="0044"/>
  <anchor x="774" y="0" name="bottom"/>
  <anchor x="809" y="714" name="center"/>
  <anchor x="805" y="1428" name="top"/>
  <anchor x="1583" y="1428" name="topright"/>
  <outline>
    <contour>
      <point x="1502" y="737" type="curve" smooth="yes"/>
      <point x="1502" y="1186"/>
      <point x="1205" y="1428"/>
      <point x="707" y="1428" type="curve" smooth="yes"/>
      <point x="184" y="1428" type="line"/>
      <point x="184" y="0" type="line"/>
      <point x="666" y="0" type="line" smooth="yes"/>
      <point x="1183" y="0"/>
      <point x="1502" y="246"/>
    </contour>
    <contour>
      <point x="1171" y="727" type="curve" smooth="yes"/>
      <point x="1171" y="400"/>
      <point x="1003" y="239"/>
      <point x="659" y="239" type="curve" smooth="yes"/>
      <point x="503" y="239" type="line"/>
      <point x="503" y="1192" type="line"/>
      <point x="695" y="1192" type="line" smooth="yes"/>
      <point x="1004" y="1192"/>
      <point x="1171" y="1044"/>
    </contour>
  </outline>
</glyph>
<glyph name="E" format="2">
  <advance width="1230"/>
  <unicode hex="0045"/>
  <anchor x="661" y="0" name="bottom"/>
  <anchor x="660" y="1428" name="top"/>
  <anchor x="1193" y="1428" name="topright"/>
  <outline>
    <contour>
      <point x="1115" y="239" type="line"/>
      <point x="503" y="239" type="line"/>
      <point x="503" y="625" type="line"/>
      <point x="1076" y="625" type="line"/>
      <point x="1076" y="861" type="line"/>
      <point x="503" y="861" type="line"/>
      <point x="503" y="1192" type="line"/>
      <point x="1115" y="1192" type="line"/>
      <point x="1115" y="1428" type="line"/>
      <point x="184" y="1428" type="line"/>
      <point x="184" y="0" type="line"/>
      <point x="1115" y="0" type="line"/>
    </contour>
  </outline>
</glyph>
<glyph name="G" format="2">
  <advance width="1527"/>
  <unicode hex="0047"/>
  <anchor x="800" y="0" name="bottom"/>
  <anchor x="829" y="1428" name="top"/>
  <anchor x="1466" y="1428" name="topright"/>
  <outline>
    <contour>
      <point x="782" y="565" type="line"/>
      <point x="1061" y="565" type="line"/>
      <point x="1061" y="245" type="line"/>
      <point x="1014" y="232"/>
      <point x="932" y="221"/>
      <point x="857" y="221" type="curve" smooth="yes"/>
      <point x="584" y="221"/>
      <point x="452" y="409"/>
      <point x="452" y="711" type="curve" smooth="yes"/>
      <point x="452" y="1003"/>
      <point x="588" y="1208"/>
      <point x="879" y="1208" type="curve" smooth="yes"/>
      <point x="1010" y="1208"/>
      <point x="1129" y="1177"/>
      <point x="1233" y="1130" type="curve"/>
      <point x="1337" y="1361" type="line"/>
      <point x="1216" y="1413"/>
      <point x="1055" y="1448"/>
      <point x="881" y="1448" type="curve" smooth="yes"/>
      <point x="392" y="1448"/>
      <point x="122" y="1164"/>
      <point x="122" y="717" type="curve" smooth="yes"/>
      <point x="122" y="240"/>
      <point x="392" y="-20"/>
      <point x="821" y="-20" type="curve" smooth="yes"/>
      <point x="1029" y="-20"/>
      <point x="1212" y="11"/>
      <point x="1364" y="61" type="curve"/>
      <point x="1364" y="797" type="line"/>
      <point x="782" y="797" type="line"/>
    </contour>
  </outline>
</glyph>
<glyph name="J" format="2">
  <advance width="857"/>
  <unicode hex="004A"/>
  <anchor x="68" y="-375" name="bottom"/>
  <anchor x="497" y="1428" name="top"/>
  <anchor x="864" y="1428" name="topright"/>
  <outline>
    <contour>
      <point x="68" y="-415" type="curve" smooth="yes"/>
      <point x="422" y="-415"/>
      <point x="658" y="-272"/>
      <point x="658" y="84" type="curve" smooth="yes"/>
      <point x="658" y="1428" type="line"/>
      <point x="338" y="1428" type="line"/>
      <point x="338" y="59" type="line" smooth="yes"/>
      <point x="338" y="-116"/>
      <point x="208" y="-183"/>
      <point x="49" y="-183" type="curve" smooth="yes"/>
      <point x="-32" y="-183"/>
      <point x="-104" y="-173"/>
      <point x="-167" y="-163" type="curve"/>
      <point x="-167" y="-392" type="line"/>
      <point x="-110" y="-405"/>
      <point x="-34" y="-415"/>
    </contour>
  </outline>
</glyph>
<glyph name="K" format="2">
  <advance width="1454"/>
  <unicode hex="004B"/>
  <anchor x="768" y="0" name="bottom"/>
  <anchor x="784" y="1428" name="top"/>
  <anchor x="1419" y="1428" name="topright"/>
  <outline>
    <contour>
      <point x="880" y="797" type="line"/>
      <point x="1456" y="1428" type="line"/>
      <point x="1100" y="1428" type="line"/>
      <point x="711" y="993" type="line"/>
      <point x="641" y="920"/>
      <point x="568" y="844"/>
      <point x="504" y="768" type="curve"/>
      <point x="504" y="1428" type="line"/>
      <point x="184" y="1428" type="line"/>
      <point x="184" y="0" type="line"/>
      <point x="504" y="0" type="line"/>
      <point x="504" y="515" type="line"/>
      <point x="652" y="612" type="line"/>
      <point x="1099" y="0" type="line"/>
      <point x="1464" y="0" type="line"/>
    </contour>
  </outline>
</glyph>
<glyph name="L" format="2">
  <advance width="1191"/>
  <unicode hex="004C"/>
  <anchor x="643" y="0" name="bottom"/>
  <anchor x="590" y="714" name="center"/>
  <anchor x="337" y="1428" name="top"/>
  <anchor x="764" y="1428" name="topright"/>
  <outline>
    <contour>
      <point x="1103" y="0" type="line"/>
      <point x="1103" y="239" type="line"/>
      <point x="503" y="239" type="line"/>
      <point x="503" y="1428" type="line"/>
      <point x="184" y="1428" type="line"/>
      <point x="184" y="0" type="line"/>
    </contour>
  </outline>
</glyph>
<glyph name="N" format="2">
  <advance width="1574"/>
  <unicode hex="004E"/>
  <anchor x="787" y="0" name="bottom"/>
  <anchor x="787" y="1428" name="top"/>
  <anchor x="1502" y="1428" name="topright"/>
  <outline>
    <contour>
      <point x="1390" y="1428" type="line"/>
      <point x="1106" y="1428" type="line"/>
      <point x="1106" y="706" type="line" smooth="yes"/>
      <point x="1106" y="592"/>
      <point x="1113" y="424"/>
      <point x="1118" y="345" type="curve"/>
      <point x="1112" y="345" type="line"/>
      <point x="596" y="1428" type="line"/>
      <point x="184" y="1428" type="line"/>
      <point x="184" y="0" type="line"/>
      <point x="467" y="0" type="line"/>
      <point x="467" y="719" type="line" smooth="yes"/>
      <point x="467" y="844"/>
      <point x="458" y="1000"/>
      <point x="451" y="1093" type="curve"/>
      <point x="459" y="1093" type="line"/>
      <point x="978" y="0" type="line"/>
      <point x="1390" y="0" type="line"/>
    </contour>
  </outline>
</glyph>
<glyph name="Q" format="2">
  <advance width="1687"/>
  <unicode hex="0051"/>
  <anchor x="867" y="-340" name="bottom"/>
  <anchor x="867" y="1428" name="top"/>
  <anchor x="1688" y="1428" name="topright"/>
  <outline>
    <contour>
      <point x="1609" y="716" type="curve" smooth="yes"/>
      <point x="1609" y="1160"/>
      <point x="1373" y="1450"/>
      <point x="869" y="1450" type="curve" smooth="yes"/>
      <point x="357" y="1450"/>
      <point x="122" y="1160"/>
      <point x="122" y="718" type="curve" smooth="yes"/>
      <point x="122" y="274"/>
      <point x="357" y="-20"/>
      <point x="866" y="-20" type="curve" smooth="yes"/>
      <point x="875" y="-20"/>
      <point x="891" y="-19"/>
      <point x="900" y="-19" type="curve"/>
      <point x="1181" y="-340" type="line"/>
      <point x="1595" y="-340" type="line"/>
      <point x="1217" y="40" type="line"/>
      <point x="1484" y="147"/>
      <point x="1609" y="393"/>
    </contour>
    <contour>
      <point x="458" y="716" type="curve" smooth="yes"/>
      <point x="458" y="1024"/>
      <point x="581" y="1210"/>
      <point x="869" y="1210" type="curve" smooth="yes"/>
      <point x="1156" y="1210"/>
      <point x="1274" y="1024"/>
      <point x="1274" y="716" type="curve" smooth="yes"/>
      <point x="1274" y="409"/>
      <point x="1156" y="223"/>
      <point x="866" y="223" type="curve" smooth="yes"/>
      <point x="582" y="223"/>
      <point x="458" y="409"/>
    </contour>
  </outline>
</glyph>
<glyph name="R" format="2">
  <advance width="1413"/>
  <unicode hex="0052"/>
  <anchor x="753" y="0" name="bottom"/>
  <anchor x="718" y="1428" name="top"/>
  <anchor x="1401" y="1428" name="topright"/>
  <outline>
    <contour>
      <point x="184" y="1428" type="line"/>
      <point x="184" y="0" type="line"/>
      <point x="503" y="0" type="line"/>
      <point x="503" y="554" type="line"/>
      <point x="715" y="554" type="line"/>
      <point x="1077" y="0" type="line"/>
      <point x="1442" y="0" type="line"/>
      <point x="990" y="631" type="line"/>
      <point x="1155" y="699"/>
      <point x="1285" y="814"/>
      <point x="1285" y="1014" type="curve" smooth="yes"/>
      <point x="1285" y="1289"/>
      <point x="1083" y="1428"/>
      <point x="667" y="1428" type="curve" smooth="yes"/>
    </contour>
    <contour>
      <point x="659" y="1202" type="line" smooth="yes"/>
      <point x="867" y="1202"/>
      <point x="961" y="1138"/>
      <point x="961" y="1001" type="curve" smooth="yes"/>
      <point x="961" y="845"/>
      <point x="857" y="778"/>
      <point x="662" y="778" type="curve" smooth="yes"/>
      <point x="503" y="778" type="line"/>
      <point x="503" y="1202" type="line"/>
    </contour>
  </outline>
</glyph>
<glyph name="U" format="2">
  <advance width="1508"/>
  <unicode hex="0055"/>
  <anchor x="751" y="0" name="bottom"/>
  <anchor x="755" y="1428" name="top"/>
  <anchor x="1446" y="1428" name="topright"/>
  <outline>
    <contour>
      <point x="1333" y="1428" type="line"/>
      <point x="1015" y="1428" type="line"/>
      <point x="1015" y="550" type="line" smooth="yes"/>
      <point x="1015" y="340"/>
      <point x="938" y="223"/>
      <point x="756" y="223" type="curve" smooth="yes"/>
      <point x="583" y="223"/>
      <point x="495" y="332"/>
      <point x="495" y="548" type="curve" smooth="yes"/>
      <point x="495" y="1428" type="line"/>
      <point x="175" y="1428" type="line"/>
      <point x="175" y="535" type="line" smooth="yes"/>
      <point x="175" y="190"/>
      <point x="375" y="-20"/>
      <point x="749" y="-20" type="curve" smooth="yes"/>
      <point x="1141" y="-20"/>
      <point x="1333" y="208"/>
      <point x="1333" y="538" type="curve" smooth="yes"/>
    </contour>
  </outline>
</glyph>
<glyph name="V" format="2">
  <advance width="1431"/>
  <unicode hex="0056"/>
  <anchor x="711" y="0" name="bottom"/>
  <anchor x="720" y="1428" name="top"/>
  <anchor x="1387" y="1428" name="topright"/>
  <outline>
    <contour>
      <point x="1081" y="1428" type="line"/>
      <point x="800" y="612" type="line" smooth="yes"/>
      <point x="765" y="512"/>
      <point x="730" y="374"/>
      <point x="716" y="288" type="curve"/>
      <point x="702" y="374"/>
      <point x="665" y="513"/>
      <point x="631" y="612" type="curve" smooth="yes"/>
      <point x="352" y="1428" type="line"/>
      <point x="0" y="1428" type="line"/>
      <point x="536" y="0" type="line"/>
      <point x="895" y="0" type="line"/>
      <point x="1431" y="1428" type="line"/>
    </contour>
  </outline>
</glyph>
<glyph name="W" format="2">
  <advance width="1851"/>
  <unicode hex="0057"/>
  <anchor x="926" y="0" name="bottom"/>
  <anchor x="927" y="1428" name="top"/>
  <anchor x="1806" y="1428" name="topright"/>
  <outline>
    <contour>
      <point x="1507" y="1428" type="line"/>
      <point x="1357" y="637" type="line"/>
      <point x="1340" y="539"/>
      <point x="1305" y="376"/>
      <point x="1294" y="278" type="curve"/>
      <point x="1279" y="403"/>
      <point x="1227" y="613"/>
      <point x="1203" y="731" type="curve"/>
      <point x="1075" y="1428" type="line"/>
      <point x="777" y="1428" type="line"/>
      <point x="648" y="734" type="line"/>
      <point x="624" y="617"/>
      <point x="575" y="412"/>
      <point x="557" y="278" type="curve"/>
      <point x="546" y="375"/>
      <point x="510" y="541"/>
      <point x="493" y="637" type="curve"/>
      <point x="345" y="1428" type="line"/>
      <point x="36" y="1428" type="line"/>
      <point x="356" y="0" type="line"/>
      <point x="728" y="0" type="line"/>
      <point x="869" y="771" type="line"/>
      <point x="882" y="853"/>
      <point x="919" y="1023"/>
      <point x="927" y="1091" type="curve"/>
      <point x="936" y="1023"/>
      <point x="972" y="852"/>
      <point x="984" y="774" type="curve"/>
      <point x="1124" y="0" type="line"/>
      <point x="1496" y="0" type="line"/>
      <point x="1815" y="1428" type="line"/>
    </contour>
  </outline>
</glyph>
<glyph name="bracketleft" format="2">
  <advance width="759"/>
  <unicode hex="005B"/>
  <outline>
    <contour>
      <point x="704" y="-116" type="line"/>
      <point x="417" y="-116" type="line"/>
      <point x="417" y="1242" type="line"/>
      <point x="704" y="1242" type="line"/>
      <point x="704" y="1455" type="line"/>
      <point x="136" y="1455" type="line"/>
      <point x="136" y="-329" type="line"/>
      <point x="704" y="-329" type="line"/>
    </contour>
  </outline>
</glyph>
<glyph name="backslash" format="2">
  <advance width="1158"/>
  <unicode hex="005C"/>
  <outline>
    <contour>
      <point x="27" y="1442" type="line"/>
      <point x="825" y="-13" type="line"/>
      <point x="1130" y="-13" type="line"/>
      <point x="330" y="1442" type="line"/>
    </contour>
  </outline>
</glyph>
<glyph name="bracketright" format="2">
  <advance width="759"/>
  <unicode hex="005D"/>
  <outline>
    <contour>
      <point x="55" y="-329" type="line"/>
      <point x="623" y="-329" type="line"/>
      <point x="623" y="1455" type="line"/>
      <point x="55" y="1455" type="line"/>
      <point x="55" y="1242" type="line"/>
      <point x="343" y="1242" type="line"/>
      <point x="343" y="-116" type="line"/>
      <point x="55" y="-116" type="line"/>
    </contour>
  </outline>
</glyph>
<glyph name="asciicircum" format="2">
  <advance width="1351"/>
  <unicode hex="005E"/>
  <outline>
    <contour>
      <point x="242" y="505" type="line"/>
      <point x="653" y="1120" type="line"/>
      <point x="1119" y="505" type="line"/>
      <point x="1383" y="505" type="line"/>
      <point x="729" y="1436" type="line"/>
      <point x="566" y="1436" type="line"/>
      <point x="-20" y="505" type="line"/>
    </contour>
  </outline>
</glyph>
<glyph name="underscore" format="2">
  <advance width="1024"/>
  <unicode hex="005F"/>
  <outline>
    <contour>
      <point x="1029" y="-146" type="line"/>
      <point x="-5" y="-146" type="line"/>
      <point x="-5" y="-349" type="line"/>
      <point x="1029" y="-349" type="line"/>
    </contour>
  </outline>
</glyph>
<glyph name="b" format="2">
  <advance width="1357"/>
  <unicode hex="0062"/>
  <anchor x="706" y="0" name="bottom"/>
  <anchor x="714" y="1520" name="top"/>
  <anchor x="1194" y="1520" name="topright"/>
  <outline>
    <contour>
      <point x="478" y="1520" type="line"/>
      <point x="158" y="1520" type="line"/>
      <point x="158" y="0" type="line"/>
      <point x="403" y="0" type="line"/>
      <point x="457" y="118" type="line"/>
      <point x="478" y="118" type="line"/>
      <point x="540" y="48"/>
      <point x="630" y="-20" name=".hr01"/>
      <point x="804" y="-20" type="curve" smooth="yes"/>
      <point x="1072" y="-20"/>
      <point x="1254" y="175"/>
      <point x="1254" y="550" type="curve" smooth="yes"/>
      <point x="1254" y="919"/>
      <point x="1074" y="1114"/>
      <point x="811" y="1114" type="curve" smooth="yes"/>
      <point x="642" y="1114"/>
      <point x="540" y="1043"/>
      <point x="478" y="953" type="curve"/>
      <point x="465" y="953" type="line"/>
      <point x="472" y="1009"/>
      <point x="478" y="1086"/>
      <point x="478" y="1168" type="curve" smooth="yes"/>
    </contour>
    <contour>
      <point x="709" y="866" type="curve" smooth="yes"/>
      <point x="858" y="866"/>
      <point x="928" y="760"/>
      <point x="928" y="553" type="curve" smooth="yes"/>
      <point x="928" y="346"/>
      <point x="855" y="234"/>
      <point x="713" y="234" type="curve" smooth="yes"/>
      <point x="535" y="234"/>
      <point x="478" y="337"/>
      <point x="478" y="540" type="curve" smooth="yes"/>
      <point x="478" y="578" type="line" smooth="yes"/>
      <point x="478" y="775"/>
      <point x="542" y="866"/>
    </contour>
  </outline>
</glyph>
<glyph name="c" format="2">
  <advance width="1090"/>
  <unicode hex="0063"/>
  <anchor x="638" y="0" name="bottom"/>
  <anchor x="612" y="1095" name="top"/>
  <anchor x="1041" y="1095" name="topright"/>
  <outline>
    <contour>
      <point x="657" y="-20" type="curve" smooth="yes"/>
      <point x="805" y="-20"/>
      <point x="910" y="12"/>
      <point x="998" y="65" type="curve"/>
      <point x="998" y="320" type="line"/>
      <point x="905" y="267"/>
      <point x="795" y="234"/>
      <point x="677" y="234" type="curve" smooth="yes"/>
      <point x="521" y="234"/>
      <point x="427" y="330"/>
      <point x="427" y="544" type="curve" smooth="yes"/>
      <point x="427" y="758"/>
      <point x="519" y="864"/>
      <point x="680" y="864" type="curve" smooth="yes"/>
      <point x="764" y="864"/>
      <point x="850" y="838"/>
      <point x="936" y="803" type="curve"/>
      <point x="1030" y="1040" type="line"/>
      <point x="937" y="1085"/>
      <point x="814" y="1115"/>
      <point x="681" y="1115" type="curve" smooth="yes"/>
      <point x="348" y="1115"/>
      <point x="100" y="942"/>
      <point x="100" y="542" type="curve" smooth="yes"/>
      <point x="100" y="153"/>
      <point x="324" y="-20"/>
    </contour>
  </outline>
</glyph>
<glyph name="d" format="2">
  <advance width="1357"/>
  <unicode hex="0064"/>
  <anchor x="655" y="0" name="bottom"/>
  <anchor x="680" y="548" name="center"/>
  <anchor x="539" y="1520" name="top"/>
  <anchor x="1253" y="1520" name="topright"/>
  <outline>
    <contour>
      <point x="544" y="-20" type="curve" smooth="yes"/>
      <point x="715" y="-20"/>
      <point x="816" y="52"/>
      <point x="879" y="142" type="curve"/>
      <point x="891" y="142" type="line"/>
      <point x="954" y="0" type="line" name=".hr01"/>
      <point x="1199" y="0" type="line"/>
      <point x="1199" y="1520" type="line"/>
      <point x="879" y="1520" type="line"/>
      <point x="879" y="1180" type="line" smooth="yes"/>
      <point x="879" y="1104"/>
      <point x="887" y="1003"/>
      <point x="895" y="954" type="curve"/>
      <point x="885" y="954" type="line"/>
      <point x="818" y="1045"/>
      <point x="722" y="1115"/>
      <point x="554" y="1115" type="curve" smooth="yes"/>
      <point x="284" y="1115"/>
      <point x="100" y="921"/>
      <point x="100" y="546" type="curve" smooth="yes"/>
      <point x="100" y="174"/>
      <point x="282" y="-20" name=".hr02"/>
    </contour>
    <contour>
      <point x="655" y="230" type="curve" smooth="yes"/>
      <point x="509" y="230"/>
      <point x="426" y="333"/>
      <point x="426" y="541" type="curve" smooth="yes"/>
      <point x="426" y="750"/>
      <point x="509" y="861"/>
      <point x="652" y="861" type="curve" smooth="yes"/>
      <point x="842" y="861"/>
      <point x="900" y="748"/>
      <point x="900" y="543" type="curve" smooth="yes"/>
      <point x="900" y="512" type="line" smooth="yes"/>
      <point x="900" y="322"/>
      <point x="833" y="230"/>
    </contour>
  </outline>
</glyph>
<glyph name="e" format="2">
  <advance width="1200"/>
  <unicode hex="0065"/>
  <anchor x="643" y="0" name="bottom"/>
  <anchor x="601" y="1095" name="top"/>
  <anchor x="1147" y="1095" name="topright"/>
  <outline>
    <contour>
      <point x="613" y="1115" type="curve" smooth="yes"/>
      <point x="307" y="1115"/>
      <point x="100" y="923"/>
      <point x="100" y="540" type="curve" smooth="yes"/>
      <point x="100" y="158"/>
      <point x="332" y="-20"/>
      <point x="649" y="-20" type="curve" smooth="yes"/>
      <point x="825" y="-20"/>
      <point x="933" y="5"/>
      <point x="1036" y="58" type="curve"/>
      <point x="1036" y="292" type="line"/>
      <point x="920" y="238"/>
      <point x="818" y="212"/>
      <point x="685" y="212" type="curve" smooth="yes"/>
      <point x="519" y="212"/>
      <point x="431" y="310"/>
      <point x="425" y="468" type="curve"/>
      <point x="1100" y="468" type="line"/>
      <point x="1100" y="616" type="line" smooth="yes"/>
      <point x="1100" y="939"/>
      <point x="914" y="1115"/>
    </contour>
    <contour>
      <point x="623" y="894" type="curve" smooth="yes"/>
      <point x="742" y="894"/>
      <point x="802" y="800"/>
      <point x="804" y="674" type="curve"/>
      <point x="432" y="674" type="line"/>
      <point x="444" y="820"/>
      <point x="516" y="894"/>
    </contour>
  </outline>
</glyph>
<glyph name="f" format="2">
  <advance width="849"/>
  <unicode hex="0066"/>
  <anchor x="388" y="0" name="bottom"/>
  <anchor x="585" y="1530" name="top"/>
  <anchor x="895" y="1530" name="topright"/>
  <outline>
    <contour>
      <point x="818" y="1095" type="line"/>
      <point x="549" y="1095" type="line"/>
      <point x="549" y="1138" type="line" smooth="yes"/>
      <point x="549" y="1248"/>
      <point x="590" y="1296"/>
      <point x="679" y="1296" type="curve" smooth="yes"/>
      <point x="738" y="1296"/>
      <point x="794" y="1284"/>
      <point x="837" y="1272" type="curve"/>
      <point x="909" y="1484" type="line"/>
      <point x="822" y="1512"/>
      <point x="735" y="1530"/>
      <point x="626" y="1530" type="curve" smooth="yes"/>
      <point x="359" y="1530"/>
      <point x="234" y="1410"/>
      <point x="234" y="1127" type="curve" smooth="yes"/>
      <point x="234" y="1094" type="line"/>
      <point x="52" y="1012" type="line"/>
      <point x="52" y="859" type="line"/>
      <point x="229" y="859" type="line"/>
      <point x="229" y="0" type="line"/>
      <point x="549" y="0" type="line"/>
      <point x="549" y="859" type="line"/>
      <point x="818" y="859" type="line"/>
    </contour>
  </outline>
</glyph>
<glyph name="g" format="2">
  <advance width="1351"/>
  <unicode hex="0067"/>
  <anchor x="631" y="-480" name="bottom"/>
  <anchor x="657" y="1095" name="top"/>
  <anchor x="1249" y="1095" name="topright"/>
  <outline>
    <contour>
      <point x="547" y="1115" type="curve" smooth="yes"/>
      <point x="276" y="1115"/>
      <point x="100" y="910"/>
      <point x="100" y="546" type="curve" smooth="yes"/>
      <point x="100" y="180"/>
      <point x="274" y="-20"/>
      <point x="544" y="-20" type="curve" smooth="yes"/>
      <point x="704" y="-20"/>
      <point x="809" y="46"/>
      <point x="873" y="141" type="curve"/>
      <point x="885" y="141" type="line"/>
      <point x="879" y="97"/>
      <point x="875" y="38"/>
      <point x="875" y="5" type="curve" smooth="yes"/>
      <point x="875" y="-22" type="line" smooth="yes"/>
      <point x="875" y="-156"/>
      <point x="778" y="-232"/>
      <point x="600" y="-232" type="curve" smooth="yes"/>
      <point x="423" y="-232"/>
      <point x="298" y="-204"/>
      <point x="168" y="-148" type="curve"/>
      <point x="168" y="-414" type="line"/>
      <point x="292" y="-462"/>
      <point x="429" y="-480"/>
      <point x="610" y="-480" type="curve" smooth="yes"/>
      <point x="1007" y="-480"/>
      <point x="1193" y="-317"/>
      <point x="1193" y="-7" type="curve" smooth="yes"/>
      <point x="1193" y="1095" type="line"/>
      <point x="922" y="1095" type="line"/>
      <point x="894" y="957" type="line"/>
      <point x="885" y="957" type="line"/>
      <point x="813" y="1052"/>
      <point x="706" y="1115"/>
    </contour>
    <contour>
      <point x="650" y="868" type="curve" smooth="yes"/>
      <point x="830" y="868"/>
      <point x="894" y="762"/>
      <point x="894" y="550" type="curve" smooth="yes"/>
      <point x="894" y="506" type="line" smooth="yes"/>
      <point x="894" y="314"/>
      <point x="828" y="226"/>
      <point x="655" y="226" type="curve" smooth="yes"/>
      <point x="503" y="226"/>
      <point x="427" y="326"/>
      <point x="427" y="542" type="curve" smooth="yes"/>
      <point x="427" y="754"/>
      <point x="504" y="868"/>
    </contour>
  </outline>
</glyph>
<glyph name="h" format="2">
  <advance width="1345"/>
  <unicode hex="0068"/>
  <anchor x="680" y="0" name="bottom"/>
  <anchor x="673" y="548" name="center"/>
  <anchor x="322" y="1520" name="top"/>
  <anchor x="1187" y="1520" name="topright"/>
  <outline>
    <contour>
      <point x="478" y="1520" type="line"/>
      <point x="158" y="1520" type="line"/>
      <point x="158" y="0" type="line"/>
      <point x="478" y="0" type="line"/>
      <point x="478" y="509" type="line" smooth="yes"/>
      <point x="478" y="738"/>
      <point x="532" y="866"/>
      <point x="704" y="866" type="curve" smooth="yes"/>
      <point x="819" y="866"/>
      <point x="872" y="786"/>
      <point x="872" y="632" type="curve" smooth="yes"/>
      <point x="872" y="0" type="line"/>
      <point x="1192" y="0" type="line"/>
      <point x="1192" y="713" type="line" smooth="yes"/>
      <point x="1192" y="995"/>
      <point x="1031" y="1114"/>
      <point x="797" y="1114" type="curve" smooth="yes"/>
      <point x="662" y="1114"/>
      <point x="552" y="1068"/>
      <point x="481" y="955" type="curve"/>
      <point x="464" y="955" type="line"/>
      <point x="471" y="1008"/>
      <point x="478" y="1101"/>
      <point x="478" y="1228" type="curve" smooth="yes"/>
    </contour>
  </outline>
</glyph>
<glyph name="l" format="2">
  <advance width="666"/>
  <unicode hex="006C"/>
  <anchor x="333" y="0" name="bottom"/>
  <anchor x="333" y="548" name="center"/>
  <anchor x="333" y="1520" name="top"/>
  <anchor x="576" y="1520" name="topright"/>
  <outline>
    <contour>
      <point x="493" y="1520" type="line"/>
      <point x="173" y="1520" type="line"/>
      <point x="173" y="0" type="line"/>
      <point x="493" y="0" type="line"/>
    </contour>
  </outline>
</glyph>
<glyph name="m" format="2">
  <advance width="1986"/>
  <unicode hex="006D"/>
  <anchor x="1001" y="0" name="bottom"/>
  <anchor x="1028" y="1095" name="top"/>
  <anchor x="1894" y="1095" name="topright"/>
  <outline>
    <contour>
      <point x="1453" y="1115" type="curve" smooth="yes"/>
      <point x="1315" y="1115"/>
      <point x="1196" y="1058"/>
      <point x="1126" y="952" type="curve"/>
      <point x="1115" y="952" type="line"/>
      <point x="1053" y="1057"/>
      <point x="948" y="1115"/>
      <point x="786" y="1115" type="curve" smooth="yes"/>
      <point x="633" y="1115"/>
      <point x="519" y="1053"/>
      <point x="459" y="956" type="curve"/>
      <point x="449" y="956" type="line"/>
      <point x="402" y="1095" type="line"/>
      <point x="158" y="1095" type="line"/>
      <point x="158" y="0" type="line"/>
      <point x="478" y="0" type="line"/>
      <point x="478" y="508" type="line" smooth="yes"/>
      <point x="478" y="738"/>
      <point x="524" y="866"/>
      <point x="680" y="866" type="curve" smooth="yes"/>
      <point x="786" y="866"/>
      <point x="835" y="794"/>
      <point x="835" y="632" type="curve" smooth="yes"/>
      <point x="835" y="0" type="line"/>
      <point x="1155" y="0" type="line"/>
      <point x="1155" y="542" type="line" smooth="yes"/>
      <point x="1155" y="750"/>
      <point x="1207" y="866"/>
      <point x="1355" y="866" type="curve" smooth="yes"/>
      <point x="1462" y="866"/>
      <point x="1514" y="800"/>
      <point x="1514" y="632" type="curve" smooth="yes"/>
      <point x="1514" y="0" type="line"/>
      <point x="1833" y="0" type="line"/>
      <point x="1833" y="713" type="line" smooth="yes"/>
      <point x="1833" y="994"/>
      <point x="1702" y="1115"/>
    </contour>
  </outline>
</glyph>
<glyph name="n" format="2">
  <advance width="1345"/>
  <unicode hex="006E"/>
  <anchor x="673" y="0" name="bottom"/>
  <anchor x="673" y="1095" name="top"/>
  <anchor x="1250" y="1095" name="topright"/>
  <outline>
    <contour>
      <point x="801" y="1115" type="curve" smooth="yes"/>
      <point x="650" y="1115"/>
      <point x="530" y="1056"/>
      <point x="460" y="949" type="curve"/>
      <point x="447" y="949" type="line"/>
      <point x="403" y="1095" type="line"/>
      <point x="158" y="1095" type="line"/>
      <point x="158" y="0" type="line"/>
      <point x="478" y="0" type="line"/>
      <point x="478" y="508" type="line" smooth="yes"/>
      <point x="478" y="738"/>
      <point x="529" y="866"/>
      <point x="704" y="866" type="curve" smooth="yes"/>
      <point x="822" y="866"/>
      <point x="874" y="786"/>
      <point x="874" y="632" type="curve" smooth="yes"/>
      <point x="874" y="0" type="line"/>
      <point x="1192" y="0" type="line"/>
      <point x="1192" y="713" type="line" smooth="yes"/>
      <point x="1192" y="994"/>
      <point x="1039" y="1115"/>
    </contour>
  </outline>
</glyph>
<glyph name="o" format="2">
  <advance width="1308"/>
  <unicode hex="006F"/>
  <anchor x="650" y="0" name="bottom"/>
  <anchor x="654" y="548" name="center"/>
  <anchor x="654" y="1095" name="top"/>
  <anchor x="1253" y="1095" name="topright"/>
  <outline>
    <contour>
      <point x="1205" y="550" type="curve" smooth="yes"/>
      <point x="1205" y="912"/>
      <point x="976" y="1115"/>
      <point x="656" y="1115" type="curve" smooth="yes"/>
      <point x="311" y="1115"/>
      <point x="100" y="912"/>
      <point x="100" y="550" type="curve" smooth="yes"/>
      <point x="100" y="185"/>
      <point x="332" y="-20"/>
      <point x="650" y="-20" type="curve" smooth="yes"/>
      <point x="993" y="-20"/>
      <point x="1205" y="185"/>
    </contour>
    <contour>
      <point x="427" y="550" type="curve" smooth="yes"/>
      <point x="427" y="760"/>
      <point x="494" y="876"/>
      <point x="652" y="876" type="curve" smooth="yes"/>
      <point x="813" y="876"/>
      <point x="879" y="760"/>
      <point x="879" y="550" type="curve" smooth="yes"/>
      <point x="879" y="339"/>
      <point x="813" y="218"/>
      <point x="654" y="218" type="curve" smooth="yes"/>
      <point x="493" y="218"/>
      <point x="427" y="339"/>
    </contour>
  </outline>
</glyph>
<glyph name="p" format="2">
  <advance width="1357"/>
  <unicode hex="0070"/>
  <anchor x="320" y="-480" name="bottom"/>
  <anchor x="711" y="1095" name="top"/>
  <anchor x="1306" y="1095" name="topright"/>
  <outline>
    <contour>
      <point x="812" y="1115" type="curve" smooth="yes"/>
      <point x="638" y="1115"/>
      <point x="541" y="1041"/>
      <point x="478" y="953" type="curve"/>
      <point x="463" y="953" type="line"/>
      <point x="419" y="1095" type="line"/>
      <point x="158" y="1095" type="line"/>
      <point x="158" y="-480" type="line"/>
      <point x="478" y="-480" type="line"/>
      <point x="478" y="-63" type="line" smooth="yes"/>
      <point x="478" y="5"/>
      <point x="471" y="69"/>
      <point x="466" y="118" type="curve"/>
      <point x="478" y="118" type="line"/>
      <point x="536" y="50"/>
      <point x="632" y="-20"/>
      <point x="804" y="-20" type="curve" smooth="yes"/>
      <point x="1068" y="-20"/>
      <point x="1254" y="176"/>
      <point x="1254" y="550" type="curve" smooth="yes"/>
      <point x="1254" y="919"/>
      <point x="1083" y="1115"/>
    </contour>
    <contour>
      <point x="707" y="866" type="curve" smooth="yes"/>
      <point x="855" y="866"/>
      <point x="928" y="764"/>
      <point x="928" y="554" type="curve" smooth="yes"/>
      <point x="928" y="343"/>
      <point x="856" y="234"/>
      <point x="709" y="234" type="curve" smooth="yes"/>
      <point x="531" y="234"/>
      <point x="478" y="346"/>
      <point x="478" y="552" type="curve" smooth="yes"/>
      <point x="478" y="583" type="line"/>
      <point x="479" y="772"/>
      <point x="540" y="866"/>
    </contour>
  </outline>
</glyph>
<glyph name="q" format="2">
  <advance width="1357"/>
  <unicode hex="0071"/>
  <anchor x="1039" y="-480" name="bottom"/>
  <anchor x="680" y="1095" name="top"/>
  <anchor x="1259" y="1095" name="topright"/>
  <outline>
    <contour>
      <point x="879" y="-480" type="line"/>
      <point x="1199" y="-480" type="line"/>
      <point x="1199" y="1095" type="line"/>
      <point x="928" y="1095" type="line"/>
      <point x="899" y="956" type="line"/>
      <point x="891" y="956" type="line"/>
      <point x="825" y="1045"/>
      <point x="724" y="1115"/>
      <point x="551" y="1115" type="curve" smooth="yes"/>
      <point x="284" y="1115"/>
      <point x="100" y="918"/>
      <point x="100" y="546" type="curve" smooth="yes"/>
      <point x="100" y="174"/>
      <point x="280" y="-20"/>
      <point x="545" y="-20" type="curve" smooth="yes"/>
      <point x="717" y="-20"/>
      <point x="819" y="52"/>
      <point x="879" y="142" type="curve"/>
      <point x="892" y="142" type="line"/>
      <point x="883" y="90"/>
      <point x="879" y="30"/>
      <point x="879" y="-22" type="curve" smooth="yes"/>
    </contour>
    <contour>
      <point x="659" y="226" type="curve" smooth="yes"/>
      <point x="501" y="226"/>
      <point x="427" y="328"/>
      <point x="427" y="541" type="curve" smooth="yes"/>
      <point x="427" y="750"/>
      <point x="501" y="869"/>
      <point x="653" y="869" type="curve" smooth="yes"/>
      <point x="842" y="869"/>
      <point x="900" y="755"/>
      <point x="900" y="550" type="curve" smooth="yes"/>
      <point x="900" y="507" type="line"/>
      <point x="899" y="318"/>
      <point x="835" y="226"/>
    </contour>
  </outline>
</glyph>
<glyph name="r" format="2">
  <advance width="931"/>
  <unicode hex="0072"/>
  <anchor x="321" y="0" name="bottom"/>
  <anchor x="516" y="1095" name="top"/>
  <anchor x="890" y="1095" name="topright"/>
  <outline>
    <contour>
      <point x="784" y="1115" type="curve" smooth="yes"/>
      <point x="647" y="1115"/>
      <point x="527" y="1024"/>
      <point x="464" y="912" type="curve"/>
      <point x="449" y="912" type="line"/>
      <point x="401" y="1095" type="line"/>
      <point x="158" y="1095" type="line"/>
      <point x="158" y="0" type="line"/>
      <point x="478" y="0" type="line"/>
      <point x="478" y="554" type="line" smooth="yes"/>
      <point x="478" y="759"/>
      <point x="625" y="822"/>
      <point x="747" y="822" type="curve" smooth="yes"/>
      <point x="807" y="822"/>
      <point x="846" y="816"/>
      <point x="875" y="809" type="curve"/>
      <point x="905" y="1103" type="line"/>
      <point x="878" y="1108"/>
      <point x="826" y="1115"/>
    </contour>
  </outline>
</glyph>
<glyph name="u" format="2">
  <advance width="1345"/>
  <unicode hex="0075"/>
  <anchor x="656" y="0" name="bottom"/>
  <anchor x="675" y="1095" name="top"/>
  <anchor x="1250" y="1095" name="topright"/>
  <outline>
    <contour>
      <point x="867" y="1095" type="line"/>
      <point x="867" y="586" type="line" smooth="yes"/>
      <point x="867" y="356"/>
      <point x="817" y="230"/>
      <point x="642" y="230" type="curve" smooth="yes"/>
      <point x="527" y="230"/>
      <point x="478" y="309"/>
      <point x="478" y="462" type="curve" smooth="yes"/>
      <point x="478" y="1095" type="line"/>
      <point x="156" y="1095" type="line"/>
      <point x="156" y="381" type="line" smooth="yes"/>
      <point x="156" y="101"/>
      <point x="314" y="-20"/>
      <point x="546" y="-20" type="curve" smooth="yes"/>
      <point x="683" y="-20"/>
      <point x="813" y="28"/>
      <point x="883" y="140" type="curve"/>
      <point x="901" y="140" type="line"/>
      <point x="942" y="0" type="line" name=".hr01"/>
      <point x="1187" y="0" type="line"/>
      <point x="1187" y="1095" type="line"/>
    </contour>
  </outline>
</glyph>
<glyph name="v" format="2">
  <advance width="1215"/>
  <unicode hex="0076"/>
  <anchor x="608" y="0" name="bottom"/>
  <anchor x="605" y="1095" name="top"/>
  <anchor x="1173" y="1095" name="topright"/>
  <outline>
    <contour>
      <point x="773" y="0" type="line"/>
      <point x="1215" y="1095" type="line"/>
      <point x="881" y="1095" type="line"/>
      <point x="658" y="447" type="line"/>
      <point x="641" y="404"/>
      <point x="615" y="330"/>
      <point x="608" y="279" type="curve"/>
      <point x="602" y="279" type="line"/>
      <point x="596" y="329"/>
      <point x="570" y="411"/>
      <point x="553" y="448" type="curve"/>
      <point x="336" y="1095" type="line"/>
      <point x="0" y="1095" type="line"/>
      <point x="444" y="0" type="line"/>
    </contour>
  </outline>
</glyph>
<glyph name="w" format="2">
  <advance width="1767"/>
  <unicode hex="0077"/>
  <anchor x="879" y="0" name="bottom"/>
  <anchor x="884" y="1095" name="top"/>
  <anchor x="1723" y="1095" name="topright"/>
  <outline>
    <contour>
      <point x="1087" y="1" type="line"/>
      <point x="1435" y="1" type="line"/>
      <point x="1739" y="1096" type="line"/>
      <point x="1428" y="1096" type="line"/>
      <point x="1312" y="622" type="line" smooth="yes"/>
      <point x="1288" y="524"/>
      <point x="1264" y="368"/>
      <point x="1255" y="274" type="curve"/>
      <point x="1248" y="274" type="line"/>
      <point x="1238" y="368"/>
      <point x="1207" y="513"/>
      <point x="1187" y="593" type="curve"/>
      <point x="1063" y="1096" type="line"/>
      <point x="710" y="1096" type="line"/>
      <point x="579" y="597" type="line"/>
      <point x="565" y="542"/>
      <point x="528" y="366"/>
      <point x="520" y="273" type="curve"/>
      <point x="512" y="273" type="line"/>
      <point x="505" y="369"/>
      <point x="479" y="522"/>
      <point x="456" y="622" type="curve" smooth="yes"/>
      <point x="347" y="1096" type="line"/>
      <point x="28" y="1096" type="line"/>
      <point x="330" y="1" type="line"/>
      <point x="673" y="1" type="line"/>
      <point x="811" y="515" type="line"/>
      <point x="842" y="628"/>
      <point x="870" y="780"/>
      <point x="878" y="840" type="curve"/>
      <point x="885" y="840" type="line"/>
      <point x="894" y="780"/>
      <point x="921" y="627"/>
      <point x="949" y="525" type="curve" smooth="yes"/>
    </contour>
  </outline>
</glyph>
<glyph name="y" format="2">
  <advance width="1194"/>
  <unicode hex="0079"/>
  <anchor x="252" y="-480" name="bottom"/>
  <anchor x="596" y="1095" name="top"/>
  <anchor x="1153" y="1095" name="topright"/>
  <outline>
    <contour>
      <point x="450" y="10" type="line"/>
      <point x="427" y="-44" type="line"/>
      <point x="385" y="-147"/>
      <point x="326" y="-229"/>
      <point x="196" y="-229" type="curve" smooth="yes"/>
      <point x="148" y="-229"/>
      <point x="102" y="-223"/>
      <point x="72" y="-217" type="curve"/>
      <point x="72" y="-464" type="line"/>
      <point x="111" y="-472"/>
      <point x="161" y="-480"/>
      <point x="231" y="-480" type="curve" smooth="yes"/>
      <point x="502" y="-480"/>
      <point x="634" y="-343"/>
      <point x="728" y="-96" type="curve"/>
      <point x="1194" y="1095" type="line"/>
      <point x="864" y="1095" type="line"/>
      <point x="654" y="468" type="line"/>
      <point x="634" y="414"/>
      <point x="613" y="348"/>
      <point x="603" y="292" type="curve"/>
      <point x="594" y="292" type="line"/>
      <point x="587" y="349"/>
      <point x="569" y="414"/>
      <point x="549" y="469" type="curve"/>
      <point x="335" y="1095" type="line"/>
      <point x="-3" y="1095" type="line"/>
    </contour>
  </outline>
</glyph>
<glyph name="z" format="2">
  <advance width="1210"/>
  <unicode hex="007A"/>
  <anchor x="619" y="0" name="bottom"/>
  <anchor x="605" y="1095" name="top"/>
  <anchor x="1144" y="1095" name="topright"/>
  <outline>
    <contour>
      <point x="1150" y="240" type="line"/>
      <point x="432" y="240" type="line"/>
      <point x="1129" y="894" type="line"/>
      <point x="1129" y="1095" type="line"/>
      <point x="99" y="1095" type="line"/>
      <point x="99" y="855" type="line"/>
      <point x="769" y="855" type="line"/>
      <point x="57" y="184" type="line"/>
      <point x="57" y="0" type="line"/>
      <point x="1150" y="0" type="line"/>
    </contour>
  </outline>
</glyph>
<glyph name="braceleft" format="2">
  <advance width="759"/>
  <unicode hex="007B"/>
  <outline>
    <contour>
      <point x="683" y="-100" type="line"/>
      <point x="622" y="-98"/>
      <point x="532" y="-77"/>
      <point x="532" y="32" type="curve" smooth="yes"/>
      <point x="532" y="310" type="line" smooth="yes"/>
      <point x="532" y="456"/>
      <point x="464" y="526"/>
      <point x="340" y="551" type="curve"/>
      <point x="340" y="563" type="line"/>
      <point x="461" y="585"/>
      <point x="532" y="655"/>
      <point x="532" y="808" type="curve" smooth="yes"/>
      <point x="532" y="1080" type="line" smooth="yes"/>
      <point x="532" y="1190"/>
      <point x="620" y="1210"/>
      <point x="683" y="1212" type="curve"/>
      <point x="683" y="1442" type="line"/>
      <point x="336" y="1442"/>
      <point x="269" y="1338"/>
      <point x="269" y="1115" type="curve" smooth="yes"/>
      <point x="269" y="851" type="line" smooth="yes"/>
      <point x="269" y="725"/>
      <point x="173" y="679"/>
      <point x="72" y="678" type="curve"/>
      <point x="72" y="434" type="line"/>
      <point x="169" y="434"/>
      <point x="269" y="386"/>
      <point x="269" y="260" type="curve" smooth="yes"/>
      <point x="269" y="1" type="line" smooth="yes"/>
      <point x="269" y="-226"/>
      <point x="342" y="-328"/>
      <point x="683" y="-329" type="curve"/>
    </contour>
  </outline>
</glyph>
<glyph name="bar" format="2">
  <advance width="790"/>
  <unicode hex="007C"/>
  <outline>
    <contour>
      <point x="289" y="-451" type="line"/>
      <point x="502" y="-451" type="line"/>
      <point x="502" y="1520" type="line"/>
      <point x="289" y="1520" type="line"/>
    </contour>
  </outline>
</glyph>
<glyph name="braceright" format="2">
  <advance width="759"/>
  <unicode hex="007D"/>
  <outline>
    <contour>
      <point x="76" y="-329" type="line"/>
      <point x="419" y="-329"/>
      <point x="492" y="-226"/>
      <point x="492" y="0" type="curve" smooth="yes"/>
      <point x="492" y="261" type="line" smooth="yes"/>
      <point x="492" y="386"/>
      <point x="590" y="433"/>
      <point x="687" y="434" type="curve"/>
      <point x="687" y="678" type="line"/>
      <point x="588" y="678"/>
      <point x="492" y="725"/>
      <point x="492" y="852" type="curve" smooth="yes"/>
      <point x="492" y="1114" type="line" smooth="yes"/>
      <point x="492" y="1338"/>
      <point x="423" y="1441"/>
      <point x="76" y="1442" type="curve"/>
      <point x="76" y="1212" type="line"/>
      <point x="140" y="1210"/>
      <point x="227" y="1191"/>
      <point x="227" y="1081" type="curve" smooth="yes"/>
      <point x="227" y="808" type="line" smooth="yes"/>
      <point x="227" y="654"/>
      <point x="299" y="584"/>
      <point x="420" y="562" type="curve"/>
      <point x="420" y="550" type="line"/>
      <point x="295" y="526"/>
      <point x="227" y="456"/>
      <point x="227" y="309" type="curve" smooth="yes"/>
      <point x="227" y="32" type="line" smooth="yes"/>
      <point x="227" y="-76"/>
      <point x="139" y="-97"/>
      <point x="76" y="-100" type="curve"/>
    </contour>
  </outline>
</glyph>
<glyph name="asciitilde" format="2">
  <advance width="1628"/>
  <unicode hex="007E"/>
  <outline>
    <contour>
      <point x="763" y="598" type="curve"/>
      <point x="944" y="545"/>
      <point x="1044" y="536"/>
      <point x="1157" y="536" type="curve" smooth="yes"/>
      <point x="1303" y="536"/>
      <point x="1423" y="572"/>
      <point x="1518" y="642" type="curve"/>
      <point x="1518" y="876" type="line"/>
      <point x="1423" y="810"/>
      <point x="1293" y="758"/>
      <point x="1179" y="758" type="curve" smooth="yes"/>
      <point x="1095" y="758"/>
      <point x="1006" y="771"/>
      <point x="863" y="812" type="curve"/>
      <point x="680" y="865"/>
      <point x="582" y="875"/>
      <point x="469" y="875" type="curve" smooth="yes"/>
      <point x="323" y="875"/>
      <point x="204" y="839"/>
      <point x="108" y="769" type="curve"/>
      <point x="108" y="534" type="line"/>
      <point x="204" y="600"/>
      <point x="336" y="652"/>
      <point x="446" y="652" type="curve" smooth="yes"/>
      <point x="533" y="652"/>
      <point x="621" y="639"/>
    </contour>
  </outline>
</glyph>
<glyph name="exclamdown" format="2">
  <advance width="642"/>
  <unicode hex="00A1"/>
  <outline>
    <contour>
      <point x="129" y="-338" type="line"/>
      <point x="509" y="-338" type="line"/>
      <point x="434" y="619" type="line"/>
      <point x="204" y="619" type="line"/>
    </contour>
    <contour>
      <point x="530" y="946" type="curve" smooth="yes"/>
      <point x="530" y="1066"/>
      <point x="436" y="1115"/>
      <point x="322" y="1115" type="curve" smooth="yes"/>
      <point x="209" y="1115"/>
      <point x="115" y="1066"/>
      <point x="115" y="946" type="curve" smooth="yes"/>
      <point x="115" y="820"/>
      <point x="209" y="776"/>
      <point x="322" y="776" type="curve" smooth="yes"/>
      <point x="436" y="776"/>
      <point x="530" y="820"/>
    </contour>
  </outline>
</glyph>
<glyph name="sterling" format="2">
  <advance width="1351"/>
  <unicode hex="00A3"/>
  <outline>
    <contour>
      <point x="826" y="1449" type="curve" smooth="yes"/>
      <point x="528" y="1449"/>
      <point x="330" y="1317"/>
      <point x="330" y="1036" type="curve" smooth="yes"/>
      <point x="330" y="860" type="line"/>
      <point x="123" y="860" type="line"/>
      <point x="123" y="636" type="line"/>
      <point x="330" y="636" type="line"/>
      <point x="330" y="502" type="line" smooth="yes"/>
      <point x="330" y="354"/>
      <point x="249" y="304"/>
      <point x="120" y="254" type="curve"/>
      <point x="120" y="0" type="line"/>
      <point x="1311" y="0" type="line"/>
      <point x="1311" y="266" type="line"/>
      <point x="477" y="266" type="line"/>
      <point x="559" y="302"/>
      <point x="647" y="365"/>
      <point x="647" y="504" type="curve" smooth="yes"/>
      <point x="647" y="636" type="line"/>
      <point x="1083" y="636" type="line"/>
      <point x="1083" y="860" type="line"/>
      <point x="647" y="860" type="line"/>
      <point x="647" y="1022" type="line" smooth="yes"/>
      <point x="647" y="1152"/>
      <point x="724" y="1195"/>
      <point x="852" y="1195" type="curve" smooth="yes"/>
      <point x="951" y="1195"/>
      <point x="1059" y="1172"/>
      <point x="1164" y="1134" type="curve"/>
      <point x="1262" y="1368" type="line"/>
      <point x="1142" y="1416"/>
      <point x="994" y="1449"/>
    </contour>
  </outline>
</glyph>
<glyph name="currency" format="2">
  <advance width="1351"/>
  <unicode hex="00A4"/>
  <outline>
    <contour>
      <point x="198" y="706" type="curve" smooth="yes"/>
      <point x="198" y="638"/>
      <point x="224" y="576"/>
      <point x="268" y="519" type="curve"/>
      <point x="115" y="398" type="line"/>
      <point x="271" y="250" type="line"/>
      <point x="424" y="368" type="line"/>
      <point x="493" y="336"/>
      <point x="579" y="320"/>
      <point x="670" y="320" type="curve" smooth="yes"/>
      <point x="759" y="320"/>
      <point x="844" y="340"/>
      <point x="913" y="368" type="curve"/>
      <point x="1067" y="248" type="line"/>
      <point x="1223" y="396" type="line"/>
      <point x="1073" y="517" type="line"/>
      <point x="1119" y="574"/>
      <point x="1144" y="636"/>
      <point x="1144" y="706" type="curve" smooth="yes"/>
      <point x="1144" y="775"/>
      <point x="1115" y="844"/>
      <point x="1073" y="896" type="curve"/>
      <point x="1227" y="1022" type="line"/>
      <point x="1067" y="1167" type="line"/>
      <point x="913" y="1042" type="line"/>
      <point x="839" y="1076"/>
      <point x="759" y="1094"/>
      <point x="670" y="1094" type="curve" smooth="yes"/>
      <point x="584" y="1094"/>
      <point x="495" y="1075"/>
      <point x="426" y="1044" type="curve"/>
      <point x="271" y="1167" type="line"/>
      <point x="112" y="1017" type="line"/>
      <point x="268" y="894" type="line"/>
      <point x="226" y="840"/>
      <point x="198" y="774"/>
    </contour>
    <contour>
      <point x="421" y="706" type="curve" smooth="yes"/>
      <point x="421" y="806"/>
      <point x="531" y="883"/>
      <point x="670" y="883" type="curve" smooth="yes"/>
      <point x="812" y="883"/>
      <point x="923" y="806"/>
      <point x="923" y="706" type="curve" smooth="yes"/>
      <point x="923" y="609"/>
      <point x="812" y="532"/>
      <point x="670" y="532" type="curve" smooth="yes"/>
      <point x="531" y="532"/>
      <point x="421" y="609"/>
    </contour>
  </outline>
</glyph>
<glyph name="yen" format="2">
  <advance width="1351"/>
  <unicode hex="00A5"/>
  <outline>
    <contour>
      <point x="340" y="1428" type="line"/>
      <point x="9" y="1428" type="line"/>
      <point x="457" y="714" type="line"/>
      <point x="197" y="714" type="line"/>
      <point x="197" y="534" type="line"/>
      <point x="524" y="534" type="line"/>
      <point x="524" y="404" type="line"/>
      <point x="197" y="404" type="line"/>
      <point x="197" y="225" type="line"/>
      <point x="524" y="225" type="line"/>
      <point x="524" y="0" type="line"/>
      <point x="828" y="0" type="line"/>
      <point x="828" y="225" type="line"/>
      <point x="1153" y="225" type="line"/>
      <point x="1153" y="404" type="line"/>
      <point x="828" y="404" type="line"/>
      <point x="828" y="534" type="line"/>
      <point x="1153" y="534" type="line"/>
      <point x="1153" y="714" type="line"/>
      <point x="888" y="714" type="line"/>
      <point x="1342" y="1428" type="line"/>
      <point x="1013" y="1428" type="line"/>
      <point x="676" y="868" type="line"/>
    </contour>
  </outline>
</glyph>
<glyph name="brokenbar" format="2">
  <advance width="790"/>
  <unicode hex="00A6"/>
  <outline>
    <contour>
      <point x="289" y="720" type="line"/>
      <point x="502" y="720" type="line"/>
      <point x="502" y="1520" type="line"/>
      <point x="289" y="1520" type="line"/>
    </contour>
    <contour>
      <point x="289" y="-451" type="line"/>
      <point x="502" y="-451" type="line"/>
      <point x="502" y="350" type="line"/>
      <point x="289" y="350" type="line"/>
    </contour>
  </outline>
</glyph>
<glyph name="copyright" format="2">
  <advance width="1721"/>
  <unicode hex="00A9"/>
  <outline>
    <contour>
      <point x="872" y="260" type="curve" smooth="yes"/>
      <point x="976" y="260"/>
      <point x="1051" y="280"/>
      <point x="1129" y="317" type="curve"/>
      <point x="1129" y="510" type="line"/>
      <point x="1051" y="471"/>
      <point x="964" y="451"/>
      <point x="885" y="451" type="curve" smooth="yes"/>
      <point x="744" y="451"/>
      <point x="682" y="536"/>
      <point x="682" y="714" type="curve" smooth="yes"/>
      <point x="682" y="881"/>
      <point x="757" y="976"/>
      <point x="882" y="976" type="curve" smooth="yes"/>
      <point x="953" y="976"/>
      <point x="1017" y="958"/>
      <point x="1086" y="922" type="curve"/>
      <point x="1167" y="1096" type="line"/>
      <point x="1076" y="1141"/>
      <point x="978" y="1167"/>
      <point x="869" y="1167" type="curve" smooth="yes"/>
      <point x="587" y="1167"/>
      <point x="441" y="985"/>
      <point x="441" y="717" type="curve" smooth="yes"/>
      <point x="441" y="440"/>
      <point x="586" y="260"/>
    </contour>
    <contour>
      <point x="861" y="-20" type="curve" smooth="yes"/>
      <point x="1298" y="-20"/>
      <point x="1613" y="288"/>
      <point x="1613" y="714" type="curve" smooth="yes"/>
      <point x="1613" y="1140"/>
      <point x="1291" y="1448"/>
      <point x="861" y="1448" type="curve" smooth="yes"/>
      <point x="424" y="1448"/>
      <point x="108" y="1140"/>
      <point x="108" y="714" type="curve" smooth="yes"/>
      <point x="108" y="288"/>
      <point x="424" y="-20"/>
    </contour>
    <contour>
      <point x="861" y="122" type="curve" smooth="yes"/>
      <point x="511" y="122"/>
      <point x="267" y="374"/>
      <point x="267" y="714" type="curve" smooth="yes"/>
      <point x="267" y="1062"/>
      <point x="511" y="1306"/>
      <point x="861" y="1306" type="curve" smooth="yes"/>
      <point x="1208" y="1306"/>
      <point x="1452" y="1055"/>
      <point x="1452" y="714" type="curve" smooth="yes"/>
      <point x="1452" y="367"/>
      <point x="1201" y="122"/>
    </contour>
  </outline>
</glyph>
<glyph name="ordfeminine" format="2">
  <advance width="987"/>
  <unicode hex="00AA"/>
  <anchor x="481" y="735" name="bottom"/>
  <anchor x="481" y="1450" name="top"/>
  <outline>
    <contour>
      <point x="506" y="1444" type="curve" smooth="yes"/>
      <point x="351" y="1444"/>
      <point x="224" y="1416"/>
      <point x="117" y="1373" type="curve"/>
      <point x="190" y="1232" type="line"/>
      <point x="284" y="1268"/>
      <point x="377" y="1286"/>
      <point x="484" y="1286" type="curve" smooth="yes"/>
      <point x="593" y="1286"/>
      <point x="677" y="1261"/>
      <point x="677" y="1197" type="curve" smooth="yes"/>
      <point x="677" y="1178" type="line"/>
      <point x="522" y="1174" type="line" smooth="yes"/>
      <point x="211" y="1166"/>
      <point x="57" y="1109"/>
      <point x="57" y="951" type="curve" smooth="yes"/>
      <point x="57" y="801"/>
      <point x="180" y="730"/>
      <point x="363" y="730" type="curve" smooth="yes"/>
      <point x="514" y="730"/>
      <point x="617" y="774"/>
      <point x="697" y="853" type="curve"/>
      <point x="738" y="742" type="line"/>
      <point x="894" y="742" type="line"/>
      <point x="894" y="1181" type="line" smooth="yes"/>
      <point x="894" y="1359"/>
      <point x="755" y="1444"/>
    </contour>
    <contour>
      <point x="677" y="1059" type="line"/>
      <point x="677" y="1029" type="line" smooth="yes"/>
      <point x="677" y="948"/>
      <point x="601" y="883"/>
      <point x="424" y="883" type="curve" smooth="yes"/>
      <point x="335" y="883"/>
      <point x="280" y="908"/>
      <point x="280" y="959" type="curve" smooth="yes"/>
      <point x="280" y="1008"/>
      <point x="335" y="1046"/>
      <point x="541" y="1054" type="curve"/>
    </contour>
  </outline>
</glyph>
<glyph name="registered" format="2">
  <advance width="1721"/>
  <unicode hex="00AE"/>
  <outline>
    <contour>
      <point x="781" y="296" type="line"/>
      <point x="781" y="620" type="line"/>
      <point x="847" y="620" type="line"/>
      <point x="1013" y="296" type="line"/>
      <point x="1256" y="296" type="line"/>
      <point x="1047" y="662" type="line"/>
      <point x="1127" y="696"/>
      <point x="1195" y="762"/>
      <point x="1195" y="895" type="curve" smooth="yes"/>
      <point x="1195" y="1064"/>
      <point x="1087" y="1157"/>
      <point x="823" y="1157" type="curve" smooth="yes"/>
      <point x="550" y="1157" type="line"/>
      <point x="550" y="296" type="line"/>
    </contour>
    <contour>
      <point x="781" y="776" type="line"/>
      <point x="781" y="988" type="line"/>
      <point x="823" y="988" type="line"/>
      <point x="914" y="988"/>
      <point x="962" y="965"/>
      <point x="962" y="887" type="curve" smooth="yes"/>
      <point x="962" y="811"/>
      <point x="910" y="776"/>
      <point x="822" y="776" type="curve"/>
    </contour>
    <contour>
      <point x="861" y="-20" type="curve" smooth="yes"/>
      <point x="1298" y="-20"/>
      <point x="1613" y="288"/>
      <point x="1613" y="714" type="curve" smooth="yes"/>
      <point x="1613" y="1140"/>
      <point x="1291" y="1448"/>
      <point x="861" y="1448" type="curve" smooth="yes"/>
      <point x="424" y="1448"/>
      <point x="108" y="1140"/>
      <point x="108" y="714" type="curve" smooth="yes"/>
      <point x="108" y="288"/>
      <point x="424" y="-20"/>
    </contour>
    <contour>
      <point x="861" y="122" type="curve" smooth="yes"/>
      <point x="511" y="122"/>
      <point x="267" y="374"/>
      <point x="267" y="714" type="curve" smooth="yes"/>
      <point x="267" y="1062"/>
      <point x="511" y="1306"/>
      <point x="861" y="1306" type="curve" smooth="yes"/>
      <point x="1208" y="1306"/>
      <point x="1452" y="1055"/>
      <point x="1452" y="714" type="curve" smooth="yes"/>
      <point x="1452" y="367"/>
      <point x="1201" y="122"/>
    </contour>
  </outline>
</glyph>
<glyph name="macron" format="2">
  <advance width="1024"/>
  <unicode hex="00AF"/>
  <outline>
    <contour>
      <point x="1032" y="1724" type="line"/>
      <point x="-8" y="1724" type="line"/>
      <point x="-8" y="1520" type="line"/>
      <point x="1032" y="1520" type="line"/>
    </contour>
  </outline>
</glyph>
<glyph name="degree" format="2">
  <advance width="888"/>
  <unicode hex="00B0"/>
  <outline>
    <contour>
      <point x="444" y="766" type="curve" smooth="yes"/>
      <point x="662" y="766"/>
      <point x="814" y="905"/>
      <point x="814" y="1106" type="curve" smooth="yes"/>
      <point x="814" y="1305"/>
      <point x="662" y="1448"/>
      <point x="444" y="1448" type="curve" smooth="yes"/>
      <point x="224" y="1448"/>
      <point x="74" y="1305"/>
      <point x="74" y="1106" type="curve" smooth="yes"/>
      <point x="74" y="905"/>
      <point x="226" y="766"/>
    </contour>
    <contour>
      <point x="445" y="960" type="curve" smooth="yes"/>
      <point x="337" y="960"/>
      <point x="279" y="1019"/>
      <point x="279" y="1106" type="curve" smooth="yes"/>
      <point x="279" y="1196"/>
      <point x="337" y="1256"/>
      <point x="445" y="1256" type="curve" smooth="yes"/>
      <point x="549" y="1256"/>
      <point x="609" y="1196"/>
      <point x="609" y="1106" type="curve" smooth="yes"/>
      <point x="609" y="1019"/>
      <point x="552" y="960"/>
    </contour>
  </outline>
</glyph>
<glyph name="plusminus" format="2">
  <advance width="1629"/>
  <unicode hex="00B1"/>
  <outline>
    <contour>
      <point x="1519" y="0" type="line"/>
      <point x="1519" y="222" type="line"/>
      <point x="108" y="222" type="line"/>
      <point x="108" y="0" type="line"/>
    </contour>
    <contour>
      <point x="937" y="1252" type="line"/>
      <point x="689" y="1252" type="line"/>
      <point x="689" y="876" type="line"/>
      <point x="108" y="876" type="line"/>
      <point x="108" y="654" type="line"/>
      <point x="689" y="654" type="line"/>
      <point x="689" y="282" type="line"/>
      <point x="937" y="282" type="line"/>
      <point x="937" y="654" type="line"/>
      <point x="1517" y="654" type="line"/>
      <point x="1517" y="876" type="line"/>
      <point x="937" y="876" type="line"/>
    </contour>
  </outline>
</glyph>
<glyph name="acute" format="2">
  <advance width="1308"/>
  <unicode hex="00B4"/>
  <outline>
    <contour>
      <point x="993" y="1532" type="line"/>
      <point x="619" y="1532" type="line"/>
      <point x="545" y="1442"/>
      <point x="405" y="1313"/>
      <point x="315" y="1239" type="curve"/>
      <point x="315" y="1212" type="line"/>
      <point x="527" y="1212" type="line"/>
      <point x="672" y="1282"/>
      <point x="906" y="1437"/>
      <point x="993" y="1512" type="curve"/>
    </contour>
  </outline>
</glyph>
<glyph name="periodcentered" format="2">
  <advance width="1308"/>
  <unicode hex="00B7"/>
  <outline>
    <contour>
      <point x="446" y="706" type="curve" smooth="yes"/>
      <point x="446" y="586"/>
      <point x="538" y="537"/>
      <point x="653" y="537" type="curve" smooth="yes"/>
      <point x="765" y="537"/>
      <point x="862" y="586"/>
      <point x="862" y="706" type="curve" smooth="yes"/>
      <point x="862" y="831"/>
      <point x="765" y="876"/>
      <point x="653" y="876" type="curve" smooth="yes"/>
      <point x="538" y="876"/>
      <point x="446" y="831"/>
    </contour>
  </outline>
</glyph>
<glyph name="cedilla" format="2">
  <advance width="1308"/>
  <unicode hex="00B8"/>
  <outline>
    <contour>
      <point x="961" y="-256" type="curve" smooth="yes"/>
      <point x="961" y="-137"/>
      <point x="837" y="-94"/>
      <point x="697" y="-75" type="curve"/>
      <point x="766" y="0" type="line"/>
      <point x="572" y="0" type="line"/>
      <point x="450" y="-148" type="line"/>
      <point x="603" y="-164"/>
      <point x="712" y="-189"/>
      <point x="712" y="-243" type="curve" smooth="yes"/>
      <point x="712" y="-288"/>
      <point x="640" y="-310"/>
      <point x="508" y="-310" type="curve" smooth="yes"/>
      <point x="450" y="-310"/>
      <point x="384" y="-303"/>
      <point x="343" y="-292" type="curve"/>
      <point x="343" y="-454" type="line"/>
      <point x="383" y="-468"/>
      <point x="450" y="-480"/>
      <point x="524" y="-480" type="curve" smooth="yes"/>
      <point x="809" y="-480"/>
      <point x="961" y="-394"/>
    </contour>
  </outline>
</glyph>
<glyph name="onesuperior" format="2">
  <advance width="987"/>
  <unicode hex="00B9"/>
  <outline>
    <contour>
      <point x="496" y="1688" type="line"/>
      <point x="87" y="1448" type="line"/>
      <point x="211" y="1305" type="line"/>
      <point x="365" y="1376" type="line"/>
      <point x="412" y="1396"/>
      <point x="462" y="1425"/>
      <point x="497" y="1449" type="curve"/>
      <point x="491" y="1412"/>
      <point x="484" y="1299"/>
      <point x="484" y="1248" type="curve" smooth="yes"/>
      <point x="484" y="832" type="line"/>
      <point x="734" y="832" type="line"/>
      <point x="734" y="1688" type="line"/>
    </contour>
  </outline>
</glyph>
<glyph name="ordmasculine" format="2">
  <advance width="987"/>
  <unicode hex="00BA"/>
  <anchor x="484" y="734" name="bottom"/>
  <anchor x="500" y="1450" name="top"/>
  <outline>
    <contour>
      <point x="932" y="1088" type="curve" smooth="yes"/>
      <point x="932" y="1314"/>
      <point x="753" y="1444"/>
      <point x="496" y="1444" type="curve" smooth="yes"/>
      <point x="225" y="1444"/>
      <point x="57" y="1316"/>
      <point x="57" y="1088" type="curve" smooth="yes"/>
      <point x="57" y="862"/>
      <point x="239" y="730"/>
      <point x="491" y="730" type="curve" smooth="yes"/>
      <point x="759" y="730"/>
      <point x="932" y="861"/>
    </contour>
    <contour>
      <point x="276" y="1088" type="curve" smooth="yes"/>
      <point x="276" y="1215"/>
      <point x="342" y="1278"/>
      <point x="494" y="1278" type="curve" smooth="yes"/>
      <point x="644" y="1278"/>
      <point x="710" y="1215"/>
      <point x="710" y="1088" type="curve" smooth="yes"/>
      <point x="710" y="961"/>
      <point x="644" y="898"/>
      <point x="494" y="898" type="curve" smooth="yes"/>
      <point x="339" y="898"/>
      <point x="276" y="961"/>
    </contour>
  </outline>
</glyph>
<glyph name="guillemetright" format="2">
  <advance width="1166"/>
  <unicode hex="00BB"/>
  <outline>
    <contour>
      <point x="1080" y="563" type="line"/>
      <point x="779" y="1012" type="line"/>
      <point x="545" y="890" type="line"/>
      <point x="756" y="551" type="line"/>
      <point x="545" y="210" type="line"/>
      <point x="779" y="90" type="line"/>
      <point x="1080" y="537" type="line"/>
    </contour>
    <contour>
      <point x="622" y="563" type="line"/>
      <point x="320" y="1012" type="line"/>
      <point x="88" y="890" type="line"/>
      <point x="298" y="551" type="line"/>
      <point x="88" y="210" type="line"/>
      <point x="320" y="90" type="line"/>
      <point x="622" y="537" type="line"/>
    </contour>
  </outline>
</glyph>
<glyph name="onehalf" format="2">
  <advance width="1946"/>
  <unicode hex="00BD"/>
  <outline>
    <contour>
      <point x="545" y="0" type="line"/>
      <point x="1505" y="1428" type="line"/>
      <point x="1249" y="1428" type="line"/>
      <point x="288" y="0" type="line"/>
    </contour>
    <contour>
      <point x="302" y="572" type="line"/>
      <point x="543" y="572" type="line"/>
      <point x="543" y="1428" type="line"/>
      <point x="333" y="1428" type="line"/>
      <point x="-15" y="1188" type="line"/>
      <point x="108" y="1045" type="line"/>
      <point x="218" y="1116" type="line" smooth="yes"/>
      <point x="255" y="1140"/>
      <point x="293" y="1173"/>
      <point x="312" y="1189" type="curve"/>
      <point x="309" y="1164"/>
      <point x="302" y="1026"/>
      <point x="302" y="988" type="curve" smooth="yes"/>
    </contour>
    <contour>
      <point x="1867" y="0" type="line"/>
      <point x="1867" y="188" type="line"/>
      <point x="1433" y="188" type="line"/>
      <point x="1641" y="353" type="line"/>
      <point x="1773" y="445"/>
      <point x="1858" y="529"/>
      <point x="1858" y="644" type="curve" smooth="yes"/>
      <point x="1858" y="790"/>
      <point x="1733" y="877"/>
      <point x="1524" y="877" type="curve" smooth="yes"/>
      <point x="1368" y="877"/>
      <point x="1253" y="838"/>
      <point x="1147" y="752" type="curve"/>
      <point x="1266" y="614" type="line"/>
      <point x="1343" y="670"/>
      <point x="1413" y="700"/>
      <point x="1493" y="700" type="curve" smooth="yes"/>
      <point x="1567" y="700"/>
      <point x="1613" y="673"/>
      <point x="1613" y="620" type="curve" smooth="yes"/>
      <point x="1613" y="559"/>
      <point x="1574" y="510"/>
      <point x="1410" y="384" type="curve"/>
      <point x="1148" y="171" type="line"/>
      <point x="1148" y="0" type="line"/>
    </contour>
  </outline>
</glyph>
<glyph name="threequarters" format="2">
  <advance width="1946"/>
  <unicode hex="00BE"/>
  <outline>
    <contour>
      <point x="735" y="0" type="line"/>
      <point x="1626" y="1428" type="line"/>
      <point x="1372" y="1428" type="line"/>
      <point x="480" y="0" type="line"/>
    </contour>
    <contour>
      <point x="417" y="556" type="curve" smooth="yes"/>
      <point x="678" y="556"/>
      <point x="816" y="652"/>
      <point x="816" y="809" type="curve" smooth="yes"/>
      <point x="816" y="920"/>
      <point x="745" y="987"/>
      <point x="615" y="1015" type="curve"/>
      <point x="615" y="1022" type="line"/>
      <point x="725" y="1059"/>
      <point x="786" y="1129"/>
      <point x="786" y="1233" type="curve" smooth="yes"/>
      <point x="786" y="1362"/>
      <point x="664" y="1446" name=".hr01"/>
      <point x="450" y="1446" type="curve" smooth="yes"/>
      <point x="311" y="1446"/>
      <point x="200" y="1408"/>
      <point x="99" y="1339" type="curve"/>
      <point x="205" y="1198" type="line"/>
      <point x="284" y="1249"/>
      <point x="351" y="1271"/>
      <point x="431" y="1271" type="curve" smooth="yes"/>
      <point x="511" y="1271"/>
      <point x="557" y="1236"/>
      <point x="557" y="1186" type="curve" smooth="yes"/>
      <point x="557" y="1122"/>
      <point x="501" y="1089"/>
      <point x="376" y="1089" type="curve" smooth="yes"/>
      <point x="270" y="1089" type="line"/>
      <point x="270" y="926" type="line"/>
      <point x="390" y="926" type="line" smooth="yes"/>
      <point x="515" y="926"/>
      <point x="583" y="901"/>
      <point x="583" y="833" type="curve" smooth="yes"/>
      <point x="583" y="772"/>
      <point x="528" y="738"/>
      <point x="411" y="738" type="curve" smooth="yes"/>
      <point x="299" y="738"/>
      <point x="193" y="764"/>
      <point x="101" y="814" type="curve"/>
      <point x="101" y="620" type="line"/>
      <point x="191" y="576"/>
      <point x="295" y="556"/>
    </contour>
    <contour>
      <point x="1789" y="0" type="line"/>
      <point x="1789" y="155" type="line"/>
      <point x="1925" y="155" type="line"/>
      <point x="1925" y="326" type="line"/>
      <point x="1789" y="326" type="line"/>
      <point x="1789" y="862" type="line"/>
      <point x="1541" y="862" type="line"/>
      <point x="1133" y="312" type="line"/>
      <point x="1133" y="155" type="line"/>
      <point x="1551" y="155" type="line"/>
      <point x="1551" y="0" type="line"/>
    </contour>
    <contour>
      <point x="1472" y="513" type="line"/>
      <point x="1496" y="542"/>
      <point x="1535" y="597"/>
      <point x="1557" y="651" type="curve"/>
      <point x="1553" y="602"/>
      <point x="1551" y="545"/>
      <point x="1551" y="496" type="curve" smooth="yes"/>
      <point x="1551" y="326" type="line"/>
      <point x="1329" y="326" type="line"/>
    </contour>
  </outline>
</glyph>
<glyph name="questiondown" format="2">
  <advance width="1018"/>
  <unicode hex="00BF"/>
  <outline>
    <contour>
      <point x="720" y="620" type="line"/>
      <point x="468" y="620" type="line"/>
      <point x="468" y="575" type="line" smooth="yes"/>
      <point x="468" y="496"/>
      <point x="434" y="457"/>
      <point x="298" y="368" type="curve"/>
      <point x="128" y="258"/>
      <point x="43" y="158"/>
      <point x="43" y="-4" type="curve" smooth="yes"/>
      <point x="43" y="-219"/>
      <point x="216" y="-358"/>
      <point x="519" y="-358" type="curve" smooth="yes"/>
      <point x="716" y="-358"/>
      <point x="878" y="-308"/>
      <point x="1018" y="-234" type="curve"/>
      <point x="905" y="-10" type="line"/>
      <point x="781" y="-70"/>
      <point x="664" y="-107"/>
      <point x="542" y="-107" type="curve" smooth="yes"/>
      <point x="420" y="-107"/>
      <point x="346" y="-60"/>
      <point x="346" y="18" type="curve" smooth="yes"/>
      <point x="346" y="94"/>
      <point x="376" y="140"/>
      <point x="531" y="239" type="curve"/>
      <point x="678" y="334"/>
      <point x="720" y="416"/>
      <point x="720" y="546" type="curve" smooth="yes"/>
    </contour>
    <contour>
      <point x="768" y="946" type="curve" smooth="yes"/>
      <point x="768" y="1066"/>
      <point x="686" y="1115"/>
      <point x="582" y="1115" type="curve" smooth="yes"/>
      <point x="483" y="1115"/>
      <point x="399" y="1066"/>
      <point x="399" y="946" type="curve" smooth="yes"/>
      <point x="399" y="821"/>
      <point x="483" y="776"/>
      <point x="582" y="776" type="curve" smooth="yes"/>
      <point x="686" y="776"/>
      <point x="768" y="821"/>
    </contour>
  </outline>
</glyph>
<glyph name="Aring" format="2">
  <advance width="1508"/>
  <unicode hex="00C5"/>
  <anchor x="760" y="0" name="bottom"/>
  <anchor x="754" y="1762" name="top"/>
  <outline>
    <contour>
      <point x="1508" y="0" type="line"/>
      <point x="945" y="1434" type="line"/>
      <point x="561" y="1434" type="line"/>
      <point x="0" y="0" type="line"/>
      <point x="343" y="0" type="line"/>
      <point x="472" y="352" type="line"/>
      <point x="1036" y="352" type="line"/>
      <point x="1165" y="0" type="line"/>
    </contour>
    <contour>
      <point x="961" y="593" type="line"/>
      <point x="551" y="593" type="line"/>
      <point x="671" y="922" type="line"/>
      <point x="693" y="993"/>
      <point x="733" y="1132"/>
      <point x="754" y="1223" type="curve"/>
      <point x="772" y="1148"/>
      <point x="826" y="977"/>
      <point x="842" y="922" type="curve"/>
    </contour>
    <contour>
      <point x="749" y="1302" type="curve" smooth="yes"/>
      <point x="902" y="1302"/>
      <point x="1019" y="1389"/>
      <point x="1019" y="1534" type="curve" smooth="yes"/>
      <point x="1019" y="1675"/>
      <point x="900" y="1762"/>
      <point x="749" y="1762" type="curve" smooth="yes"/>
      <point x="592" y="1762"/>
      <point x="486" y="1675"/>
      <point x="486" y="1532" type="curve" smooth="yes"/>
      <point x="486" y="1389"/>
      <point x="592" y="1302"/>
    </contour>
    <contour>
      <point x="749" y="1436" type="curve" smooth="yes"/>
      <point x="680" y="1436"/>
      <point x="644" y="1473"/>
      <point x="644" y="1532" type="curve" smooth="yes"/>
      <point x="644" y="1592"/>
      <point x="689" y="1628"/>
      <point x="749" y="1628" type="curve" smooth="yes"/>
      <point x="809" y="1628"/>
      <point x="855" y="1592"/>
      <point x="855" y="1532" type="curve" smooth="yes"/>
      <point x="855" y="1473"/>
      <point x="810" y="1436"/>
    </contour>
  </outline>
</glyph>
<glyph name="AE" format="2">
  <advance width="1961"/>
  <unicode hex="00C6"/>
  <anchor x="979" y="0" name="bottom"/>
  <anchor x="1094" y="1428" name="top"/>
  <outline>
    <contour>
      <point x="1846" y="239" type="line"/>
      <point x="1306" y="239" type="line"/>
      <point x="1306" y="625" type="line"/>
      <point x="1808" y="625" type="line"/>
      <point x="1808" y="861" type="line"/>
      <point x="1306" y="861" type="line"/>
      <point x="1306" y="1192" type="line"/>
      <point x="1846" y="1192" type="line"/>
      <point x="1846" y="1428" type="line"/>
      <point x="675" y="1428" type="line"/>
      <point x="-12" y="0" type="line" name=".hr01"/>
      <point x="339" y="0" type="line"/>
      <point x="496" y="352" type="line"/>
      <point x="986" y="352" type="line"/>
      <point x="986" y="0" type="line"/>
      <point x="1846" y="0" type="line"/>
    </contour>
    <contour>
      <point x="866" y="1182" type="line"/>
      <point x="986" y="1182" type="line"/>
      <point x="986" y="595" type="line"/>
      <point x="600" y="595" type="line"/>
    </contour>
  </outline>
</glyph>
<glyph name="Ccedilla" format="2">
  <advance width="1459"/>
  <unicode hex="00C7"/>
  <anchor x="852" y="-480" name="bottom"/>
  <anchor x="845" y="1428" name="top"/>
  <outline>
    <contour>
      <point x="906" y="1208" type="curve" smooth="yes"/>
      <point x="1048" y="1208"/>
      <point x="1169" y="1170"/>
      <point x="1278" y="1125" type="curve"/>
      <point x="1385" y="1356" type="line"/>
      <point x="1242" y="1418"/>
      <point x="1072" y="1448"/>
      <point x="909" y="1448" type="curve" smooth="yes"/>
      <point x="402" y="1448"/>
      <point x="122" y="1145"/>
      <point x="122" y="713" type="curve" smooth="yes"/>
      <point x="122" y="272"/>
      <point x="362" y="-20"/>
      <point x="878" y="-20" type="curve" smooth="yes"/>
      <point x="1053" y="-20"/>
      <point x="1186" y="2"/>
      <point x="1318" y="50" type="curve"/>
      <point x="1318" y="294" type="line"/>
      <point x="1188" y="253"/>
      <point x="1059" y="220"/>
      <point x="917" y="220" type="curve" smooth="yes"/>
      <point x="606" y="220"/>
      <point x="453" y="401"/>
      <point x="453" y="711" type="curve" smooth="yes"/>
      <point x="453" y="1022"/>
      <point x="624" y="1208"/>
    </contour>
    <contour>
      <point x="1098" y="-261" type="curve" smooth="yes"/>
      <point x="1098" y="-145"/>
      <point x="994" y="-102"/>
      <point x="893" y="-82" type="curve"/>
      <point x="934" y="0" type="line"/>
      <point x="761" y="0" type="line"/>
      <point x="677" y="-153" type="line"/>
      <point x="793" y="-169"/>
      <point x="863" y="-194"/>
      <point x="863" y="-251" type="curve" smooth="yes"/>
      <point x="863" y="-301"/>
      <point x="816" y="-323"/>
      <point x="731" y="-323" type="curve" smooth="yes"/>
      <point x="685" y="-323"/>
      <point x="635" y="-317"/>
      <point x="597" y="-307" type="curve"/>
      <point x="597" y="-457" type="line"/>
      <point x="636" y="-469"/>
      <point x="701" y="-480"/>
      <point x="775" y="-480" type="curve" smooth="yes"/>
      <point x="980" y="-480"/>
      <point x="1098" y="-396"/>
    </contour>
  </outline>
</glyph>
<glyph name="Oslash" format="2">
  <advance width="1686"/>
  <unicode hex="00D8"/>
  <anchor x="844" y="0" name="bottom"/>
  <anchor x="849" y="1428" name="top"/>
  <outline>
    <contour>
      <point x="1562" y="716" type="curve" smooth="yes"/>
      <point x="1562" y="953"/>
      <point x="1498" y="1146"/>
      <point x="1362" y="1274" type="curve"/>
      <point x="1457" y="1405" type="line"/>
      <point x="1288" y="1503" type="line"/>
      <point x="1201" y="1379" type="line"/>
      <point x="1104" y="1425"/>
      <point x="984" y="1450"/>
      <point x="845" y="1450" type="curve" smooth="yes"/>
      <point x="349" y="1450"/>
      <point x="122" y="1160"/>
      <point x="122" y="718" type="curve" smooth="yes"/>
      <point x="122" y="477"/>
      <point x="188" y="282"/>
      <point x="327" y="152" type="curve"/>
      <point x="231" y="17" type="line"/>
      <point x="401" y="-84" type="line"/>
      <point x="494" y="48" type="line"/>
      <point x="590" y="3"/>
      <point x="706" y="-20"/>
      <point x="843" y="-20" type="curve" smooth="yes"/>
      <point x="1336" y="-20"/>
      <point x="1562" y="274"/>
    </contour>
    <contour>
      <point x="1227" y="716" type="curve" smooth="yes"/>
      <point x="1227" y="409"/>
      <point x="1117" y="223"/>
      <point x="843" y="223" type="curve" smooth="yes"/>
      <point x="768" y="223"/>
      <point x="703" y="239"/>
      <point x="652" y="266" type="curve"/>
      <point x="1171" y="1018" type="line"/>
      <point x="1209" y="942"/>
      <point x="1227" y="839"/>
    </contour>
    <contour>
      <point x="458" y="716" type="curve" smooth="yes"/>
      <point x="458" y="1024"/>
      <point x="573" y="1210"/>
      <point x="845" y="1210" type="curve" smooth="yes"/>
      <point x="921" y="1210"/>
      <point x="988" y="1193"/>
      <point x="1041" y="1162" type="curve"/>
      <point x="517" y="405" type="line"/>
      <point x="475" y="485"/>
      <point x="458" y="591"/>
    </contour>
  </outline>
</glyph>
<glyph name="Thorn" format="2">
  <advance width="1256"/>
  <unicode hex="00DE"/>
  <anchor x="637" y="0" name="bottom"/>
  <anchor x="637" y="1428" name="top"/>
  <outline>
    <contour>
      <point x="1180" y="766" type="curve" smooth="yes"/>
      <point x="1180" y="1042"/>
      <point x="1008" y="1201"/>
      <point x="638" y="1201" type="curve" smooth="yes"/>
      <point x="502" y="1201" type="line"/>
      <point x="502" y="1428" type="line"/>
      <point x="184" y="1428" type="line"/>
      <point x="184" y="0" type="line"/>
      <point x="502" y="0" type="line"/>
      <point x="502" y="288" type="line"/>
      <point x="628" y="288" type="line" smooth="yes"/>
      <point x="1044" y="288"/>
      <point x="1180" y="515"/>
    </contour>
    <contour>
      <point x="502" y="524" type="line"/>
      <point x="502" y="965" type="line"/>
      <point x="628" y="965" type="line" smooth="yes"/>
      <point x="788" y="965"/>
      <point x="856" y="895"/>
      <point x="856" y="760" type="curve" smooth="yes"/>
      <point x="856" y="591"/>
      <point x="755" y="524"/>
      <point x="596" y="524" type="curve" smooth="yes"/>
    </contour>
  </outline>
</glyph>
<glyph name="germandbls" format="2">
  <advance width="1354"/>
  <unicode hex="00DF"/>
  <anchor x="690" y="0" name="bottom"/>
  <anchor x="690" y="1530" name="top"/>
  <outline>
    <contour>
      <point x="1169" y="1186" type="curve" smooth="yes"/>
      <point x="1169" y="1416"/>
      <point x="961" y="1530"/>
      <point x="672" y="1530" type="curve" smooth="yes"/>
      <point x="377" y="1530"/>
      <point x="158" y="1391"/>
      <point x="158" y="1106" type="curve" smooth="yes"/>
      <point x="158" y="0" type="line"/>
      <point x="478" y="0" type="line"/>
      <point x="478" y="1079" type="line" smooth="yes"/>
      <point x="478" y="1222"/>
      <point x="542" y="1287"/>
      <point x="672" y="1287" type="curve" smooth="yes"/>
      <point x="778" y="1287"/>
      <point x="840" y="1238"/>
      <point x="840" y="1156" type="curve" smooth="yes"/>
      <point x="840" y="996"/>
      <point x="601" y="972"/>
      <point x="601" y="764" type="curve" smooth="yes"/>
      <point x="601" y="659"/>
      <point x="650" y="592"/>
      <point x="793" y="500" type="curve"/>
      <point x="935" y="411"/>
      <point x="953" y="378"/>
      <point x="953" y="317" type="curve" smooth="yes"/>
      <point x="953" y="246"/>
      <point x="900" y="204"/>
      <point x="830" y="204" type="curve" smooth="yes"/>
      <point x="758" y="204"/>
      <point x="649" y="243"/>
      <point x="590" y="284" type="curve"/>
      <point x="590" y="42" type="line"/>
      <point x="663" y="-2"/>
      <point x="749" y="-20" name=".hr01"/>
      <point x="903" y="-20" type="curve" smooth="yes"/>
      <point x="1151" y="-20"/>
      <point x="1285" y="94"/>
      <point x="1285" y="320" type="curve" smooth="yes"/>
      <point x="1285" y="475"/>
      <point x="1229" y="554"/>
      <point x="1113" y="642" type="curve" smooth="yes"/>
      <point x="995" y="731"/>
      <point x="937" y="752"/>
      <point x="937" y="803" type="curve" smooth="yes"/>
      <point x="937" y="880"/>
      <point x="1169" y="961"/>
    </contour>
  </outline>
</glyph>
<glyph name="ae" format="2">
  <advance width="1808"/>
  <unicode hex="00E6"/>
  <anchor x="904" y="0" name="bottom"/>
  <anchor x="926" y="1095" name="top"/>
  <outline>
    <contour>
      <point x="1256" y="1115" type="curve" smooth="yes"/>
      <point x="1111" y="1115"/>
      <point x="1010" y="1075"/>
      <point x="926" y="996" type="curve"/>
      <point x="847" y="1077"/>
      <point x="739" y="1114"/>
      <point x="607" y="1114" type="curve" smooth="yes"/>
      <point x="457" y="1114"/>
      <point x="308" y="1080"/>
      <point x="194" y="1018" type="curve"/>
      <point x="286" y="808" type="line"/>
      <point x="383" y="854"/>
      <point x="492" y="887"/>
      <point x="582" y="887" type="curve" smooth="yes"/>
      <point x="666" y="887"/>
      <point x="733" y="848"/>
      <point x="733" y="720" type="curve" smooth="yes"/>
      <point x="733" y="685" type="line"/>
      <point x="559" y="679" type="line" smooth="yes"/>
      <point x="266" y="669"/>
      <point x="86" y="564"/>
      <point x="86" y="329" type="curve" smooth="yes"/>
      <point x="86" y="91"/>
      <point x="244" y="-20"/>
      <point x="426" y="-20" type="curve" smooth="yes"/>
      <point x="651" y="-20"/>
      <point x="743" y="39"/>
      <point x="864" y="180" type="curve"/>
      <point x="956" y="44"/>
      <point x="1102" y="-20"/>
      <point x="1269" y="-20" type="curve" smooth="yes"/>
      <point x="1440" y="-20"/>
      <point x="1542" y="5"/>
      <point x="1646" y="58" type="curve"/>
      <point x="1646" y="292" type="line"/>
      <point x="1529" y="234"/>
      <point x="1413" y="212"/>
      <point x="1306" y="212" type="curve" smooth="yes"/>
      <point x="1138" y="212"/>
      <point x="1052" y="311"/>
      <point x="1046" y="468" type="curve"/>
      <point x="1708" y="468" type="line"/>
      <point x="1708" y="616" type="line" smooth="yes"/>
      <point x="1708" y="938"/>
      <point x="1524" y="1115"/>
    </contour>
    <contour>
      <point x="734" y="504" type="line"/>
      <point x="734" y="415" type="line" smooth="yes"/>
      <point x="734" y="283"/>
      <point x="646" y="208"/>
      <point x="540" y="208" type="curve" smooth="yes"/>
      <point x="464" y="208"/>
      <point x="413" y="243"/>
      <point x="413" y="331" type="curve" smooth="yes"/>
      <point x="413" y="432"/>
      <point x="465" y="493"/>
      <point x="636" y="500" type="curve" smooth="yes"/>
    </contour>
    <contour>
      <point x="1240" y="894" type="curve" smooth="yes"/>
      <point x="1354" y="894"/>
      <point x="1414" y="800"/>
      <point x="1415" y="674" type="curve"/>
      <point x="1051" y="674" type="line"/>
      <point x="1062" y="827"/>
      <point x="1133" y="894"/>
    </contour>
  </outline>
</glyph>
<glyph name="divide" format="2">
  <advance width="1629"/>
  <unicode hex="00F7"/>
  <outline>
    <contour>
      <point x="1519" y="594" type="line"/>
      <point x="1519" y="816" type="line"/>
      <point x="108" y="816" type="line"/>
      <point x="108" y="594" type="line"/>
    </contour>
    <contour>
      <point x="812" y="186" type="curve" smooth="yes"/>
      <point x="907" y="186"/>
      <point x="988" y="232"/>
      <point x="988" y="338" type="curve" smooth="yes"/>
      <point x="988" y="450"/>
      <point x="907" y="488"/>
      <point x="812" y="488" type="curve" smooth="yes"/>
      <point x="715" y="488"/>
      <point x="634" y="450"/>
      <point x="634" y="338" type="curve" smooth="yes"/>
      <point x="634" y="232"/>
      <point x="715" y="186"/>
    </contour>
    <contour>
      <point x="812" y="922" type="curve" smooth="yes"/>
      <point x="907" y="922"/>
      <point x="988" y="967"/>
      <point x="988" y="1073" type="curve" smooth="yes"/>
      <point x="988" y="1186"/>
      <point x="907" y="1224"/>
      <point x="812" y="1224" type="curve" smooth="yes"/>
      <point x="715" y="1224"/>
      <point x="634" y="1186"/>
      <point x="634" y="1073" type="curve" smooth="yes"/>
      <point x="634" y="967"/>
      <point x="715" y="922"/>
    </contour>
  </outline>
</glyph>
<glyph name="oslash" format="2">
  <advance width="1308"/>
  <unicode hex="00F8"/>
  <anchor x="654" y="0" name="bottom"/>
  <anchor x="656" y="1095" name="top"/>
  <outline>
    <contour>
      <point x="1205" y="550" type="curve" smooth="yes"/>
      <point x="1205" y="734"/>
      <point x="1144" y="876"/>
      <point x="1042" y="972" type="curve"/>
      <point x="1114" y="1082" type="line"/>
      <point x="965" y="1175" type="line"/>
      <point x="893" y="1066" type="line"/>
      <point x="824" y="1097"/>
      <point x="742" y="1115"/>
      <point x="656" y="1115" type="curve" smooth="yes"/>
      <point x="311" y="1115"/>
      <point x="100" y="912"/>
      <point x="100" y="550" type="curve" smooth="yes"/>
      <point x="100" y="361"/>
      <point x="162" y="216"/>
      <point x="267" y="119" type="curve"/>
      <point x="187" y="-2" type="line"/>
      <point x="337" y="-98" type="line"/>
      <point x="418" y="25" type="line"/>
      <point x="487" y="-4"/>
      <point x="566" y="-20"/>
      <point x="650" y="-20" type="curve" smooth="yes"/>
      <point x="994" y="-20"/>
      <point x="1205" y="185"/>
    </contour>
    <contour>
      <point x="411" y="550" type="curve" smooth="yes"/>
      <point x="411" y="770"/>
      <point x="478" y="890"/>
      <point x="652" y="890" type="curve" smooth="yes"/>
      <point x="693" y="890"/>
      <point x="730" y="881"/>
      <point x="759" y="865" type="curve"/>
      <point x="434" y="369" type="line"/>
      <point x="417" y="419"/>
      <point x="411" y="479"/>
    </contour>
    <contour>
      <point x="895" y="550" type="curve" smooth="yes"/>
      <point x="895" y="330"/>
      <point x="831" y="205"/>
      <point x="654" y="205" type="curve" smooth="yes"/>
      <point x="615" y="205"/>
      <point x="581" y="212"/>
      <point x="552" y="226" type="curve"/>
      <point x="874" y="718" type="line"/>
      <point x="889" y="672"/>
      <point x="895" y="615"/>
    </contour>
  </outline>
</glyph>
<glyph name="thorn" format="2">
  <advance width="1357"/>
  <unicode hex="00FE"/>
  <anchor x="680" y="-480" name="bottom"/>
  <anchor x="680" y="1520" name="top"/>
  <outline>
    <contour>
      <point x="1254" y="550" type="curve" smooth="yes"/>
      <point x="1254" y="921"/>
      <point x="1074" y="1115"/>
      <point x="812" y="1115" type="curve" smooth="yes"/>
      <point x="644" y="1115"/>
      <point x="540" y="1042"/>
      <point x="480" y="952" type="curve"/>
      <point x="465" y="952" type="line"/>
      <point x="471" y="990"/>
      <point x="478" y="1062"/>
      <point x="478" y="1147" type="curve" smooth="yes"/>
      <point x="478" y="1520" type="line"/>
      <point x="158" y="1520" type="line"/>
      <point x="158" y="-480" type="line"/>
      <point x="478" y="-480" type="line"/>
      <point x="478" y="-38" type="line" smooth="yes"/>
      <point x="478" y="4"/>
      <point x="471" y="80"/>
      <point x="465" y="116" type="curve"/>
      <point x="478" y="116" type="line"/>
      <point x="542" y="45"/>
      <point x="642" y="-20"/>
      <point x="803" y="-20" type="curve" smooth="yes"/>
      <point x="1068" y="-20"/>
      <point x="1254" y="176"/>
    </contour>
    <contour>
      <point x="928" y="554" type="curve" smooth="yes"/>
      <point x="928" y="346"/>
      <point x="866" y="234"/>
      <point x="713" y="234" type="curve" smooth="yes"/>
      <point x="536" y="234"/>
      <point x="478" y="346"/>
      <point x="478" y="552" type="curve" smooth="yes"/>
      <point x="478" y="583" type="line"/>
      <point x="483" y="772"/>
      <point x="543" y="866"/>
      <point x="709" y="866" type="curve" smooth="yes"/>
      <point x="865" y="866"/>
      <point x="928" y="760"/>
    </contour>
  </outline>
</glyph>
<glyph name="Aogonek" format="2">
  <advance width="1508"/>
  <unicode hex="0104"/>
  <anchor x="760" y="-460" name="bottom"/>
  <anchor x="754" y="1434" name="top"/>
  <outline>
    <contour>
      <point x="1508" y="0" type="line"/>
      <point x="945" y="1434" type="line"/>
      <point x="561" y="1434" type="line"/>
      <point x="0" y="0" type="line"/>
      <point x="343" y="0" type="line"/>
      <point x="472" y="352" type="line"/>
      <point x="1036" y="352" type="line"/>
      <point x="1165" y="0" type="line"/>
    </contour>
    <contour>
      <point x="961" y="593" type="line"/>
      <point x="551" y="593" type="line"/>
      <point x="671" y="922" type="line"/>
      <point x="693" y="993"/>
      <point x="733" y="1132"/>
      <point x="754" y="1223" type="curve"/>
      <point x="772" y="1148"/>
      <point x="826" y="977"/>
      <point x="842" y="922" type="curve"/>
    </contour>
    <contour>
      <point x="1280" y="-212" type="curve" smooth="yes"/>
      <point x="1280" y="-141"/>
      <point x="1327" y="-86"/>
      <point x="1426" y="0" type="curve"/>
      <point x="1289" y="41" type="line"/>
      <point x="1144" y="-48"/>
      <point x="1061" y="-151"/>
      <point x="1061" y="-253" type="curve" smooth="yes"/>
      <point x="1061" y="-382"/>
      <point x="1163" y="-460"/>
      <point x="1325" y="-460" type="curve" smooth="yes"/>
      <point x="1394" y="-460"/>
      <point x="1443" y="-450"/>
      <point x="1489" y="-438" type="curve"/>
      <point x="1489" y="-272" type="line"/>
      <point x="1461" y="-280"/>
      <point x="1414" y="-289"/>
      <point x="1371" y="-289" type="curve" smooth="yes"/>
      <point x="1315" y="-289"/>
      <point x="1280" y="-266"/>
    </contour>
  </outline>
</glyph>
<glyph name="dcaron" format="2">
  <advance width="1653"/>
  <unicode hex="010F"/>
  <anchor x="821" y="0" name="bottom"/>
  <anchor x="735" y="1520" name="top"/>
  <outline>
    <contour>
      <point x="737" y="-20" type="curve" smooth="yes"/>
      <point x="982" y="-20"/>
      <point x="1129" y="52"/>
      <point x="1221" y="142" type="curve"/>
      <point x="1234" y="142" type="line"/>
      <point x="1289" y="0" type="line" name=".hr01"/>
      <point x="1541" y="0" type="line"/>
      <point x="1541" y="1520" type="line"/>
      <point x="1221" y="1520" type="line"/>
      <point x="1221" y="1180" type="line" smooth="yes"/>
      <point x="1221" y="1104"/>
      <point x="1233" y="1003"/>
      <point x="1240" y="954" type="curve"/>
      <point x="1224" y="954" type="line"/>
      <point x="1128" y="1045"/>
      <point x="985" y="1115"/>
      <point x="744" y="1115" type="curve" smooth="yes"/>
      <point x="357" y="1115"/>
      <point x="98" y="921"/>
      <point x="98" y="546" type="curve" smooth="yes"/>
      <point x="98" y="174"/>
      <point x="354" y="-20" name=".hr02"/>
    </contour>
    <contour>
      <point x="815" y="230" type="curve" smooth="yes"/>
      <point x="558" y="230"/>
      <point x="427" y="333"/>
      <point x="427" y="541" type="curve" smooth="yes"/>
      <point x="427" y="750"/>
      <point x="558" y="861"/>
      <point x="812" y="861" type="curve" smooth="yes"/>
      <point x="1135" y="861"/>
      <point x="1233" y="748"/>
      <point x="1233" y="543" type="curve" smooth="yes"/>
      <point x="1233" y="512" type="line" smooth="yes"/>
      <point x="1233" y="322"/>
      <point x="1121" y="230"/>
    </contour>
    <contour>
      <point x="2055" y="1520" type="line"/>
      <point x="1748" y="1520" type="line"/>
      <point x="1733" y="1434"/>
      <point x="1689" y="1304"/>
      <point x="1653" y="1227" type="curve"/>
      <point x="1653" y="1200" type="line"/>
      <point x="1833" y="1200" type="line"/>
      <point x="1926" y="1308"/>
      <point x="2018" y="1410"/>
      <point x="2055" y="1500" type="curve"/>
    </contour>
  </outline>
</glyph>
<glyph name="Dcroat" format="2">
  <advance width="1624"/>
  <unicode hex="0110"/>
  <anchor x="807" y="0" name="bottom"/>
  <anchor x="807" y="1428" name="top"/>
  <outline>
    <contour>
      <point x="189" y="1428" type="line"/>
      <point x="189" y="825" type="line"/>
      <point x="36" y="825" type="line"/>
      <point x="36" y="588" type="line"/>
      <point x="189" y="588" type="line"/>
      <point x="189" y="0" type="line"/>
      <point x="663" y="0" type="line" smooth="yes"/>
      <point x="1182" y="0"/>
      <point x="1502" y="246"/>
      <point x="1502" y="737" type="curve" smooth="yes"/>
      <point x="1502" y="1186"/>
      <point x="1203" y="1428"/>
      <point x="706" y="1428" type="curve" smooth="yes"/>
    </contour>
    <contour>
      <point x="693" y="1192" type="line" smooth="yes"/>
      <point x="1002" y="1192"/>
      <point x="1171" y="1044"/>
      <point x="1171" y="727" type="curve" smooth="yes"/>
      <point x="1171" y="400"/>
      <point x="1004" y="239"/>
      <point x="657" y="239" type="curve" smooth="yes"/>
      <point x="508" y="239" type="line"/>
      <point x="508" y="588" type="line"/>
      <point x="822" y="588" type="line"/>
      <point x="822" y="825" type="line"/>
      <point x="508" y="825" type="line"/>
      <point x="508" y="1192" type="line"/>
    </contour>
  </outline>
</glyph>
<glyph name="dcroat" format="2">
  <advance width="1357"/>
  <unicode hex="0111"/>
  <anchor x="680" y="0" name="bottom"/>
  <anchor x="680" y="1520" name="top"/>
  <outline>
    <contour>
      <point x="520" y="-20" type="curve" smooth="yes"/>
      <point x="678" y="-20"/>
      <point x="772" y="52"/>
      <point x="834" y="142" type="curve"/>
      <point x="846" y="142" type="line"/>
      <point x="913" y="0" type="line" name=".hr01"/>
      <point x="1174" y="0" type="line"/>
      <point x="1174" y="1164" type="line"/>
      <point x="1333" y="1164" type="line"/>
      <point x="1333" y="1365" type="line"/>
      <point x="1174" y="1365" type="line"/>
      <point x="1174" y="1520" type="line"/>
      <point x="853" y="1520" type="line"/>
      <point x="853" y="1365" type="line"/>
      <point x="539" y="1365" type="line"/>
      <point x="539" y="1164" type="line"/>
      <point x="853" y="1164" type="line"/>
      <point x="853" y="1116" type="line" smooth="yes"/>
      <point x="853" y="1022"/>
      <point x="870" y="921"/>
      <point x="877" y="888" type="curve"/>
      <point x="868" y="888" type="line"/>
      <point x="804" y="978"/>
      <point x="707" y="1048"/>
      <point x="543" y="1048" type="curve" smooth="yes"/>
      <point x="283" y="1048"/>
      <point x="100" y="876"/>
      <point x="100" y="512" type="curve" smooth="yes"/>
      <point x="100" y="164"/>
      <point x="272" y="-20" name=".hr02"/>
    </contour>
    <contour>
      <point x="658" y="230" type="curve" smooth="yes"/>
      <point x="515" y="230"/>
      <point x="451" y="348"/>
      <point x="451" y="508" type="curve" smooth="yes"/>
      <point x="451" y="704"/>
      <point x="525" y="794"/>
      <point x="652" y="794" type="curve" smooth="yes"/>
      <point x="806" y="794"/>
      <point x="875" y="694"/>
      <point x="875" y="510" type="curve" smooth="yes"/>
      <point x="875" y="483" type="line" smooth="yes"/>
      <point x="875" y="314"/>
      <point x="817" y="230"/>
    </contour>
  </outline>
</glyph>
<glyph name="Eogonek" format="2">
  <advance width="1230"/>
  <unicode hex="0118"/>
  <anchor x="663" y="-460" name="bottom"/>
  <anchor x="662" y="1428" name="top"/>
  <outline>
    <contour>
      <point x="1120" y="239" type="line"/>
      <point x="503" y="239" type="line"/>
      <point x="503" y="625" type="line"/>
      <point x="1081" y="625" type="line"/>
      <point x="1081" y="861" type="line"/>
      <point x="503" y="861" type="line"/>
      <point x="503" y="1192" type="line"/>
      <point x="1120" y="1192" type="line"/>
      <point x="1120" y="1428" type="line"/>
      <point x="184" y="1428" type="line"/>
      <point x="184" y="0" type="line"/>
      <point x="1120" y="0" type="line"/>
    </contour>
    <contour>
      <point x="902" y="-212" type="curve" smooth="yes"/>
      <point x="902" y="-141"/>
      <point x="951" y="-86"/>
      <point x="1054" y="0" type="curve"/>
      <point x="914" y="41" type="line"/>
      <point x="769" y="-48"/>
      <point x="681" y="-151"/>
      <point x="681" y="-253" type="curve" smooth="yes"/>
      <point x="681" y="-382"/>
      <point x="783" y="-460"/>
      <point x="950" y="-460" type="curve" smooth="yes"/>
      <point x="1020" y="-460"/>
      <point x="1071" y="-450"/>
      <point x="1117" y="-438" type="curve"/>
      <point x="1117" y="-272" type="line"/>
      <point x="1089" y="-280"/>
      <point x="1041" y="-289"/>
      <point x="996" y="-289" type="curve" smooth="yes"/>
      <point x="938" y="-289"/>
      <point x="902" y="-266"/>
    </contour>
  </outline>
</glyph>
<glyph name="eogonek" format="2">
  <advance width="1200"/>
  <unicode hex="0119"/>
  <anchor x="643" y="-466" name="bottom"/>
  <anchor x="601" y="1095" name="top"/>
  <outline>
    <contour>
      <point x="852" y="-198" type="curve" smooth="yes"/>
      <point x="852" y="-132"/>
      <point x="879" y="-76"/>
      <point x="1036" y="58" type="curve"/>
      <point x="848" y="44" type="line"/>
      <point x="699" y="-55"/>
      <point x="637" y="-155"/>
      <point x="637" y="-253" type="curve" smooth="yes"/>
      <point x="637" y="-386"/>
      <point x="739" y="-466"/>
      <point x="884" y="-466" type="curve" smooth="yes"/>
      <point x="949" y="-466"/>
      <point x="996" y="-456"/>
      <point x="1037" y="-443" type="curve"/>
      <point x="1037" y="-262" type="line"/>
      <point x="1012" y="-271"/>
      <point x="973" y="-280"/>
      <point x="934" y="-280" type="curve" smooth="yes"/>
      <point x="887" y="-280"/>
      <point x="852" y="-252"/>
    </contour>
    <contour>
      <point x="613" y="1115" type="curve" smooth="yes"/>
      <point x="307" y="1115"/>
      <point x="100" y="923"/>
      <point x="100" y="540" type="curve" smooth="yes"/>
      <point x="100" y="158"/>
      <point x="332" y="-20"/>
      <point x="649" y="-20" type="curve" smooth="yes"/>
      <point x="825" y="-20"/>
      <point x="933" y="5"/>
      <point x="1036" y="58" type="curve"/>
      <point x="1036" y="292" type="line"/>
      <point x="920" y="238"/>
      <point x="818" y="212"/>
      <point x="685" y="212" type="curve" smooth="yes"/>
      <point x="519" y="212"/>
      <point x="431" y="310"/>
      <point x="425" y="468" type="curve"/>
      <point x="1100" y="468" type="line"/>
      <point x="1100" y="616" type="line" smooth="yes"/>
      <point x="1100" y="939"/>
      <point x="914" y="1115"/>
    </contour>
    <contour>
      <point x="623" y="894" type="curve" smooth="yes"/>
      <point x="742" y="894"/>
      <point x="802" y="800"/>
      <point x="804" y="674" type="curve"/>
      <point x="432" y="674" type="line"/>
      <point x="444" y="820"/>
      <point x="516" y="894"/>
    </contour>
  </outline>
</glyph>
<glyph name="gcommaaccent" format="2">
  <advance width="1351"/>
  <unicode hex="0123"/>
  <anchor x="631" y="-480" name="bottom"/>
  <anchor x="657" y="1532" name="top"/>
  <outline>
    <contour>
      <point x="547" y="1115" type="curve" smooth="yes"/>
      <point x="276" y="1115"/>
      <point x="100" y="910"/>
      <point x="100" y="546" type="curve" smooth="yes"/>
      <point x="100" y="180"/>
      <point x="274" y="-20"/>
      <point x="544" y="-20" type="curve" smooth="yes"/>
      <point x="704" y="-20"/>
      <point x="809" y="46"/>
      <point x="873" y="141" type="curve"/>
      <point x="885" y="141" type="line"/>
      <point x="879" y="97"/>
      <point x="875" y="38"/>
      <point x="875" y="5" type="curve" smooth="yes"/>
      <point x="875" y="-22" type="line" smooth="yes"/>
      <point x="875" y="-156"/>
      <point x="778" y="-232"/>
      <point x="600" y="-232" type="curve" smooth="yes"/>
      <point x="423" y="-232"/>
      <point x="298" y="-204"/>
      <point x="168" y="-148" type="curve"/>
      <point x="168" y="-414" type="line"/>
      <point x="292" y="-462"/>
      <point x="429" y="-480"/>
      <point x="610" y="-480" type="curve" smooth="yes"/>
      <point x="1007" y="-480"/>
      <point x="1193" y="-317"/>
      <point x="1193" y="-7" type="curve" smooth="yes"/>
      <point x="1193" y="1095" type="line"/>
      <point x="922" y="1095" type="line"/>
      <point x="894" y="957" type="line"/>
      <point x="885" y="957" type="line"/>
      <point x="813" y="1052"/>
      <point x="706" y="1115"/>
    </contour>
    <contour>
      <point x="650" y="868" type="curve" smooth="yes"/>
      <point x="830" y="868"/>
      <point x="894" y="762"/>
      <point x="894" y="550" type="curve" smooth="yes"/>
      <point x="894" y="506" type="line" smooth="yes"/>
      <point x="894" y="314"/>
      <point x="828" y="226"/>
      <point x="655" y="226" type="curve" smooth="yes"/>
      <point x="503" y="226"/>
      <point x="427" y="326"/>
      <point x="427" y="542" type="curve" smooth="yes"/>
      <point x="427" y="754"/>
      <point x="504" y="868"/>
    </contour>
    <contour>
      <point x="842" y="1532" type="line"/>
      <point x="655" y="1532" type="line"/>
      <point x="582" y="1424"/>
      <point x="524" y="1322"/>
      <point x="480" y="1233" type="curve"/>
      <point x="480" y="1212" type="line"/>
      <point x="777" y="1212" type="line"/>
      <point x="788" y="1298"/>
      <point x="818" y="1427"/>
      <point x="842" y="1506" type="curve"/>
    </contour>
  </outline>
</glyph>
<glyph name="Hbar" format="2">
  <advance width="1722"/>
  <unicode hex="0126"/>
  <anchor x="863" y="0" name="bottom"/>
  <anchor x="863" y="1428" name="top"/>
  <outline>
    <contour>
      <point x="526" y="0" type="line"/>
      <point x="526" y="623" type="line"/>
      <point x="1196" y="623" type="line"/>
      <point x="1196" y="0" type="line"/>
      <point x="1516" y="0" type="line"/>
      <point x="1516" y="1044" type="line"/>
      <point x="1722" y="1044" type="line"/>
      <point x="1722" y="1232" type="line"/>
      <point x="1516" y="1232" type="line"/>
      <point x="1516" y="1428" type="line"/>
      <point x="1196" y="1428" type="line"/>
      <point x="1196" y="1232" type="line"/>
      <point x="526" y="1232" type="line"/>
      <point x="526" y="1428" type="line"/>
      <point x="207" y="1428" type="line"/>
      <point x="207" y="1232" type="line"/>
      <point x="0" y="1232" type="line"/>
      <point x="0" y="1044" type="line"/>
      <point x="207" y="1044" type="line"/>
      <point x="207" y="0" type="line"/>
    </contour>
    <contour>
      <point x="526" y="1044" type="line"/>
      <point x="1196" y="1044" type="line"/>
      <point x="1196" y="863" type="line"/>
      <point x="526" y="863" type="line"/>
    </contour>
  </outline>
</glyph>
<glyph name="hbar" format="2">
  <advance width="1357"/>
  <unicode hex="0127"/>
  <anchor x="671" y="0" name="bottom"/>
  <anchor x="307" y="1520" name="top"/>
  <outline>
    <contour>
      <point x="157" y="1520" type="line"/>
      <point x="157" y="1364" type="line"/>
      <point x="0" y="1364" type="line"/>
      <point x="0" y="1163" type="line"/>
      <point x="157" y="1163" type="line"/>
      <point x="157" y="0" type="line"/>
      <point x="477" y="0" type="line"/>
      <point x="477" y="430" type="line" smooth="yes"/>
      <point x="477" y="660"/>
      <point x="532" y="787"/>
      <point x="710" y="787" type="curve" smooth="yes"/>
      <point x="829" y="787"/>
      <point x="884" y="708"/>
      <point x="884" y="553" type="curve" smooth="yes"/>
      <point x="884" y="0" type="line"/>
      <point x="1204" y="0" type="line"/>
      <point x="1204" y="636" type="line" smooth="yes"/>
      <point x="1204" y="915"/>
      <point x="1043" y="1036"/>
      <point x="804" y="1036" type="curve" smooth="yes"/>
      <point x="664" y="1036"/>
      <point x="554" y="988"/>
      <point x="482" y="877" type="curve"/>
      <point x="463" y="877" type="line"/>
      <point x="469" y="932"/>
      <point x="476" y="1020"/>
      <point x="476" y="1078" type="curve" smooth="yes"/>
      <point x="476" y="1163" type="line"/>
      <point x="780" y="1163" type="line"/>
      <point x="780" y="1364" type="line"/>
      <point x="477" y="1364" type="line"/>
      <point x="477" y="1520" type="line"/>
    </contour>
  </outline>
</glyph>
<glyph name="Iogonek" format="2">
  <advance width="679"/>
  <unicode hex="012E"/>
  <anchor x="338" y="-460" name="bottom"/>
  <anchor x="338" y="1428" name="top"/>
  <outline>
    <contour>
      <point x="625" y="165" type="line"/>
      <point x="498" y="218" type="line"/>
      <point x="498" y="1211" type="line"/>
      <point x="625" y="1264" type="line"/>
      <point x="625" y="1428" type="line"/>
      <point x="51" y="1428" type="line"/>
      <point x="51" y="1264" type="line"/>
      <point x="178" y="1211" type="line"/>
      <point x="178" y="218" type="line"/>
      <point x="51" y="165" type="line"/>
      <point x="51" y="0" type="line"/>
      <point x="625" y="0" type="line"/>
    </contour>
    <contour>
      <point x="508" y="-212" type="curve" smooth="yes"/>
      <point x="508" y="-141"/>
      <point x="535" y="-86"/>
      <point x="598" y="0" type="curve"/>
      <point x="481" y="41" type="line"/>
      <point x="333" y="-48"/>
      <point x="311" y="-151"/>
      <point x="311" y="-253" type="curve" smooth="yes"/>
      <point x="311" y="-382"/>
      <point x="406" y="-460"/>
      <point x="515" y="-460" type="curve" smooth="yes"/>
      <point x="570" y="-460"/>
      <point x="612" y="-450"/>
      <point x="644" y="-438" type="curve"/>
      <point x="644" y="-272" type="line"/>
      <point x="623" y="-280"/>
      <point x="580" y="-289"/>
      <point x="558" y="-289" type="curve" smooth="yes"/>
      <point x="529" y="-289"/>
      <point x="508" y="-266"/>
    </contour>
  </outline>
</glyph>
<glyph name="iogonek" format="2">
  <advance width="666"/>
  <unicode hex="012F"/>
  <anchor x="350" y="-466" name="bottom"/>
  <anchor x="345" y="1526" name="top"/>
  <outline>
    <contour>
      <point x="184" y="1095" type="line"/>
      <point x="184" y="0" type="line"/>
      <point x="504" y="0" type="line"/>
      <point x="504" y="1095" type="line"/>
    </contour>
    <contour>
      <point x="346" y="1526" type="curve" smooth="yes"/>
      <point x="250" y="1526"/>
      <point x="173" y="1492"/>
      <point x="173" y="1376" type="curve" smooth="yes"/>
      <point x="173" y="1262"/>
      <point x="250" y="1226"/>
      <point x="346" y="1226" type="curve" smooth="yes"/>
      <point x="439" y="1226"/>
      <point x="520" y="1262"/>
      <point x="520" y="1376" type="curve" smooth="yes"/>
      <point x="520" y="1492"/>
      <point x="439" y="1526"/>
    </contour>
    <contour>
      <point x="338" y="-206" type="curve" smooth="yes"/>
      <point x="338" y="-139"/>
      <point x="382" y="-86"/>
      <point x="474" y="0" type="curve"/>
      <point x="339" y="44" type="line"/>
      <point x="191" y="-55"/>
      <point x="120" y="-155"/>
      <point x="120" y="-253" type="curve" smooth="yes"/>
      <point x="120" y="-386"/>
      <point x="222" y="-466"/>
      <point x="375" y="-466" type="curve" smooth="yes"/>
      <point x="442" y="-466"/>
      <point x="491" y="-456"/>
      <point x="534" y="-443" type="curve"/>
      <point x="534" y="-262" type="line"/>
      <point x="507" y="-271"/>
      <point x="461" y="-280"/>
      <point x="422" y="-280" type="curve" smooth="yes"/>
      <point x="371" y="-280"/>
      <point x="338" y="-258"/>
    </contour>
  </outline>
</glyph>
<glyph name="idotless" format="2">
  <advance width="666"/>
  <unicode hex="0131"/>
  <anchor x="342" y="0" name="bottom"/>
  <anchor x="333" y="1095" name="top"/>
  <outline>
    <contour>
      <point x="493" y="1095" type="line"/>
      <point x="173" y="1095" type="line"/>
      <point x="173" y="0" type="line"/>
      <point x="493" y="0" type="line"/>
    </contour>
  </outline>
</glyph>
<glyph name="ij" format="2">
  <advance width="1342"/>
  <unicode hex="0133"/>
  <anchor x="757" y="-480" name="bottom"/>
  <anchor x="1021" y="1526" name="top"/>
  <outline>
    <contour>
      <point x="163" y="1095" type="line"/>
      <point x="163" y="0" type="line"/>
      <point x="483" y="0" type="line"/>
      <point x="483" y="1095" type="line"/>
    </contour>
    <contour>
      <point x="325" y="1526" type="curve" smooth="yes"/>
      <point x="227" y="1526"/>
      <point x="148" y="1492"/>
      <point x="148" y="1376" type="curve" smooth="yes"/>
      <point x="148" y="1262"/>
      <point x="227" y="1226"/>
      <point x="325" y="1226" type="curve" smooth="yes"/>
      <point x="420" y="1226"/>
      <point x="502" y="1262"/>
      <point x="502" y="1376" type="curve" smooth="yes"/>
      <point x="502" y="1492"/>
      <point x="420" y="1526"/>
    </contour>
    <contour>
      <point x="757" y="-480" type="curve" smooth="yes"/>
      <point x="1061" y="-480"/>
      <point x="1181" y="-313"/>
      <point x="1181" y="-113" type="curve" smooth="yes"/>
      <point x="1181" y="1095" type="line"/>
      <point x="861" y="1095" type="line"/>
      <point x="861" y="-62" type="line" smooth="yes"/>
      <point x="861" y="-194"/>
      <point x="789" y="-228"/>
      <point x="696" y="-228" type="curve" smooth="yes"/>
      <point x="637" y="-228"/>
      <point x="592" y="-222"/>
      <point x="542" y="-210" type="curve"/>
      <point x="542" y="-456" type="line"/>
      <point x="594" y="-470"/>
      <point x="677" y="-480"/>
    </contour>
    <contour>
      <point x="845" y="1376" type="curve" smooth="yes"/>
      <point x="845" y="1262"/>
      <point x="924" y="1226"/>
      <point x="1022" y="1226" type="curve" smooth="yes"/>
      <point x="1117" y="1226"/>
      <point x="1198" y="1262"/>
      <point x="1198" y="1376" type="curve" smooth="yes"/>
      <point x="1198" y="1492"/>
      <point x="1117" y="1526"/>
      <point x="1022" y="1526" type="curve" smooth="yes"/>
      <point x="924" y="1526"/>
      <point x="845" y="1492"/>
    </contour>
  </outline>
</glyph>
<glyph name="Lcaron" format="2">
  <advance width="1191"/>
  <unicode hex="013D"/>
  <anchor x="661" y="0" name="bottom"/>
  <anchor x="337" y="1428" name="top"/>
  <outline>
    <contour>
      <point x="1138" y="0" type="line"/>
      <point x="1138" y="239" type="line"/>
      <point x="503" y="239" type="line"/>
      <point x="503" y="1428" type="line"/>
      <point x="184" y="1428" type="line"/>
      <point x="184" y="0" type="line"/>
    </contour>
    <contour>
      <point x="1174" y="1428" type="line"/>
      <point x="882" y="1428" type="line"/>
      <point x="871" y="1342"/>
      <point x="841" y="1212"/>
      <point x="817" y="1135" type="curve"/>
      <point x="817" y="1108" type="line"/>
      <point x="1000" y="1108" type="line"/>
      <point x="1073" y="1212"/>
      <point x="1132" y="1323"/>
      <point x="1174" y="1408" type="curve"/>
    </contour>
  </outline>
</glyph>
<glyph name="lcaron" format="2">
  <advance width="962"/>
  <unicode hex="013E"/>
  <anchor x="233" y="0" name="bottom"/>
  <anchor x="233" y="1520" name="top"/>
  <outline>
    <contour>
      <point x="393" y="1520" type="line"/>
      <point x="73" y="1520" type="line"/>
      <point x="73" y="0" type="line"/>
      <point x="393" y="0" type="line"/>
    </contour>
    <contour>
      <point x="822" y="1520" type="line"/>
      <point x="527" y="1520" type="line"/>
      <point x="516" y="1434"/>
      <point x="488" y="1304"/>
      <point x="466" y="1227" type="curve"/>
      <point x="466" y="1200" type="line"/>
      <point x="653" y="1200" type="line"/>
      <point x="725" y="1308"/>
      <point x="778" y="1410"/>
      <point x="822" y="1500" type="curve"/>
    </contour>
  </outline>
</glyph>
<glyph name="ldot" format="2">
  <advance width="962"/>
  <unicode hex="0140"/>
  <anchor x="378" y="0" name="bottom"/>
  <anchor x="378" y="1520" name="top"/>
  <outline>
    <contour>
      <point x="538" y="1520" type="line"/>
      <point x="218" y="1520" type="line"/>
      <point x="218" y="0" type="line"/>
      <point x="538" y="0" type="line"/>
    </contour>
    <contour>
      <point x="824" y="909" type="curve" smooth="yes"/>
      <point x="723" y="909"/>
      <point x="642" y="875"/>
      <point x="642" y="758" type="curve" smooth="yes"/>
      <point x="642" y="645"/>
      <point x="723" y="609"/>
      <point x="824" y="609" type="curve" smooth="yes"/>
      <point x="921" y="609"/>
      <point x="1005" y="645"/>
      <point x="1005" y="758" type="curve" smooth="yes"/>
      <point x="1005" y="875"/>
      <point x="921" y="909"/>
    </contour>
  </outline>
</glyph>
<glyph name="Lslash" format="2">
  <advance width="1203"/>
  <unicode hex="0141"/>
  <anchor x="616" y="0" name="bottom"/>
  <anchor x="305" y="1428" name="top"/>
  <outline>
    <contour>
      <point x="1115" y="0" type="line"/>
      <point x="1115" y="239" type="line"/>
      <point x="504" y="239" type="line"/>
      <point x="504" y="657" type="line"/>
      <point x="871" y="866" type="line"/>
      <point x="750" y="1050" type="line"/>
      <point x="504" y="906" type="line"/>
      <point x="504" y="1428" type="line"/>
      <point x="185" y="1428" type="line"/>
      <point x="185" y="731" type="line"/>
      <point x="-36" y="609" type="line"/>
      <point x="81" y="426" type="line"/>
      <point x="185" y="482" type="line"/>
      <point x="185" y="0" type="line"/>
    </contour>
  </outline>
</glyph>
<glyph name="lslash" format="2">
  <advance width="728"/>
  <unicode hex="0142"/>
  <anchor x="365" y="0" name="bottom"/>
  <anchor x="365" y="1520" name="top"/>
  <outline>
    <contour>
      <point x="521" y="0" type="line"/>
      <point x="521" y="644" type="line"/>
      <point x="764" y="790" type="line"/>
      <point x="643" y="990" type="line"/>
      <point x="521" y="916" type="line"/>
      <point x="521" y="1520" type="line"/>
      <point x="201" y="1520" type="line"/>
      <point x="201" y="724" type="line"/>
      <point x="-36" y="588" type="line"/>
      <point x="82" y="388" type="line"/>
      <point x="201" y="453" type="line"/>
      <point x="201" y="0" type="line"/>
    </contour>
  </outline>
</glyph>
<glyph name="napostrophe" format="2">
  <advance width="1592"/>
  <unicode hex="0149"/>
  <anchor x="922" y="0" name="bottom"/>
  <anchor x="922" y="1095" name="top"/>
  <outline>
    <contour>
      <point x="1050" y="1115" type="curve" smooth="yes"/>
      <point x="900" y="1115"/>
      <point x="781" y="1056"/>
      <point x="711" y="949" type="curve"/>
      <point x="698" y="949" type="line"/>
      <point x="654" y="1095" type="line"/>
      <point x="410" y="1095" type="line"/>
      <point x="410" y="0" type="line"/>
      <point x="730" y="0" type="line"/>
      <point x="730" y="508" type="line" smooth="yes"/>
      <point x="730" y="738"/>
      <point x="779" y="866"/>
      <point x="952" y="866" type="curve" smooth="yes"/>
      <point x="1069" y="866"/>
      <point x="1120" y="786"/>
      <point x="1120" y="632" type="curve" smooth="yes"/>
      <point x="1120" y="0" type="line"/>
      <point x="1439" y="0" type="line"/>
      <point x="1439" y="713" type="line" smooth="yes"/>
      <point x="1439" y="994"/>
      <point x="1287" y="1115"/>
    </contour>
    <contour>
      <point x="388" y="1427" type="line"/>
      <point x="98" y="1427" type="line"/>
      <point x="80" y="1274"/>
      <point x="39" y="1055"/>
      <point x="0" y="884" type="curve"/>
      <point x="230" y="884" type="line"/>
      <point x="296" y="1030"/>
      <point x="366" y="1262"/>
      <point x="402" y="1405" type="curve"/>
    </contour>
  </outline>
</glyph>
<glyph name="Eng" format="2">
  <advance width="1574"/>
  <unicode hex="014A"/>
  <anchor x="787" y="-430" name="bottom"/>
  <anchor x="787" y="1428" name="top"/>
  <outline>
    <contour>
      <point x="947" y="-430" type="curve" smooth="yes"/>
      <point x="1209" y="-430"/>
      <point x="1390" y="-286"/>
      <point x="1390" y="2" type="curve" smooth="yes"/>
      <point x="1390" y="1428" type="line"/>
      <point x="1106" y="1428" type="line"/>
      <point x="1106" y="874" type="line" smooth="yes"/>
      <point x="1106" y="734"/>
      <point x="1114" y="549"/>
      <point x="1120" y="468" type="curve"/>
      <point x="1112" y="468" type="line"/>
      <point x="566" y="1428" type="line"/>
      <point x="184" y="1428" type="line"/>
      <point x="184" y="0" type="line"/>
      <point x="467" y="0" type="line"/>
      <point x="467" y="684" type="line" smooth="yes"/>
      <point x="467" y="830"/>
      <point x="458" y="1015"/>
      <point x="451" y="1093" type="curve"/>
      <point x="459" y="1093" type="line"/>
      <point x="1120" y="0" type="line"/>
      <point x="1113" y="-144"/>
      <point x="1041" y="-199"/>
      <point x="909" y="-199" type="curve" smooth="yes"/>
      <point x="850" y="-199"/>
      <point x="803" y="-189"/>
      <point x="758" y="-179" type="curve"/>
      <point x="758" y="-407" type="line"/>
      <point x="801" y="-420"/>
      <point x="864" y="-430"/>
    </contour>
  </outline>
</glyph>
<glyph name="eng" format="2">
  <advance width="1345"/>
  <unicode hex="014B"/>
  <anchor x="672" y="-480" name="bottom"/>
  <anchor x="672" y="1095" name="top"/>
  <anchor x="1249" y="1095" name="topright"/>
  <outline>
    <contour>
      <point x="823" y="-480" type="curve" smooth="yes"/>
      <point x="1090" y="-480"/>
      <point x="1192" y="-313"/>
      <point x="1192" y="-113" type="curve" smooth="yes"/>
      <point x="1192" y="714" type="line" smooth="yes"/>
      <point x="1192" y="994"/>
      <point x="1032" y="1115"/>
      <point x="801" y="1115" type="curve" smooth="yes"/>
      <point x="666" y="1115"/>
      <point x="535" y="1068"/>
      <point x="465" y="956" type="curve"/>
      <point x="445" y="956" type="line"/>
      <point x="403" y="1095" type="line"/>
      <point x="158" y="1095" type="line"/>
      <point x="158" y="0" type="line"/>
      <point x="478" y="0" type="line"/>
      <point x="478" y="509" type="line" smooth="yes"/>
      <point x="478" y="739"/>
      <point x="529" y="866"/>
      <point x="704" y="866" type="curve" smooth="yes"/>
      <point x="814" y="866"/>
      <point x="871" y="795"/>
      <point x="871" y="656" type="curve" smooth="yes"/>
      <point x="871" y="-62" type="line" smooth="yes"/>
      <point x="871" y="-194"/>
      <point x="816" y="-228"/>
      <point x="752" y="-228" type="curve" smooth="yes"/>
      <point x="708" y="-228"/>
      <point x="678" y="-222"/>
      <point x="635" y="-210" type="curve"/>
      <point x="635" y="-456" type="line"/>
      <point x="682" y="-470"/>
      <point x="761" y="-480"/>
    </contour>
  </outline>
</glyph>
<glyph name="OE" format="2">
  <advance width="2169"/>
  <unicode hex="0152"/>
  <anchor x="1087" y="0" name="bottom"/>
  <anchor x="1087" y="1428" name="top"/>
  <outline>
    <contour>
      <point x="882" y="1450" type="curve" smooth="yes"/>
      <point x="370" y="1450"/>
      <point x="122" y="1160"/>
      <point x="122" y="718" type="curve" smooth="yes"/>
      <point x="122" y="274"/>
      <point x="375" y="-20"/>
      <point x="887" y="-20" type="curve" smooth="yes"/>
      <point x="966" y="-20"/>
      <point x="1068" y="-12"/>
      <point x="1136" y="0" type="curve" name=".hr01"/>
      <point x="2054" y="0" type="line"/>
      <point x="2054" y="239" type="line"/>
      <point x="1446" y="239" type="line"/>
      <point x="1446" y="625" type="line"/>
      <point x="2011" y="625" type="line"/>
      <point x="2011" y="861" type="line"/>
      <point x="1446" y="861" type="line"/>
      <point x="1446" y="1192" type="line"/>
      <point x="2054" y="1192" type="line"/>
      <point x="2054" y="1428" type="line"/>
      <point x="1133" y="1428" type="line"/>
      <point x="1065" y="1442"/>
      <point x="963" y="1450" name=".hr02"/>
    </contour>
    <contour>
      <point x="893" y="1210" type="curve" smooth="yes"/>
      <point x="983" y="1210"/>
      <point x="1070" y="1196"/>
      <point x="1128" y="1170" type="curve"/>
      <point x="1128" y="261" type="line"/>
      <point x="1069" y="236"/>
      <point x="981" y="223"/>
      <point x="891" y="223" type="curve" smooth="yes"/>
      <point x="594" y="223"/>
      <point x="457" y="409"/>
      <point x="457" y="716" type="curve" smooth="yes"/>
      <point x="457" y="1024"/>
      <point x="594" y="1210"/>
    </contour>
  </outline>
</glyph>
<glyph name="oe" format="2">
  <advance width="1966"/>
  <unicode hex="0153"/>
  <anchor x="982" y="0" name="bottom"/>
  <anchor x="982" y="1095" name="top"/>
  <outline>
    <contour>
      <point x="1399" y="1114" type="curve" smooth="yes"/>
      <point x="1227" y="1114"/>
      <point x="1103" y="1058"/>
      <point x="1013" y="958" type="curve"/>
      <point x="921" y="1061"/>
      <point x="791" y="1114"/>
      <point x="639" y="1114" type="curve" smooth="yes"/>
      <point x="303" y="1114"/>
      <point x="100" y="912"/>
      <point x="100" y="550" type="curve" smooth="yes"/>
      <point x="100" y="184"/>
      <point x="323" y="-20"/>
      <point x="633" y="-20" type="curve" smooth="yes"/>
      <point x="801" y="-20"/>
      <point x="936" y="36"/>
      <point x="1029" y="144" type="curve"/>
      <point x="1122" y="33"/>
      <point x="1258" y="-20"/>
      <point x="1415" y="-20" type="curve" smooth="yes"/>
      <point x="1590" y="-20"/>
      <point x="1695" y="5"/>
      <point x="1803" y="58" type="curve"/>
      <point x="1803" y="292" type="line"/>
      <point x="1683" y="234"/>
      <point x="1565" y="212"/>
      <point x="1450" y="212" type="curve" smooth="yes"/>
      <point x="1272" y="212"/>
      <point x="1179" y="310"/>
      <point x="1173" y="468" type="curve"/>
      <point x="1866" y="468" type="line"/>
      <point x="1866" y="615" type="line" smooth="yes"/>
      <point x="1866" y="939"/>
      <point x="1677" y="1114"/>
    </contour>
    <contour>
      <point x="634" y="876" type="curve" smooth="yes"/>
      <point x="782" y="876"/>
      <point x="842" y="766"/>
      <point x="842" y="548" type="curve" smooth="yes"/>
      <point x="842" y="332"/>
      <point x="782" y="218"/>
      <point x="636" y="218" type="curve" smooth="yes"/>
      <point x="487" y="218"/>
      <point x="429" y="334"/>
      <point x="429" y="550" type="curve" smooth="yes"/>
      <point x="429" y="765"/>
      <point x="487" y="876"/>
    </contour>
    <contour>
      <point x="1383" y="893" type="curve" smooth="yes"/>
      <point x="1508" y="893"/>
      <point x="1570" y="800"/>
      <point x="1571" y="674" type="curve"/>
      <point x="1179" y="674" type="line"/>
      <point x="1191" y="827"/>
      <point x="1267" y="893"/>
    </contour>
  </outline>
</glyph>
<glyph name="Tcedilla" format="2">
  <advance width="1413"/>
  <unicode hex="0162"/>
  <anchor x="589" y="-480" name="bottom"/>
  <anchor x="589" y="1428" name="top"/>
  <outline>
    <contour>
      <point x="738" y="1228" type="line"/>
      <point x="1127" y="1228" type="line"/>
      <point x="1127" y="1428" type="line"/>
      <point x="50" y="1428" type="line"/>
      <point x="50" y="1228" type="line"/>
      <point x="439" y="1228" type="line"/>
      <point x="439" y="0" type="line"/>
      <point x="738" y="0" type="line"/>
    </contour>
    <contour>
      <point x="807" y="-269" type="curve" smooth="yes"/>
      <point x="807" y="-160"/>
      <point x="714" y="-114"/>
      <point x="628" y="-93" type="curve"/>
      <point x="660" y="0" type="line"/>
      <point x="501" y="0" type="line"/>
      <point x="430" y="-162" type="line"/>
      <point x="532" y="-177"/>
      <point x="589" y="-202"/>
      <point x="589" y="-266" type="curve" smooth="yes"/>
      <point x="589" y="-324"/>
      <point x="550" y="-346"/>
      <point x="480" y="-346" type="curve" smooth="yes"/>
      <point x="439" y="-346"/>
      <point x="396" y="-341"/>
      <point x="361" y="-332" type="curve"/>
      <point x="361" y="-463" type="line"/>
      <point x="398" y="-472"/>
      <point x="458" y="-480"/>
      <point x="528" y="-480" type="curve" smooth="yes"/>
      <point x="704" y="-480"/>
      <point x="807" y="-401"/>
    </contour>
  </outline>
</glyph>
<glyph name="tcedilla" format="2">
  <advance width="830"/>
  <unicode hex="0163"/>
  <anchor x="496" y="-480" name="bottom"/>
  <anchor x="394" y="1323" name="top"/>
  <outline>
    <contour>
      <point x="623" y="185" type="curve" smooth="yes"/>
      <point x="545" y="185"/>
      <point x="494" y="238"/>
      <point x="494" y="344" type="curve" smooth="yes"/>
      <point x="494" y="886" type="line"/>
      <point x="781" y="886" type="line"/>
      <point x="781" y="1086" type="line"/>
      <point x="494" y="1086" type="line"/>
      <point x="494" y="1323" type="line"/>
      <point x="302" y="1323" type="line"/>
      <point x="215" y="1093" type="line"/>
      <point x="52" y="1001" type="line"/>
      <point x="52" y="886" type="line"/>
      <point x="193" y="886" type="line"/>
      <point x="193" y="331" type="line" smooth="yes"/>
      <point x="193" y="54"/>
      <point x="339" y="-24"/>
      <point x="536" y="-24" type="curve" smooth="yes"/>
      <point x="648" y="-24"/>
      <point x="728" y="-5"/>
      <point x="794" y="21" type="curve"/>
      <point x="794" y="214" type="line"/>
      <point x="743" y="198"/>
      <point x="685" y="185"/>
    </contour>
    <contour>
      <point x="715" y="-268" type="curve" smooth="yes"/>
      <point x="715" y="-156"/>
      <point x="621" y="-111"/>
      <point x="535" y="-91" type="curve"/>
      <point x="566" y="-4" type="line"/>
      <point x="406" y="-4" type="line"/>
      <point x="335" y="-161" type="line"/>
      <point x="437" y="-176"/>
      <point x="493" y="-202"/>
      <point x="493" y="-262" type="curve" smooth="yes"/>
      <point x="493" y="-315"/>
      <point x="454" y="-337"/>
      <point x="386" y="-337" type="curve" smooth="yes"/>
      <point x="344" y="-337"/>
      <point x="302" y="-331"/>
      <point x="266" y="-322" type="curve"/>
      <point x="266" y="-461" type="line"/>
      <point x="303" y="-472"/>
      <point x="364" y="-480"/>
      <point x="435" y="-480" type="curve" smooth="yes"/>
      <point x="611" y="-480"/>
      <point x="715" y="-400"/>
    </contour>
  </outline>
</glyph>
<glyph name="tcaron" format="2">
  <advance width="830"/>
  <unicode hex="0165"/>
  <anchor x="458" y="0" name="bottom"/>
  <anchor x="375" y="1520" name="top"/>
  <outline>
    <contour>
      <point x="585" y="230" type="curve" smooth="yes"/>
      <point x="522" y="230"/>
      <point x="485" y="274"/>
      <point x="485" y="366" type="curve" smooth="yes"/>
      <point x="485" y="859" type="line"/>
      <point x="732" y="859" type="line"/>
      <point x="732" y="1095" type="line"/>
      <point x="485" y="1095" type="line"/>
      <point x="485" y="1325" type="line"/>
      <point x="277" y="1325" type="line"/>
      <point x="192" y="1094" type="line"/>
      <point x="42" y="991" type="line"/>
      <point x="42" y="859" type="line"/>
      <point x="163" y="859" type="line"/>
      <point x="163" y="347" type="line" smooth="yes"/>
      <point x="163" y="60"/>
      <point x="294" y="-20"/>
      <point x="481" y="-20" type="curve" smooth="yes"/>
      <point x="602" y="-20"/>
      <point x="675" y="2"/>
      <point x="745" y="32" type="curve"/>
      <point x="745" y="262" type="line"/>
      <point x="693" y="244"/>
      <point x="643" y="230"/>
    </contour>
    <contour>
      <point x="1092" y="1520" type="line"/>
      <point x="801" y="1520" type="line"/>
      <point x="792" y="1434"/>
      <point x="769" y="1304"/>
      <point x="750" y="1227" type="curve"/>
      <point x="750" y="1200" type="line"/>
      <point x="940" y="1200" type="line"/>
      <point x="1005" y="1308"/>
      <point x="1046" y="1410"/>
      <point x="1092" y="1500" type="curve"/>
    </contour>
  </outline>
</glyph>
<glyph name="tbar" format="2">
  <advance width="829"/>
  <unicode hex="0167"/>
  <anchor x="442" y="0" name="bottom"/>
  <anchor x="375" y="1325" name="top"/>
  <outline>
    <contour>
      <point x="666" y="476" type="line"/>
      <point x="666" y="679" type="line"/>
      <point x="79" y="679" type="line"/>
      <point x="79" y="476" type="line"/>
    </contour>
    <contour>
      <point x="561" y="230" type="curve" smooth="yes"/>
      <point x="513" y="230"/>
      <point x="487" y="274"/>
      <point x="487" y="366" type="curve" smooth="yes"/>
      <point x="487" y="859" type="line"/>
      <point x="694" y="859" type="line"/>
      <point x="694" y="1095" type="line"/>
      <point x="487" y="1095" type="line"/>
      <point x="487" y="1325" type="line"/>
      <point x="276" y="1325" type="line"/>
      <point x="197" y="1094" type="line"/>
      <point x="62" y="991" type="line"/>
      <point x="62" y="859" type="line"/>
      <point x="165" y="859" type="line"/>
      <point x="165" y="347" type="line" smooth="yes"/>
      <point x="165" y="60"/>
      <point x="278" y="-20"/>
      <point x="452" y="-20" type="curve" smooth="yes"/>
      <point x="573" y="-20"/>
      <point x="637" y="2"/>
      <point x="707" y="32" type="curve"/>
      <point x="707" y="262" type="line"/>
      <point x="657" y="244"/>
      <point x="615" y="230"/>
    </contour>
  </outline>
</glyph>
<glyph name="Uogonek" format="2">
  <advance width="1508"/>
  <unicode hex="0172"/>
  <anchor x="751" y="-460" name="bottom"/>
  <anchor x="755" y="1428" name="top"/>
  <outline>
    <contour>
      <point x="1006" y="-194" type="curve" smooth="yes"/>
      <point x="1006" y="-89"/>
      <point x="1074" y="-4"/>
      <point x="1193" y="136" type="curve"/>
      <point x="1007" y="100" type="line"/>
      <point x="860" y="2"/>
      <point x="794" y="-122"/>
      <point x="794" y="-235" type="curve" smooth="yes"/>
      <point x="794" y="-382"/>
      <point x="893" y="-460"/>
      <point x="1039" y="-460" type="curve" smooth="yes"/>
      <point x="1103" y="-460"/>
      <point x="1151" y="-450"/>
      <point x="1192" y="-438" type="curve"/>
      <point x="1192" y="-272" type="line"/>
      <point x="1166" y="-280"/>
      <point x="1120" y="-289"/>
      <point x="1084" y="-289" type="curve" smooth="yes"/>
      <point x="1036" y="-289"/>
      <point x="1006" y="-266"/>
    </contour>
    <contour>
      <point x="1333" y="1428" type="line"/>
      <point x="1015" y="1428" type="line"/>
      <point x="1015" y="550" type="line" smooth="yes"/>
      <point x="1015" y="340"/>
      <point x="938" y="223"/>
      <point x="756" y="223" type="curve" smooth="yes"/>
      <point x="583" y="223"/>
      <point x="495" y="332"/>
      <point x="495" y="548" type="curve" smooth="yes"/>
      <point x="495" y="1428" type="line"/>
      <point x="175" y="1428" type="line"/>
      <point x="175" y="535" type="line" smooth="yes"/>
      <point x="175" y="190"/>
      <point x="375" y="-20"/>
      <point x="749" y="-20" type="curve" smooth="yes"/>
      <point x="1141" y="-20"/>
      <point x="1333" y="208"/>
      <point x="1333" y="538" type="curve" smooth="yes"/>
    </contour>
  </outline>
</glyph>
<glyph name="uogonek" format="2">
  <advance width="1345"/>
  <unicode hex="0173"/>
  <anchor x="656" y="-466" name="bottom"/>
  <anchor x="674" y="1095" name="top"/>
  <outline>
    <contour>
      <point x="867" y="1095" type="line"/>
      <point x="867" y="586" type="line" smooth="yes"/>
      <point x="867" y="356"/>
      <point x="817" y="230"/>
      <point x="642" y="230" type="curve" smooth="yes"/>
      <point x="527" y="230"/>
      <point x="478" y="309"/>
      <point x="478" y="462" type="curve" smooth="yes"/>
      <point x="478" y="1095" type="line"/>
      <point x="156" y="1095" type="line"/>
      <point x="156" y="381" type="line" smooth="yes"/>
      <point x="156" y="101"/>
      <point x="314" y="-20"/>
      <point x="545" y="-20" type="curve" smooth="yes"/>
      <point x="683" y="-20"/>
      <point x="813" y="28"/>
      <point x="883" y="140" type="curve"/>
      <point x="901" y="140" type="line"/>
      <point x="942" y="0" type="line" name=".hr01"/>
      <point x="1187" y="0" type="line"/>
      <point x="1187" y="1095" type="line"/>
    </contour>
    <contour>
      <point x="992" y="-206" type="curve" smooth="yes"/>
      <point x="992" y="-139"/>
      <point x="1033" y="-86"/>
      <point x="1123" y="0" type="curve"/>
      <point x="990" y="44" type="line"/>
      <point x="841" y="-55"/>
      <point x="774" y="-155"/>
      <point x="774" y="-253" type="curve" smooth="yes"/>
      <point x="774" y="-386"/>
      <point x="876" y="-466"/>
      <point x="1026" y="-466" type="curve" smooth="yes"/>
      <point x="1092" y="-466"/>
      <point x="1140" y="-456"/>
      <point x="1183" y="-443" type="curve"/>
      <point x="1183" y="-262" type="line"/>
      <point x="1156" y="-271"/>
      <point x="1109" y="-280"/>
      <point x="1072" y="-280" type="curve" smooth="yes"/>
      <point x="1023" y="-280"/>
      <point x="992" y="-258"/>
    </contour>
  </outline>
</glyph>
<glyph name="longs" format="2">
  <advance width="789"/>
  <unicode hex="017F"/>
  <anchor x="397" y="0" name="bottom"/>
  <anchor x="473" y="1530" name="top"/>
  <outline>
    <contour>
      <point x="613" y="1299" type="curve" smooth="yes"/>
      <point x="672" y="1299"/>
      <point x="724" y="1282"/>
      <point x="771" y="1268" type="curve"/>
      <point x="837" y="1483" type="line"/>
      <point x="773" y="1508"/>
      <point x="680" y="1530"/>
      <point x="558" y="1530" type="curve" smooth="yes"/>
      <point x="315" y="1530"/>
      <point x="158" y="1452"/>
      <point x="158" y="1130" type="curve" smooth="yes"/>
      <point x="158" y="0" type="line"/>
      <point x="478" y="0" type="line"/>
      <point x="478" y="1125" type="line" smooth="yes"/>
      <point x="478" y="1246"/>
      <point x="516" y="1299"/>
    </contour>
  </outline>
</glyph>
<glyph name="bstroke" format="2">
  <advance width="1382"/>
  <unicode hex="0180"/>
  <anchor x="627" y="0" name="bottom"/>
  <anchor x="627" y="1520" name="top"/>
  <outline>
    <contour>
      <point x="752" y="-20" type="curve" smooth="yes"/>
      <point x="993" y="-20"/>
      <point x="1172" y="165"/>
      <point x="1172" y="543" type="curve" smooth="yes"/>
      <point x="1172" y="924"/>
      <point x="996" y="1093"/>
      <point x="758" y="1093" type="curve" smooth="yes"/>
      <point x="596" y="1093"/>
      <point x="502" y="1019"/>
      <point x="450" y="935" type="curve"/>
      <point x="437" y="935" type="line"/>
      <point x="445" y="987"/>
      <point x="450" y="1062"/>
      <point x="450" y="1146" type="curve" smooth="yes"/>
      <point x="450" y="1179" type="line"/>
      <point x="764" y="1179" type="line"/>
      <point x="764" y="1358" type="line"/>
      <point x="450" y="1358" type="line"/>
      <point x="450" y="1520" type="line"/>
      <point x="146" y="1520" type="line"/>
      <point x="146" y="1358" type="line"/>
      <point x="-6" y="1358" type="line"/>
      <point x="-6" y="1179" type="line"/>
      <point x="146" y="1179" type="line"/>
      <point x="146" y="0" type="line" name=".hr01"/>
      <point x="379" y="0" type="line"/>
      <point x="430" y="123" type="line"/>
      <point x="450" y="123" type="line"/>
      <point x="506" y="50"/>
      <point x="586" y="-20" name=".hr02"/>
    </contour>
    <contour>
      <point x="668" y="195" type="curve" smooth="yes"/>
      <point x="499" y="195"/>
      <point x="450" y="319"/>
      <point x="450" y="546" type="curve" smooth="yes"/>
      <point x="450" y="554" type="line" smooth="yes"/>
      <point x="450" y="777"/>
      <point x="526" y="878"/>
      <point x="663" y="878" type="curve" smooth="yes"/>
      <point x="788" y="878"/>
      <point x="861" y="774"/>
      <point x="861" y="546" type="curve" smooth="yes"/>
      <point x="861" y="317"/>
      <point x="788" y="195"/>
    </contour>
  </outline>
</glyph>
<glyph name="Bhook" format="2">
  <advance width="1537"/>
  <unicode hex="0181"/>
  <anchor x="762" y="0" name="bottom"/>
  <anchor x="762" y="1428" name="top"/>
  <outline>
    <contour>
      <point x="931" y="0" type="line" smooth="yes"/>
      <point x="1241" y="0"/>
      <point x="1425" y="157"/>
      <point x="1425" y="412" type="curve" smooth="yes"/>
      <point x="1425" y="641"/>
      <point x="1309" y="720"/>
      <point x="1195" y="748" type="curve"/>
      <point x="1195" y="760" type="line"/>
      <point x="1317" y="785"/>
      <point x="1389" y="905"/>
      <point x="1389" y="1070" type="curve" smooth="yes"/>
      <point x="1389" y="1341"/>
      <point x="1194" y="1428"/>
      <point x="831" y="1428" type="curve" smooth="yes"/>
      <point x="365" y="1428" type="line" smooth="yes"/>
      <point x="98" y="1428"/>
      <point x="7" y="1298"/>
      <point x="7" y="1110" type="curve" smooth="yes"/>
      <point x="7" y="1065"/>
      <point x="21" y="1019"/>
      <point x="32" y="996" type="curve"/>
      <point x="283" y="996" type="line"/>
      <point x="275" y="1015"/>
      <point x="264" y="1050"/>
      <point x="264" y="1095" type="curve" smooth="yes"/>
      <point x="264" y="1147"/>
      <point x="294" y="1188"/>
      <point x="357" y="1188" type="curve" smooth="yes"/>
      <point x="406" y="1188" type="line"/>
      <point x="406" y="0" type="line"/>
    </contour>
    <contour>
      <point x="729" y="241" type="line"/>
      <point x="729" y="627" type="line"/>
      <point x="883" y="627" type="line" smooth="yes"/>
      <point x="1050" y="627"/>
      <point x="1089" y="547"/>
      <point x="1089" y="441" type="curve" smooth="yes"/>
      <point x="1089" y="325"/>
      <point x="1049" y="241"/>
      <point x="890" y="241" type="curve" smooth="yes"/>
    </contour>
    <contour>
      <point x="729" y="859" type="line"/>
      <point x="729" y="1188" type="line"/>
      <point x="854" y="1188" type="line" smooth="yes"/>
      <point x="998" y="1188"/>
      <point x="1057" y="1144"/>
      <point x="1057" y="1031" type="curve" smooth="yes"/>
      <point x="1057" y="919"/>
      <point x="1018" y="859"/>
      <point x="868" y="859" type="curve" smooth="yes"/>
    </contour>
  </outline>
</glyph>
<glyph name="Btopbar" format="2">
  <advance width="1278"/>
  <unicode hex="0182"/>
  <anchor x="618" y="0" name="bottom"/>
  <anchor x="618" y="1428" name="top"/>
  <outline>
    <contour>
      <point x="612" y="0" type="line" smooth="yes"/>
      <point x="978" y="0"/>
      <point x="1162" y="168"/>
      <point x="1162" y="436" type="curve" smooth="yes"/>
      <point x="1162" y="673"/>
      <point x="1016" y="851"/>
      <point x="624" y="851" type="curve" smooth="yes"/>
      <point x="453" y="851" type="line"/>
      <point x="453" y="1228" type="line"/>
      <point x="1055" y="1228" type="line"/>
      <point x="1055" y="1428" type="line"/>
      <point x="154" y="1428" type="line"/>
      <point x="154" y="0" type="line"/>
    </contour>
    <contour>
      <point x="453" y="200" type="line"/>
      <point x="453" y="651" type="line"/>
      <point x="599" y="651" type="line" smooth="yes"/>
      <point x="773" y="651"/>
      <point x="861" y="589"/>
      <point x="861" y="431" type="curve" smooth="yes"/>
      <point x="861" y="276"/>
      <point x="788" y="200"/>
      <point x="607" y="200" type="curve" smooth="yes"/>
    </contour>
  </outline>
</glyph>
<glyph name="btopbar" format="2">
  <advance width="1357"/>
  <unicode hex="0183"/>
  <anchor x="627" y="0" name="bottom"/>
  <anchor x="627" y="1520" name="top"/>
  <outline>
    <contour>
      <point x="752" y="-20" type="curve" smooth="yes"/>
      <point x="993" y="-20"/>
      <point x="1172" y="165"/>
      <point x="1172" y="543" type="curve" smooth="yes"/>
      <point x="1172" y="924"/>
      <point x="996" y="1093"/>
      <point x="758" y="1093" type="curve" smooth="yes"/>
      <point x="596" y="1093"/>
      <point x="502" y="1019"/>
      <point x="450" y="935" type="curve"/>
      <point x="437" y="935" type="line"/>
      <point x="441" y="977"/>
      <point x="450" y="1056"/>
      <point x="450" y="1151" type="curve" smooth="yes"/>
      <point x="450" y="1320" type="line"/>
      <point x="1066" y="1320" type="line"/>
      <point x="1066" y="1520" type="line"/>
      <point x="146" y="1520" type="line"/>
      <point x="146" y="0" type="line" name=".hr01"/>
      <point x="379" y="0" type="line"/>
      <point x="430" y="123" type="line"/>
      <point x="450" y="123" type="line"/>
      <point x="506" y="50"/>
      <point x="586" y="-20" name=".hr02"/>
    </contour>
    <contour>
      <point x="668" y="195" type="curve" smooth="yes"/>
      <point x="499" y="195"/>
      <point x="450" y="319"/>
      <point x="450" y="546" type="curve" smooth="yes"/>
      <point x="450" y="554" type="line" smooth="yes"/>
      <point x="450" y="777"/>
      <point x="526" y="878"/>
      <point x="663" y="878" type="curve" smooth="yes"/>
      <point x="788" y="878"/>
      <point x="861" y="774"/>
      <point x="861" y="546" type="curve" smooth="yes"/>
      <point x="861" y="317"/>
      <point x="788" y="195"/>
    </contour>
  </outline>
</glyph>
<glyph name="Tonesix" format="2">
  <advance width="1500"/>
  <unicode hex="0184"/>
  <anchor x="754" y="0" name="bottom"/>
  <anchor x="754" y="1428" name="top"/>
  <outline>
    <contour>
      <point x="802" y="-25" type="curve" smooth="yes"/>
      <point x="1214" y="-25"/>
      <point x="1409" y="158"/>
      <point x="1409" y="430" type="curve" smooth="yes"/>
      <point x="1409" y="673"/>
      <point x="1223" y="872"/>
      <point x="744" y="872" type="curve" smooth="yes"/>
      <point x="510" y="872" type="line"/>
      <point x="510" y="1428" type="line"/>
      <point x="187" y="1428" type="line"/>
      <point x="187" y="423" type="line" smooth="yes"/>
      <point x="187" y="129"/>
      <point x="378" y="-25"/>
    </contour>
    <contour>
      <point x="793" y="215" type="curve" smooth="yes"/>
      <point x="597" y="215"/>
      <point x="510" y="279"/>
      <point x="510" y="431" type="curve" smooth="yes"/>
      <point x="510" y="631" type="line"/>
      <point x="701" y="631" type="line" smooth="yes"/>
      <point x="944" y="631"/>
      <point x="1082" y="586"/>
      <point x="1082" y="430" type="curve" smooth="yes"/>
      <point x="1082" y="284"/>
      <point x="981" y="215"/>
    </contour>
  </outline>
</glyph>
<glyph name="tonesix" format="2">
  <advance width="1351"/>
  <unicode hex="0185"/>
  <anchor x="626" y="0" name="bottom"/>
  <anchor x="626" y="1520" name="top"/>
  <outline>
    <contour>
      <point x="662" y="-20" type="curve" smooth="yes"/>
      <point x="951" y="-20"/>
      <point x="1170" y="160"/>
      <point x="1170" y="542" type="curve" smooth="yes"/>
      <point x="1170" y="913"/>
      <point x="995" y="1105"/>
      <point x="755" y="1105" type="curve" smooth="yes"/>
      <point x="595" y="1105"/>
      <point x="497" y="1032"/>
      <point x="441" y="948" type="curve"/>
      <point x="429" y="948" type="line"/>
      <point x="435" y="997"/>
      <point x="441" y="1074"/>
      <point x="441" y="1164" type="curve" smooth="yes"/>
      <point x="441" y="1520" type="line"/>
      <point x="138" y="1520" type="line"/>
      <point x="138" y="537" type="line" smooth="yes"/>
      <point x="138" y="178"/>
      <point x="339" y="-20"/>
    </contour>
    <contour>
      <point x="657" y="194" type="curve" smooth="yes"/>
      <point x="528" y="194"/>
      <point x="441" y="305"/>
      <point x="441" y="532" type="curve" smooth="yes"/>
      <point x="441" y="566" type="line" smooth="yes"/>
      <point x="441" y="785"/>
      <point x="501" y="891"/>
      <point x="660" y="891" type="curve" smooth="yes"/>
      <point x="785" y="891"/>
      <point x="860" y="775"/>
      <point x="860" y="543" type="curve" smooth="yes"/>
      <point x="860" y="304"/>
      <point x="790" y="194"/>
    </contour>
  </outline>
</glyph>
<glyph name="Oopen" format="2">
  <advance width="1459"/>
  <unicode hex="0186"/>
  <anchor x="600" y="0" name="bottom"/>
  <anchor x="600" y="1428" name="top"/>
  <outline>
    <contour>
      <point x="568" y="-20" type="curve" smooth="yes"/>
      <point x="1069" y="-20"/>
      <point x="1337" y="292"/>
      <point x="1337" y="725" type="curve" smooth="yes"/>
      <point x="1337" y="1166"/>
      <point x="1090" y="1448"/>
      <point x="587" y="1448" type="curve" smooth="yes"/>
      <point x="409" y="1448"/>
      <point x="225" y="1418"/>
      <point x="81" y="1356" type="curve"/>
      <point x="175" y="1128" type="line"/>
      <point x="284" y="1174"/>
      <point x="415" y="1208"/>
      <point x="556" y="1208" type="curve" smooth="yes"/>
      <point x="849" y="1208"/>
      <point x="1007" y="1019"/>
      <point x="1007" y="710" type="curve" smooth="yes"/>
      <point x="1007" y="398"/>
      <point x="837" y="220"/>
      <point x="540" y="220" type="curve" smooth="yes"/>
      <point x="398" y="220"/>
      <point x="272" y="253"/>
      <point x="143" y="294" type="curve"/>
      <point x="143" y="50" type="line"/>
      <point x="270" y="5"/>
      <point x="398" y="-20"/>
    </contour>
  </outline>
</glyph>
<glyph name="Chook" format="2">
  <advance width="1459"/>
  <unicode hex="0187"/>
  <anchor x="863" y="0" name="bottom"/>
  <anchor x="857" y="1720" name="top"/>
  <outline>
    <contour>
      <point x="1460" y="1748" type="curve" smooth="yes"/>
      <point x="1255" y="1748"/>
      <point x="1125" y="1646"/>
      <point x="1125" y="1436" type="curve" smooth="yes"/>
      <point x="1125" y="1428" type="line"/>
      <point x="1057" y="1441"/>
      <point x="985" y="1448"/>
      <point x="912" y="1448" type="curve" smooth="yes"/>
      <point x="404" y="1448"/>
      <point x="134" y="1144"/>
      <point x="134" y="713" type="curve" smooth="yes"/>
      <point x="134" y="269"/>
      <point x="369" y="-20"/>
      <point x="881" y="-20" type="curve" smooth="yes"/>
      <point x="1062" y="-20"/>
      <point x="1185" y="2"/>
      <point x="1326" y="52" type="curve"/>
      <point x="1326" y="298" type="line"/>
      <point x="1177" y="254"/>
      <point x="1050" y="225"/>
      <point x="913" y="225" type="curve" smooth="yes"/>
      <point x="608" y="225"/>
      <point x="469" y="403"/>
      <point x="469" y="711" type="curve" smooth="yes"/>
      <point x="469" y="1020"/>
      <point x="632" y="1204"/>
      <point x="910" y="1204" type="curve" smooth="yes"/>
      <point x="1042" y="1204"/>
      <point x="1162" y="1158"/>
      <point x="1273" y="1114" type="curve"/>
      <point x="1384" y="1338" type="line"/>
      <point x="1384" y="1418" type="line" smooth="yes"/>
      <point x="1384" y="1487"/>
      <point x="1423" y="1517"/>
      <point x="1492" y="1517" type="curve" smooth="yes"/>
      <point x="1543" y="1517"/>
      <point x="1591" y="1505"/>
      <point x="1615" y="1497" type="curve"/>
      <point x="1615" y="1719" type="line"/>
      <point x="1586" y="1731"/>
      <point x="1525" y="1748"/>
    </contour>
  </outline>
</glyph>
<glyph name="chook" format="2">
  <advance width="1147"/>
  <unicode hex="0188"/>
  <anchor x="676" y="0" name="bottom"/>
  <anchor x="655" y="1529" name="top"/>
  <outline>
    <contour>
      <point x="682" y="-20" type="curve" smooth="yes"/>
      <point x="851" y="-20"/>
      <point x="950" y="4"/>
      <point x="1050" y="64" type="curve"/>
      <point x="1050" y="334" type="line"/>
      <point x="952" y="275"/>
      <point x="848" y="239"/>
      <point x="702" y="239" type="curve" smooth="yes"/>
      <point x="525" y="239"/>
      <point x="425" y="328"/>
      <point x="425" y="544" type="curve" smooth="yes"/>
      <point x="425" y="755"/>
      <point x="514" y="858"/>
      <point x="705" y="858" type="curve" smooth="yes"/>
      <point x="797" y="858"/>
      <point x="897" y="828"/>
      <point x="989" y="792" type="curve"/>
      <point x="1086" y="1029" type="line"/>
      <point x="1086" y="1173" type="line" smooth="yes"/>
      <point x="1086" y="1244"/>
      <point x="1125" y="1273"/>
      <point x="1195" y="1273" type="curve" smooth="yes"/>
      <point x="1247" y="1273"/>
      <point x="1296" y="1261"/>
      <point x="1320" y="1253" type="curve"/>
      <point x="1320" y="1498" type="line"/>
      <point x="1291" y="1510"/>
      <point x="1230" y="1529"/>
      <point x="1164" y="1529" type="curve" smooth="yes"/>
      <point x="946" y="1529"/>
      <point x="822" y="1426"/>
      <point x="822" y="1173" type="curve" smooth="yes"/>
      <point x="822" y="1108" type="line"/>
      <point x="786" y="1113"/>
      <point x="745" y="1115"/>
      <point x="706" y="1115" type="curve" smooth="yes"/>
      <point x="356" y="1115"/>
      <point x="93" y="960"/>
      <point x="93" y="542" type="curve" smooth="yes"/>
      <point x="93" y="140"/>
      <point x="325" y="-20"/>
    </contour>
  </outline>
</glyph>
<glyph name="Dafrican" format="2">
  <advance width="1661"/>
  <unicode hex="0189"/>
  <anchor x="826" y="0" name="bottom"/>
  <anchor x="826" y="1428" name="top"/>
  <outline>
    <contour>
      <point x="194" y="1428" type="line"/>
      <point x="194" y="825" type="line"/>
      <point x="36" y="825" type="line"/>
      <point x="36" y="588" type="line"/>
      <point x="194" y="588" type="line"/>
      <point x="194" y="0" type="line"/>
      <point x="678" y="0" type="line" smooth="yes"/>
      <point x="1211" y="0"/>
      <point x="1539" y="246"/>
      <point x="1539" y="737" type="curve" smooth="yes"/>
      <point x="1539" y="1186"/>
      <point x="1232" y="1428"/>
      <point x="722" y="1428" type="curve" smooth="yes"/>
    </contour>
    <contour>
      <point x="708" y="1192" type="line" smooth="yes"/>
      <point x="1030" y="1192"/>
      <point x="1207" y="1044"/>
      <point x="1207" y="727" type="curve" smooth="yes"/>
      <point x="1207" y="400"/>
      <point x="1033" y="239"/>
      <point x="670" y="239" type="curve" smooth="yes"/>
      <point x="513" y="239" type="line"/>
      <point x="513" y="588" type="line"/>
      <point x="842" y="588" type="line"/>
      <point x="842" y="825" type="line"/>
      <point x="513" y="825" type="line"/>
      <point x="513" y="1192" type="line"/>
    </contour>
  </outline>
</glyph>
<glyph name="Dhook" format="2">
  <advance width="1871"/>
  <unicode hex="018A"/>
  <anchor x="936" y="0" name="bottom"/>
  <anchor x="936" y="1428" name="top"/>
  <outline>
    <contour>
      <point x="900" y="0" type="line" smooth="yes"/>
      <point x="1431" y="0"/>
      <point x="1749" y="246"/>
      <point x="1749" y="728" type="curve" smooth="yes"/>
      <point x="1749" y="1186"/>
      <point x="1428" y="1428"/>
      <point x="947" y="1428" type="curve" smooth="yes"/>
      <point x="393" y="1428" type="line" smooth="yes"/>
      <point x="111" y="1428"/>
      <point x="7" y="1298"/>
      <point x="7" y="1110" type="curve" smooth="yes"/>
      <point x="7" y="1065"/>
      <point x="22" y="1019"/>
      <point x="34" y="996" type="curve"/>
      <point x="291" y="996" type="line"/>
      <point x="282" y="1015"/>
      <point x="269" y="1050"/>
      <point x="269" y="1095" type="curve" smooth="yes"/>
      <point x="269" y="1147"/>
      <point x="306" y="1188"/>
      <point x="386" y="1188" type="curve" smooth="yes"/>
      <point x="443" y="1188" type="line"/>
      <point x="443" y="0" type="line"/>
    </contour>
    <contour>
      <point x="765" y="242" type="line"/>
      <point x="765" y="1188" type="line"/>
      <point x="954" y="1188" type="line" smooth="yes"/>
      <point x="1249" y="1188"/>
      <point x="1413" y="1045"/>
      <point x="1413" y="720" type="curve" smooth="yes"/>
      <point x="1413" y="404"/>
      <point x="1250" y="242"/>
      <point x="912" y="242" type="curve" smooth="yes"/>
    </contour>
  </outline>
</glyph>
<glyph name="Dtopbar" format="2">
  <advance width="1278"/>
  <unicode hex="018B"/>
  <anchor x="633" y="0" name="bottom"/>
  <anchor x="633" y="1428" name="top"/>
  <outline>
    <contour>
      <point x="1094" y="0" type="line"/>
      <point x="1094" y="1428" type="line"/>
      <point x="198" y="1428" type="line"/>
      <point x="198" y="1186" type="line"/>
      <point x="776" y="1186" type="line"/>
      <point x="776" y="876" type="line"/>
      <point x="638" y="876" type="line" smooth="yes"/>
      <point x="257" y="876"/>
      <point x="84" y="668"/>
      <point x="84" y="426" type="curve" smooth="yes"/>
      <point x="84" y="150"/>
      <point x="266" y="0"/>
      <point x="627" y="0" type="curve" smooth="yes"/>
    </contour>
    <contour>
      <point x="642" y="233" type="line" smooth="yes"/>
      <point x="479" y="233"/>
      <point x="405" y="298"/>
      <point x="405" y="433" type="curve" smooth="yes"/>
      <point x="405" y="576"/>
      <point x="497" y="644"/>
      <point x="648" y="644" type="curve" smooth="yes"/>
      <point x="776" y="644" type="line"/>
      <point x="776" y="233" type="line"/>
    </contour>
  </outline>
</glyph>
<glyph name="dtopbar" format="2">
  <advance width="1357"/>
  <unicode hex="018C"/>
  <anchor x="673" y="0" name="bottom"/>
  <anchor x="673" y="1520" name="top"/>
  <outline>
    <contour>
      <point x="530" y="-20" type="curve" smooth="yes"/>
      <point x="703" y="-20"/>
      <point x="801" y="55"/>
      <point x="859" y="136" type="curve"/>
      <point x="870" y="136" type="line"/>
      <point x="928" y="0" type="line" name=".hr01"/>
      <point x="1182" y="0" type="line"/>
      <point x="1182" y="1520" type="line"/>
      <point x="205" y="1520" type="line"/>
      <point x="205" y="1279" type="line"/>
      <point x="859" y="1279" type="line"/>
      <point x="859" y="1135" type="line" smooth="yes"/>
      <point x="859" y="1062"/>
      <point x="881" y="931"/>
      <point x="882" y="944" type="curve"/>
      <point x="869" y="944" type="line"/>
      <point x="812" y="1020"/>
      <point x="710" y="1095"/>
      <point x="539" y="1095" type="curve" smooth="yes"/>
      <point x="280" y="1095"/>
      <point x="93" y="902"/>
      <point x="93" y="549" type="curve" smooth="yes"/>
      <point x="93" y="174"/>
      <point x="277" y="-20" name=".hr02"/>
    </contour>
    <contour>
      <point x="641" y="233" type="curve" smooth="yes"/>
      <point x="502" y="233"/>
      <point x="423" y="342"/>
      <point x="423" y="544" type="curve" smooth="yes"/>
      <point x="423" y="728"/>
      <point x="502" y="840"/>
      <point x="636" y="840" type="curve" smooth="yes"/>
      <point x="821" y="840"/>
      <point x="878" y="730"/>
      <point x="878" y="542" type="curve" smooth="yes"/>
      <point x="878" y="506" type="line"/>
      <point x="878" y="318"/>
      <point x="810" y="233"/>
    </contour>
  </outline>
</glyph>
<glyph name="deltaturned" format="2">
  <advance width="1274"/>
  <unicode hex="018D"/>
  <anchor x="642" y="-437" name="bottom"/>
  <anchor x="642" y="1095" name="top"/>
  <outline>
    <contour>
      <point x="671" y="1115" type="curve" smooth="yes"/>
      <point x="351" y="1115"/>
      <point x="132" y="926"/>
      <point x="132" y="626" type="curve" smooth="yes"/>
      <point x="132" y="408"/>
      <point x="215" y="254"/>
      <point x="546" y="71" type="curve"/>
      <point x="701" y="-14"/>
      <point x="732" y="-47"/>
      <point x="732" y="-102" type="curve" smooth="yes"/>
      <point x="732" y="-153"/>
      <point x="694" y="-203"/>
      <point x="584" y="-203" type="curve" smooth="yes"/>
      <point x="486" y="-203"/>
      <point x="384" y="-160"/>
      <point x="294" y="-81" type="curve"/>
      <point x="172" y="-306" type="line"/>
      <point x="266" y="-382"/>
      <point x="420" y="-435"/>
      <point x="596" y="-435" type="curve" smooth="yes"/>
      <point x="897" y="-435"/>
      <point x="1038" y="-301"/>
      <point x="1038" y="-124" type="curve" smooth="yes"/>
      <point x="1038" y="15"/>
      <point x="966" y="99"/>
      <point x="846" y="169" type="curve"/>
      <point x="1093" y="258"/>
      <point x="1198" y="422"/>
      <point x="1198" y="646" type="curve" smooth="yes"/>
      <point x="1198" y="932"/>
      <point x="979" y="1115"/>
    </contour>
    <contour>
      <point x="665" y="878" type="curve" smooth="yes"/>
      <point x="794" y="878"/>
      <point x="880" y="778"/>
      <point x="880" y="621" type="curve" smooth="yes"/>
      <point x="880" y="462"/>
      <point x="794" y="364"/>
      <point x="651" y="312" type="curve"/>
      <point x="530" y="374"/>
      <point x="452" y="470"/>
      <point x="452" y="618" type="curve" smooth="yes"/>
      <point x="452" y="770"/>
      <point x="527" y="878"/>
    </contour>
  </outline>
</glyph>
<glyph name="Ereversed" format="2">
  <advance width="1230"/>
  <unicode hex="018E"/>
  <anchor x="592" y="0" name="bottom"/>
  <anchor x="591" y="1428" name="top"/>
  <anchor x="1124" y="1428" name="topright"/>
  <outline>
    <contour>
      <point x="1046" y="0" type="line"/>
      <point x="1046" y="1428" type="line"/>
      <point x="115" y="1428" type="line"/>
      <point x="115" y="1192" type="line"/>
      <point x="727" y="1192" type="line"/>
      <point x="727" y="861" type="line"/>
      <point x="155" y="861" type="line"/>
      <point x="155" y="625" type="line"/>
      <point x="727" y="625" type="line"/>
      <point x="727" y="239" type="line"/>
      <point x="115" y="239" type="line"/>
      <point x="115" y="0" type="line"/>
    </contour>
  </outline>
</glyph>
<glyph name="Schwa" format="2">
  <advance width="1479"/>
  <unicode hex="018F"/>
  <anchor x="761" y="0" name="bottom"/>
  <anchor x="761" y="1428" name="top"/>
  <outline>
    <contour>
      <point x="694" y="1250" type="curve" smooth="yes"/>
      <point x="969" y="1250"/>
      <point x="1088" y="1074"/>
      <point x="1103" y="794" type="curve"/>
      <point x="92" y="794" type="line"/>
      <point x="92" y="728" type="line" smooth="yes"/>
      <point x="92" y="269"/>
      <point x="298" y="-20"/>
      <point x="736" y="-20" type="curve" smooth="yes"/>
      <point x="1160" y="-20"/>
      <point x="1421" y="258"/>
      <point x="1421" y="716" type="curve" smooth="yes"/>
      <point x="1421" y="1177"/>
      <point x="1135" y="1450"/>
      <point x="722" y="1450" type="curve" smooth="yes"/>
      <point x="497" y="1450"/>
      <point x="313" y="1409"/>
      <point x="187" y="1355" type="curve"/>
      <point x="187" y="1145" type="line"/>
      <point x="343" y="1208"/>
      <point x="508" y="1250"/>
    </contour>
    <contour>
      <point x="743" y="180" type="curve" smooth="yes"/>
      <point x="517" y="180"/>
      <point x="411" y="345"/>
      <point x="404" y="607" type="curve"/>
      <point x="1103" y="607" type="line"/>
      <point x="1085" y="333"/>
      <point x="942" y="180"/>
    </contour>
  </outline>
</glyph>
<glyph name="Eopen" format="2">
  <advance width="1120"/>
  <unicode hex="0190"/>
  <anchor x="562" y="0" name="bottom"/>
  <anchor x="562" y="1428" name="top"/>
  <outline>
    <contour>
      <point x="585" y="1451" type="curve" smooth="yes"/>
      <point x="290" y="1451"/>
      <point x="136" y="1297"/>
      <point x="136" y="1083" type="curve" smooth="yes"/>
      <point x="136" y="881"/>
      <point x="262" y="779"/>
      <point x="431" y="751" type="curve"/>
      <point x="431" y="744" type="line"/>
      <point x="216" y="723"/>
      <point x="86" y="595"/>
      <point x="86" y="393" type="curve" smooth="yes"/>
      <point x="86" y="154"/>
      <point x="233" y="-22"/>
      <point x="585" y="-22" type="curve" smooth="yes"/>
      <point x="775" y="-22"/>
      <point x="918" y="7"/>
      <point x="1019" y="60" type="curve"/>
      <point x="1019" y="307" type="line"/>
      <point x="919" y="247"/>
      <point x="775" y="208"/>
      <point x="664" y="208" type="curve" smooth="yes"/>
      <point x="468" y="208"/>
      <point x="407" y="290"/>
      <point x="407" y="424" type="curve" smooth="yes"/>
      <point x="407" y="567"/>
      <point x="538" y="627"/>
      <point x="750" y="627" type="curve" smooth="yes"/>
      <point x="834" y="627" type="line"/>
      <point x="834" y="855" type="line"/>
      <point x="770" y="855" type="line" smooth="yes"/>
      <point x="522" y="855"/>
      <point x="449" y="933"/>
      <point x="449" y="1053" type="curve" smooth="yes"/>
      <point x="449" y="1154"/>
      <point x="502" y="1217"/>
      <point x="624" y="1217" type="curve" smooth="yes"/>
      <point x="741" y="1217"/>
      <point x="837" y="1168"/>
      <point x="917" y="1104" type="curve"/>
      <point x="1048" y="1296" type="line"/>
      <point x="923" y="1386"/>
      <point x="790" y="1451"/>
    </contour>
  </outline>
</glyph>
<glyph name="Fhook" format="2">
  <advance width="1188"/>
  <unicode hex="0191"/>
  <anchor x="352" y="0" name="bottom"/>
  <anchor x="842" y="1428" name="top"/>
  <anchor x="1286" y="1428" name="topright"/>
  <outline>
    <contour>
      <point x="353" y="-484" type="curve" smooth="yes"/>
      <point x="571" y="-484"/>
      <point x="743" y="-373"/>
      <point x="743" y="-112" type="curve" smooth="yes"/>
      <point x="743" y="643" type="line"/>
      <point x="1191" y="643" type="line"/>
      <point x="1191" y="843" type="line"/>
      <point x="743" y="843" type="line"/>
      <point x="743" y="1228" type="line"/>
      <point x="1226" y="1228" type="line"/>
      <point x="1226" y="1428" type="line"/>
      <point x="448" y="1428" type="line"/>
      <point x="448" y="-100" type="line" smooth="yes"/>
      <point x="448" y="-243"/>
      <point x="398" y="-295"/>
      <point x="330" y="-295" type="curve" smooth="yes"/>
      <point x="269" y="-295"/>
      <point x="227" y="-252"/>
      <point x="227" y="-177" type="curve" smooth="yes"/>
      <point x="227" y="-150"/>
      <point x="232" y="-129"/>
      <point x="245" y="-105" type="curve"/>
      <point x="22" y="-44" type="line"/>
      <point x="-4" y="-87"/>
      <point x="-24" y="-135"/>
      <point x="-24" y="-185" type="curve" smooth="yes"/>
      <point x="-24" y="-367"/>
      <point x="108" y="-484"/>
    </contour>
  </outline>
</glyph>
<glyph name="florin" format="2">
  <advance width="1351"/>
  <unicode hex="0192"/>
  <anchor x="416" y="0" name="bottom"/>
  <anchor x="1007" y="1530" name="top"/>
  <anchor x="1392" y="1530" name="topright"/>
  <outline>
    <contour>
      <point x="442" y="-484" type="curve" smooth="yes"/>
      <point x="729" y="-484"/>
      <point x="891" y="-364"/>
      <point x="891" y="-106" type="curve" smooth="yes"/>
      <point x="891" y="859" type="line"/>
      <point x="1268" y="859" type="line"/>
      <point x="1268" y="1095" type="line"/>
      <point x="891" y="1095" type="line"/>
      <point x="891" y="1138" type="line" smooth="yes"/>
      <point x="891" y="1248"/>
      <point x="962" y="1296"/>
      <point x="1111" y="1296" type="curve" smooth="yes"/>
      <point x="1193" y="1296"/>
      <point x="1273" y="1284"/>
      <point x="1334" y="1272" type="curve"/>
      <point x="1411" y="1484" type="line"/>
      <point x="1321" y="1512"/>
      <point x="1213" y="1530"/>
      <point x="1083" y="1530" type="curve" smooth="yes"/>
      <point x="751" y="1530"/>
      <point x="573" y="1410"/>
      <point x="573" y="1127" type="curve" smooth="yes"/>
      <point x="573" y="1094" type="line"/>
      <point x="314" y="1012" type="line"/>
      <point x="314" y="859" type="line"/>
      <point x="571" y="859" type="line"/>
      <point x="571" y="-109" type="line" smooth="yes"/>
      <point x="571" y="-210"/>
      <point x="511" y="-254"/>
      <point x="410" y="-254" type="curve" smooth="yes"/>
      <point x="330" y="-254"/>
      <point x="262" y="-220"/>
      <point x="262" y="-154" type="curve" smooth="yes"/>
      <point x="262" y="-122"/>
      <point x="267" y="-97"/>
      <point x="275" y="-66" type="curve"/>
      <point x="17" y="7" type="line"/>
      <point x="-1" y="-34"/>
      <point x="-12" y="-89"/>
      <point x="-12" y="-154" type="curve" smooth="yes"/>
      <point x="-12" y="-356"/>
      <point x="159" y="-484"/>
    </contour>
  </outline>
</glyph>
<glyph name="Ghook" format="2">
  <advance width="1527"/>
  <unicode hex="0193"/>
  <anchor x="778" y="0" name="bottom"/>
  <anchor x="848" y="1596" name="top"/>
  <outline>
    <contour>
      <point x="1350" y="1732" type="curve" smooth="yes"/>
      <point x="1170" y="1732"/>
      <point x="1045" y="1635"/>
      <point x="1045" y="1443" type="curve" smooth="yes"/>
      <point x="1045" y="1422" type="line"/>
      <point x="986" y="1439"/>
      <point x="924" y="1448"/>
      <point x="860" y="1448" type="curve" smooth="yes"/>
      <point x="383" y="1448"/>
      <point x="112" y="1168"/>
      <point x="112" y="717" type="curve" smooth="yes"/>
      <point x="112" y="253"/>
      <point x="349" y="-20"/>
      <point x="775" y="-20" type="curve" smooth="yes"/>
      <point x="985" y="-20"/>
      <point x="1137" y="6"/>
      <point x="1292" y="55" type="curve"/>
      <point x="1292" y="777" type="line"/>
      <point x="746" y="777" type="line"/>
      <point x="746" y="577" type="line"/>
      <point x="994" y="577" type="line"/>
      <point x="994" y="206" type="line"/>
      <point x="944" y="193"/>
      <point x="892" y="180"/>
      <point x="802" y="180" type="curve" smooth="yes"/>
      <point x="524" y="180"/>
      <point x="424" y="406"/>
      <point x="424" y="714" type="curve" smooth="yes"/>
      <point x="424" y="1042"/>
      <point x="590" y="1248"/>
      <point x="856" y="1248" type="curve" smooth="yes"/>
      <point x="980" y="1248"/>
      <point x="1100" y="1210"/>
      <point x="1184" y="1168" type="curve"/>
      <point x="1288" y="1357" type="line"/>
      <point x="1288" y="1443" type="line" smooth="yes"/>
      <point x="1288" y="1510"/>
      <point x="1321" y="1541"/>
      <point x="1380" y="1541" type="curve" smooth="yes"/>
      <point x="1425" y="1541"/>
      <point x="1467" y="1529"/>
      <point x="1488" y="1521" type="curve"/>
      <point x="1488" y="1705" type="line"/>
      <point x="1464" y="1717"/>
      <point x="1408" y="1732"/>
    </contour>
  </outline>
</glyph>
